<?xml version="1.0" encoding="UTF-8" standalone="no"?>
<!-- Created with Inkscape (http://www.inkscape.org/) -->

<svg
   xmlns:dc="http://purl.org/dc/elements/1.1/"
   xmlns:cc="http://creativecommons.org/ns#"
   xmlns:rdf="http://www.w3.org/1999/02/22-rdf-syntax-ns#"
   xmlns:svg="http://www.w3.org/2000/svg"
   xmlns="http://www.w3.org/2000/svg"
   xmlns:sodipodi="http://sodipodi.sourceforge.net/DTD/sodipodi-0.dtd"
   xmlns:inkscape="http://www.inkscape.org/namespaces/inkscape"
   width="1080"
   height="1080"
   id="svg2"
   version="1.1"
   inkscape:version="0.48.5 r10040"
   sodipodi:docname="controller.svg">
  <defs
     id="defs4" />
  <sodipodi:namedview
     id="base"
     pagecolor="#ffffff"
     bordercolor="#666666"
     borderopacity="1.0"
     inkscape:pageopacity="0.0"
     inkscape:pageshadow="2"
     inkscape:zoom="0.9"
     inkscape:cx="534.71306"
     inkscape:cy="526.26303"
     inkscape:document-units="in"
     inkscape:current-layer="layer1"
     showgrid="false"
     units="in"
     inkscape:window-width="1655"
     inkscape:window-height="1185"
     inkscape:window-x="212"
     inkscape:window-y="63"
     inkscape:window-maximized="0" />
  <metadata
     id="metadata7">
    <rdf:RDF>
      <cc:Work
         rdf:about="">
        <dc:format>image/svg+xml</dc:format>
        <dc:type
           rdf:resource="http://purl.org/dc/dcmitype/StillImage" />
        <dc:title />
      </cc:Work>
    </rdf:RDF>
  </metadata>
  <g
     inkscape:label="Layer 1"
     inkscape:groupmode="layer"
     id="layer1"
     transform="translate(0,27.64025)">
    <g
       transform="translate(39.533063,24.295806)"
       id="g3068">
      <polygon
         style="fill:none;stroke:#000000;stroke-width:0.89999998"
         points="144,10.62 180,10.62 180,0 216,0 216,10.62 252,10.62 252,0 288,0 288,10.62 324,10.62 324,0 360,0 360,10.62 396,10.62 396,0 432,0 432,10.62 486,10.62 486,0 540,0 540,36 529.38,36 529.38,72 540,72 540,108 529.38,108 529.38,144 540,144 540,180 486,180 486,169.38 432,169.38 432,180 396,180 396,169.38 360,169.38 360,180 324,180 324,169.38 288,169.38 288,180 252,180 252,169.38 216,169.38 216,180 180,180 180,169.38 144,169.38 144,180 108,180 108,169.38 54,169.38 54,180 0,180 0,144 10.62,144 10.62,108 0,108 0,72 10.62,72 10.62,36 0,36 0,0 54,0 54,10.62 108,10.62 108,0 144,0 "
         id="polygon3070" />
    </g>
    <g
       transform="translate(34.490959,579.62172)"
       id="g3072">
      <polygon
         style="fill:none;stroke:#000000;stroke-width:0.89999998"
         points="180,10.62 180,0 216,0 216,10.62 252,10.62 252,0 288,0 288,10.62 324,10.62 324,0 360,0 360,10.62 396,10.62 396,0 432,0 432,10.62 486,10.62 486,0 540,0 540,36 529.38,36 529.38,72 540,72 540,108 529.38,108 529.38,144 540,144 540,180 486,180 486,169.38 432,169.38 432,180 396,180 396,169.38 360,169.38 360,180 324,180 324,169.38 288,169.38 288,180 252,180 252,169.38 216,169.38 216,180 180,180 180,169.38 144,169.38 144,180 108,180 108,169.38 54,169.38 54,180 0,180 0,144 10.62,144 10.62,108 0,108 0,72 10.62,72 10.62,36 0,36 0,0 54,0 54,10.62 108,10.62 108,0 144,0 144,10.62 "
         id="polygon3074" />
    </g>
    <g
       transform="translate(597.99686,582.55995)"
       id="g3076">
      <polygon
         style="fill:none;stroke:#000000;stroke-width:0.89999998"
         points="162,10.62 162,0 198,0 198,10.62 234,10.62 234,0 270,0 270,10.62 315,10.62 315,0 349.38,0 349.38,36 360,36 360,72 349.38,72 349.38,108 360,108 360,144 349.38,144 349.38,180 315,180 315,169.38 270,169.38 270,180 234,180 234,169.38 198,169.38 198,180 162,180 162,169.38 126,169.38 126,180 90,180 90,169.38 45,169.38 45,180 10.62,180 10.62,144 0,144 0,108 10.62,108 10.62,72 0,72 0,36 10.62,36 10.62,0 45,0 45,10.62 90,10.62 90,0 126,0 126,10.62 "
         id="polygon3078" />
    </g>
    <g
       transform="translate(32.387131,780.18935)"
       id="g3080">
      <polygon
         style="fill:none;stroke:#000000;stroke-width:0.89999998"
         points="162,10.62 162,0 198,0 198,10.62 234,10.62 234,0 270,0 270,10.62 315,10.62 315,0 349.38,0 349.38,36 360,36 360,72 349.38,72 349.38,108 360,108 360,144 349.38,144 349.38,180 315,180 315,169.38 270,169.38 270,180 234,180 234,169.38 198,169.38 198,180 162,180 162,169.38 126,169.38 126,180 90,180 90,169.38 45,169.38 45,180 10.62,180 10.62,144 0,144 0,108 10.62,108 10.62,72 0,72 0,36 10.62,36 10.62,0 45,0 45,10.62 90,10.62 90,0 126,0 126,10.62 "
         id="polygon3082" />
    </g>
    <g
       transform="translate(39.533063,204.29581)"
       id="g3084">
      <polygon
         style="fill:none;stroke:#000000;stroke-width:0.89999998"
         points="144,0 180,0 180,10.62 216,10.62 216,0 252,0 252,10.62 288,10.62 288,0 324,0 324,10.62 360,10.62 360,0 396,0 396,10.62 432,10.62 432,0 486,0 486,10.62 529.38,10.62 529.38,45 540,45 540,90 529.38,90 529.38,126 540,126 540,162 529.38,162 529.38,198 540,198 540,234 529.38,234 529.38,270 540,270 540,315 529.38,315 529.38,349.38 486,349.38 486,360 432,360 432,349.38 396,349.38 396,360 360,360 360,349.38 324,349.38 324,360 288,360 288,349.38 252,349.38 252,360 216,360 216,349.38 180,349.38 180,360 144,360 144,349.38 108,349.38 108,360 54,360 54,349.38 10.62,349.38 10.62,315 0,315 0,270 10.62,270 10.62,234 0,234 0,198 10.62,198 10.62,162 0,162 0,126 10.62,126 10.62,90 0,90 0,45 10.62,45 10.62,10.62 54,10.62 54,0 108,0 108,10.62 144,10.62 "
         id="polygon3086" />
    </g>
    <g
       transform="matrix(0,-1,1,0,590.20079,551.45768)"
       id="g3088">
      <polygon
         style="fill:none;stroke:#000000;stroke-width:0.89999998"
         points="180,10.62 216,10.62 216,0 252,0 252,10.62 288,10.62 288,0 324,0 324,10.62 360,10.62 360,0 396,0 396,10.62 432,10.62 432,0 486,0 486,10.62 529.38,10.62 529.38,45 540,45 540,90 529.38,90 529.38,126 540,126 540,162 529.38,162 529.38,198 540,198 540,234 529.38,234 529.38,270 540,270 540,315 529.38,315 529.38,349.38 486,349.38 486,360 432,360 432,349.38 396,349.38 396,360 360,360 360,349.38 324,349.38 324,360 288,360 288,349.38 252,349.38 252,360 216,360 216,349.38 180,349.38 180,360 144,360 144,349.38 108,349.38 108,360 54,360 54,349.38 10.62,349.38 10.62,315 0,315 0,270 10.62,270 10.62,234 0,234 0,198 10.62,198 10.62,162 0,162 0,126 10.62,126 10.62,90 0,90 0,45 10.62,45 10.62,10.62 54,10.62 54,0 108,0 108,10.62 144,10.62 144,0 180,0 "
         id="polygon3090" />
    </g>
    <g
       id="g3128"
       transform="translate(2.1539175,0)">
      <path
         transform="matrix(0.64826795,0,0,0.68068135,59.728219,203.02151)"
         d="m 255.62622,364.54044 c 0,32.45481 -27.62532,58.76464 -61.70288,58.76464 -34.07756,0 -61.70288,-26.30983 -61.70288,-58.76464 0,-32.45482 27.62532,-58.76465 61.70288,-58.76465 34.07756,0 61.70288,26.30983 61.70288,58.76465 z"
         sodipodi:ry="58.764648"
         sodipodi:rx="61.702881"
         sodipodi:cy="364.54044"
         sodipodi:cx="193.92334"
         id="path3124"
         style="fill:none;stroke:#ff0000;stroke-width:1.50539613"
         sodipodi:type="arc" />
      <path
         sodipodi:type="arc"
         style="fill:none;stroke:#ff0000;stroke-width:1.50539613"
         id="path3126"
         sodipodi:cx="193.92334"
         sodipodi:cy="364.54044"
         sodipodi:rx="61.702881"
         sodipodi:ry="58.764648"
         d="m 255.62622,364.54044 c 0,32.45481 -27.62532,58.76464 -61.70288,58.76464 -34.07756,0 -61.70288,-26.30983 -61.70288,-58.76464 0,-32.45482 27.62532,-58.76465 61.70288,-58.76465 34.07756,0 61.70288,26.30983 61.70288,58.76465 z"
         transform="matrix(0.64826795,0,0,0.68068135,303.6015,203.02151)" />
    </g>
    <path
       sodipodi:type="arc"
       style="fill:none;stroke:#ff0000;stroke-width:2.98098254"
       id="path3136"
       sodipodi:cx="193.92334"
       sodipodi:cy="364.54044"
       sodipodi:rx="61.702881"
       sodipodi:ry="58.764648"
       d="m 255.62622,364.54044 a 61.702881,58.764648 0 1 1 -123.40576,0 61.702881,58.764648 0 1 1 123.40576,0 z"
       transform="matrix(0.32737531,0,0,0.34374408,439.26918,-12.81558)" />
    <g
       id="g3146"
       transform="translate(-1.9072082e-6,0)">
      <path
         sodipodi:type="arc"
         style="fill:none;stroke:#ff0000;stroke-width:5.60147429"
         id="path3140"
         sodipodi:cx="193.92334"
         sodipodi:cy="364.54044"
         sodipodi:rx="61.702881"
         sodipodi:ry="58.764648"
         d="m 255.62622,364.54044 c 0,32.45481 -27.62532,58.76464 -61.70288,58.76464 -34.07756,0 -61.70288,-26.30983 -61.70288,-58.76464 0,-32.45482 27.62532,-58.76465 61.70288,-58.76465 34.07756,0 61.70288,26.30983 61.70288,58.76465 z"
         transform="matrix(0.17422201,0,0,0.18293311,124.56071,233.94605)" />
      <path
         transform="matrix(0.18880804,0,0,0.19824844,423.20542,228.36299)"
         d="m 255.62622,364.54044 c 0,32.45481 -27.62532,58.76464 -61.70288,58.76464 -34.07756,0 -61.70288,-26.30983 -61.70288,-58.76464 0,-32.45482 27.62532,-58.76465 61.70288,-58.76465 34.07756,0 61.70288,26.30983 61.70288,58.76465 z"
         sodipodi:ry="58.764648"
         sodipodi:rx="61.702881"
         sodipodi:cy="364.54044"
         sodipodi:cx="193.92334"
         id="path3142"
         style="fill:none;stroke:#ff0000;stroke-width:5.16874218"
         sodipodi:type="arc" />
      <path
         sodipodi:type="arc"
         style="fill:none;stroke:#ff0000;stroke-width:3.83540416"
         id="path3144"
         sodipodi:cx="193.92334"
         sodipodi:cy="364.54044"
         sodipodi:rx="61.702881"
         sodipodi:ry="58.764648"
         d="m 255.62622,364.54044 c 0,32.45481 -27.62532,58.76464 -61.70288,58.76464 -34.07756,0 -61.70288,-26.30983 -61.70288,-58.76464 0,-32.45482 27.62532,-58.76465 61.70288,-58.76465 34.07756,0 61.70288,26.30983 61.70288,58.76465 z"
         transform="matrix(0.25444517,0,0,0.26716743,252.69237,203.23923)" />
    </g>
    <g
       id="g3171"
       transform="translate(455.27342,130.91456)">
      <path
         transform="matrix(0.77283513,0,0,0.66979044,-55.000361,-26.21536)"
         d="m -210.08362,24.440029 c 0,6.085279 -4.27535,11.018372 -9.54925,11.018372 -5.27391,0 -9.54926,-4.933093 -9.54926,-11.018372 0,-6.085278 4.27535,-11.018371 9.54926,-11.018371 5.2739,0 9.54925,4.933093 9.54925,11.018371 z"
         sodipodi:ry="11.018372"
         sodipodi:rx="9.5492554"
         sodipodi:cy="24.440029"
         sodipodi:cx="-219.63287"
         id="path3153"
         style="fill:none;stroke:#ff0000;stroke-width:1.37601233;stroke-miterlimit:4;stroke-opacity:0.39215686;stroke-dasharray:none;stroke-dashoffset:0"
         sodipodi:type="arc" />
      <path
         sodipodi:type="arc"
         style="fill:none;stroke:#ff0000;stroke-width:1.37601233;stroke-miterlimit:4;stroke-opacity:0.39215686;stroke-dasharray:none;stroke-dashoffset:0"
         id="path3155"
         sodipodi:cx="-219.63287"
         sodipodi:cy="24.440029"
         sodipodi:rx="9.5492554"
         sodipodi:ry="11.018372"
         d="m -210.08362,24.440029 c 0,6.085279 -4.27535,11.018372 -9.54925,11.018372 -5.27391,0 -9.54926,-4.933093 -9.54926,-11.018372 0,-6.085278 4.27535,-11.018371 9.54926,-11.018371 5.2739,0 9.54925,4.933093 9.54925,11.018371 z"
         transform="matrix(0.77283513,0,0,0.66979044,102.99964,-26.21536)" />
      <path
         sodipodi:type="arc"
         style="fill:none;stroke:#ff0000;stroke-width:1.37601233;stroke-miterlimit:4;stroke-opacity:0.39215686;stroke-dasharray:none;stroke-dashoffset:0"
         id="path3159"
         sodipodi:cx="-219.63287"
         sodipodi:cy="24.440029"
         sodipodi:rx="9.5492554"
         sodipodi:ry="11.018372"
         d="m -210.08362,24.440029 c 0,6.085279 -4.27535,11.018372 -9.54925,11.018372 -5.27391,0 -9.54926,-4.933093 -9.54926,-11.018372 0,-6.085278 4.27535,-11.018371 9.54926,-11.018371 5.2739,0 9.54925,4.933093 9.54925,11.018371 z"
         transform="matrix(0.77283513,0,0,0.66979044,-8.2951108,-39.761545)" />
      <path
         transform="matrix(0.77283513,0,0,0.66979044,57.815117,-39.761545)"
         d="m -210.08362,24.440029 c 0,6.085279 -4.27535,11.018372 -9.54925,11.018372 -5.27391,0 -9.54926,-4.933093 -9.54926,-11.018372 0,-6.085278 4.27535,-11.018371 9.54926,-11.018371 5.2739,0 9.54925,4.933093 9.54925,11.018371 z"
         sodipodi:ry="11.018372"
         sodipodi:rx="9.5492554"
         sodipodi:cy="24.440029"
         sodipodi:cx="-219.63287"
         id="path3161"
         style="fill:none;stroke:#ff0000;stroke-width:1.37601233;stroke-miterlimit:4;stroke-opacity:0.39215686;stroke-dasharray:none;stroke-dashoffset:0"
         sodipodi:type="arc" />
    </g>
  </g>
</svg>
