<?xml version="1.0" encoding="UTF-8" standalone="no"?>
<svg
   xmlns:dc="http://purl.org/dc/elements/1.1/"
   xmlns:cc="http://creativecommons.org/ns#"
   xmlns:rdf="http://www.w3.org/1999/02/22-rdf-syntax-ns#"
   xmlns:svg="http://www.w3.org/2000/svg"
   xmlns="http://www.w3.org/2000/svg"
   xmlns:sodipodi="http://sodipodi.sourceforge.net/DTD/sodipodi-0.dtd"
   xmlns:inkscape="http://www.inkscape.org/namespaces/inkscape"
   version="1.1"
   width="1069.2"
   height="2149.2"
   viewBox="0 0 1069.2 2149.2"
   id="svg2"
   inkscape:version="0.48.5 r10040"
   sodipodi:docname="head.svg">
  <metadata
     id="metadata34">
    <rdf:RDF>
      <cc:Work
         rdf:about="">
        <dc:format>image/svg+xml</dc:format>
        <dc:type
           rdf:resource="http://purl.org/dc/dcmitype/StillImage" />
      </cc:Work>
    </rdf:RDF>
  </metadata>
  <defs
     id="defs32" />
  <sodipodi:namedview
     pagecolor="#ffffff"
     bordercolor="#666666"
     borderopacity="1"
     objecttolerance="10"
     gridtolerance="10"
     guidetolerance="10"
     inkscape:pageopacity="0"
     inkscape:pageshadow="2"
     inkscape:window-width="1732"
     inkscape:window-height="1131"
     id="namedview30"
     showgrid="false"
     showguides="true"
     inkscape:guide-bbox="true"
     inkscape:document-units="in"
     units="in"
     inkscape:zoom="0.19"
     inkscape:cx="-1013.1674"
     inkscape:cy="1119.7149"
     inkscape:window-x="685"
     inkscape:window-y="93"
     inkscape:window-maximized="0"
     inkscape:current-layer="svg2" />
  <!-- Front-->
  <!-- Back-->
  <!-- Left-->
  <!-- Right-->
  <!-- Top-->
  <g
     id="g4348"
     transform="translate(2.5641027,446.66674)">
    <g
       transform="translate(0,304.19999)"
       id="g3276">
      <g
         transform="translate(4.23171,0)"
         id="g3278">
        <path
           style="fill:none;stroke:#00ffff;stroke-width:0.99999994px;stroke-linecap:butt;stroke-linejoin:miter;stroke-opacity:1"
           d="m 109.26829,739.8129 0,-719.008"
           id="path3280"
           inkscape:connector-curvature="0" />
        <path
           style="fill:none;stroke:#00ffff;stroke-width:0.99999994px;stroke-linecap:butt;stroke-linejoin:miter;stroke-opacity:1"
           d="m 198.93495,739.8129 0,-719.008"
           id="path3282"
           inkscape:connector-curvature="0" />
        <path
           inkscape:connector-curvature="0"
           id="path3284"
           d="m 288.60163,739.8129 0,-719.008"
           style="fill:none;stroke:#00ffff;stroke-width:0.99999994px;stroke-linecap:butt;stroke-linejoin:miter;stroke-opacity:1" />
        <path
           style="fill:none;stroke:#00ffff;stroke-width:0.99999994px;stroke-linecap:butt;stroke-linejoin:miter;stroke-opacity:1"
           d="m 378.26829,739.8129 0,-719.008"
           id="path3286"
           inkscape:connector-curvature="0" />
        <path
           inkscape:connector-curvature="0"
           id="path3288"
           d="m 467.93495,739.8129 0,-719.008"
           style="fill:none;stroke:#00ffff;stroke-width:0.99999994px;stroke-linecap:butt;stroke-linejoin:miter;stroke-opacity:1" />
        <path
           style="fill:none;stroke:#00ffff;stroke-width:0.99999994px;stroke-linecap:butt;stroke-linejoin:miter;stroke-opacity:1"
           d="m 557.6016,739.8129 0,-719.008"
           id="path3290"
           inkscape:connector-curvature="0" />
        <path
           inkscape:connector-curvature="0"
           id="path3292"
           d="m 647.26829,739.8129 0,-719.008"
           style="fill:none;stroke:#00ffff;stroke-width:0.99999994px;stroke-linecap:butt;stroke-linejoin:miter;stroke-opacity:1" />
      </g>
      <g
         transform="matrix(0,-1,1,0,-2.04061,760.76829)"
         id="g3294">
        <path
           inkscape:connector-curvature="0"
           id="path3296"
           d="m 109.26829,739.8129 0,-719.008"
           style="fill:none;stroke:#00ffff;stroke-width:0.99999994px;stroke-linecap:butt;stroke-linejoin:miter;stroke-opacity:1" />
        <path
           inkscape:connector-curvature="0"
           id="path3298"
           d="m 198.93495,739.8129 0,-719.008"
           style="fill:none;stroke:#00ffff;stroke-width:0.99999994px;stroke-linecap:butt;stroke-linejoin:miter;stroke-opacity:1" />
        <path
           style="fill:none;stroke:#00ffff;stroke-width:0.99999994px;stroke-linecap:butt;stroke-linejoin:miter;stroke-opacity:1"
           d="m 288.60163,739.8129 0,-719.008"
           id="path3300"
           inkscape:connector-curvature="0" />
        <path
           inkscape:connector-curvature="0"
           id="path3302"
           d="m 378.26829,739.8129 0,-719.008"
           style="fill:none;stroke:#00ffff;stroke-width:0.99999994px;stroke-linecap:butt;stroke-linejoin:miter;stroke-opacity:1" />
        <path
           style="fill:none;stroke:#00ffff;stroke-width:0.99999994px;stroke-linecap:butt;stroke-linejoin:miter;stroke-opacity:1"
           d="m 467.93495,739.8129 0,-719.008"
           id="path3304"
           inkscape:connector-curvature="0" />
        <path
           inkscape:connector-curvature="0"
           id="path3306"
           d="m 557.6016,739.8129 0,-719.008"
           style="fill:none;stroke:#00ffff;stroke-width:0.99999994px;stroke-linecap:butt;stroke-linejoin:miter;stroke-opacity:1" />
        <path
           style="fill:none;stroke:#00ffff;stroke-width:0.99999994px;stroke-linecap:butt;stroke-linejoin:miter;stroke-opacity:1"
           d="m 647.26829,739.8129 0,-719.008"
           id="path3308"
           inkscape:connector-curvature="0" />
      </g>
    </g>
    <g
       id="g20"
       transform="translate(22.5,326.69999)">
      <polygon
         id="polygon22"
         points="576,709.38 576,720 432,720 432,709.38 288,709.38 288,720 144,720 144,709.38 10.62,709.38 10.62,576 0,576 0,432 10.62,432 10.62,288 0,288 0,144 10.62,144 10.62,10.62 144,10.62 144,0 288,0 288,10.62 432,10.62 432,0 576,0 576,10.62 709.38,10.62 709.38,144 720,144 720,288 709.38,288 709.38,432 720,432 720,576 709.38,576 709.38,709.38 "
         style="fill:none;stroke:#000000;stroke-width:0.89999998" />
    </g>
  </g>
  <!-- Bottom-->
  <g
     id="g4327"
     transform="translate(-723.07696,-289.23074)">
    <g
       id="g3310"
       transform="translate(724,304.19999)">
      <g
         id="g3312"
         transform="translate(4.23171,0)">
        <path
           inkscape:connector-curvature="0"
           id="path3314"
           d="m 109.26829,739.8129 0,-719.008"
           style="fill:none;stroke:#00ffff;stroke-width:0.99999994px;stroke-linecap:butt;stroke-linejoin:miter;stroke-opacity:1" />
        <path
           inkscape:connector-curvature="0"
           id="path3316"
           d="m 198.93495,739.8129 0,-719.008"
           style="fill:none;stroke:#00ffff;stroke-width:0.99999994px;stroke-linecap:butt;stroke-linejoin:miter;stroke-opacity:1" />
        <path
           style="fill:none;stroke:#00ffff;stroke-width:0.99999994px;stroke-linecap:butt;stroke-linejoin:miter;stroke-opacity:1"
           d="m 288.60163,739.8129 0,-719.008"
           id="path3318"
           inkscape:connector-curvature="0" />
        <path
           inkscape:connector-curvature="0"
           id="path3320"
           d="m 378.26829,739.8129 0,-719.008"
           style="fill:none;stroke:#00ffff;stroke-width:0.99999994px;stroke-linecap:butt;stroke-linejoin:miter;stroke-opacity:1" />
        <path
           style="fill:none;stroke:#00ffff;stroke-width:0.99999994px;stroke-linecap:butt;stroke-linejoin:miter;stroke-opacity:1"
           d="m 467.93495,739.8129 0,-719.008"
           id="path3322"
           inkscape:connector-curvature="0" />
        <path
           inkscape:connector-curvature="0"
           id="path3324"
           d="m 557.6016,739.8129 0,-719.008"
           style="fill:none;stroke:#00ffff;stroke-width:0.99999994px;stroke-linecap:butt;stroke-linejoin:miter;stroke-opacity:1" />
        <path
           style="fill:none;stroke:#00ffff;stroke-width:0.99999994px;stroke-linecap:butt;stroke-linejoin:miter;stroke-opacity:1"
           d="m 647.26829,739.8129 0,-719.008"
           id="path3326"
           inkscape:connector-curvature="0" />
      </g>
      <g
         id="g3328"
         transform="matrix(0,-1,1,0,-2.04061,760.76829)">
        <path
           style="fill:none;stroke:#00ffff;stroke-width:0.99999994px;stroke-linecap:butt;stroke-linejoin:miter;stroke-opacity:1"
           d="m 109.26829,739.8129 0,-719.008"
           id="path3330"
           inkscape:connector-curvature="0" />
        <path
           style="fill:none;stroke:#00ffff;stroke-width:0.99999994px;stroke-linecap:butt;stroke-linejoin:miter;stroke-opacity:1"
           d="m 198.93495,739.8129 0,-719.008"
           id="path3332"
           inkscape:connector-curvature="0" />
        <path
           inkscape:connector-curvature="0"
           id="path3334"
           d="m 288.60163,739.8129 0,-719.008"
           style="fill:none;stroke:#00ffff;stroke-width:0.99999994px;stroke-linecap:butt;stroke-linejoin:miter;stroke-opacity:1" />
        <path
           style="fill:none;stroke:#00ffff;stroke-width:0.99999994px;stroke-linecap:butt;stroke-linejoin:miter;stroke-opacity:1"
           d="m 378.26829,739.8129 0,-719.008"
           id="path3336"
           inkscape:connector-curvature="0" />
        <path
           inkscape:connector-curvature="0"
           id="path3338"
           d="m 467.93495,739.8129 0,-719.008"
           style="fill:none;stroke:#00ffff;stroke-width:0.99999994px;stroke-linecap:butt;stroke-linejoin:miter;stroke-opacity:1" />
        <path
           style="fill:none;stroke:#00ffff;stroke-width:0.99999994px;stroke-linecap:butt;stroke-linejoin:miter;stroke-opacity:1"
           d="m 557.6016,739.8129 0,-719.008"
           id="path3340"
           inkscape:connector-curvature="0" />
        <path
           inkscape:connector-curvature="0"
           id="path3342"
           d="m 647.26829,739.8129 0,-719.008"
           style="fill:none;stroke:#00ffff;stroke-width:0.99999994px;stroke-linecap:butt;stroke-linejoin:miter;stroke-opacity:1" />
      </g>
    </g>
    <polygon
       transform="translate(742.5,326.69999)"
       style="fill:none;stroke:#000000;stroke-width:0.89999998"
       points="432,709.38 288,709.38 288,720 144,720 144,709.38 10.62,709.38 10.62,576 0,576 0,432 10.62,432 10.62,288 0,288 0,144 10.62,144 10.62,10.62 144,10.62 144,0 288,0 288,10.62 432,10.62 432,0 576,0 576,10.62 709.38,10.62 709.38,144 720,144 720,288 709.38,288 709.38,432 720,432 720,576 709.38,576 709.38,709.38 576,709.38 576,720 432,720 "
       id="polygon26" />
    <circle
       transform="translate(742.5,326.69999)"
       cx="360"
       cy="360"
       r="11.25"
       style="fill:none;stroke:#ff0000;stroke-width:0.89999998"
       id="circle28"
       d="m 371.25,360 c 0,6.2132 -5.0368,11.25 -11.25,11.25 -6.2132,0 -11.25,-5.0368 -11.25,-11.25 0,-6.2132 5.0368,-11.25 11.25,-11.25 6.2132,0 11.25,5.0368 11.25,11.25 z"
       sodipodi:cx="360"
       sodipodi:cy="360"
       sodipodi:rx="11.25"
       sodipodi:ry="11.25" />
  </g>
  <g
     id="g3875"
     transform="translate(12.659817,423.32985)">
    <g
       id="g26"
       transform="translate(22.5,1102.5)">
      <polygon
         id="polygon28"
         points="180,0 180,10.62 252,10.62 252,0 324,0 324,10.62 396,10.62 396,0 468,0 468,10.62 540,10.62 540,0 630,0 630,10.62 709.38,10.62 709.38,72 720,72 720,144 709.38,144 709.38,216 720,216 720,288 709.38,288 709.38,349.38 630,349.38 630,360 540,360 540,349.38 468,349.38 468,360 396,360 396,349.38 324,349.38 324,360 252,360 252,349.38 180,349.38 180,360 90,360 90,349.38 10.62,349.38 10.62,288 0,288 0,216 10.62,216 10.62,144 0,144 0,72 10.62,72 10.62,10.62 90,10.62 90,0 "
         style="fill:none;stroke:#000000;stroke-width:0.89999998" />
    </g>
    <path
       transform="matrix(0.30095198,0,0,0.21590034,275.54318,1008.1298)"
       d="m 392.62681,1270.819 c 0,28.663 -16.66927,51.8989 -37.23185,51.8989 -20.56259,0 -37.23185,-23.2359 -37.23185,-51.8989 0,-28.663 16.66926,-51.899 37.23185,-51.899 20.56258,0 37.23185,23.236 37.23185,51.899 z"
       sodipodi:ry="51.898945"
       sodipodi:rx="37.231853"
       sodipodi:cy="1270.819"
       sodipodi:cx="355.39496"
       id="path3600"
       style="fill:none;stroke:#ff0000;stroke-width:3.88382745;stroke-miterlimit:4;stroke-opacity:0.39215686;stroke-dasharray:none;stroke-dashoffset:0"
       sodipodi:type="arc" />
  </g>
</svg>
