<?xml version="1.0" encoding="UTF-8" standalone="no"?>
<svg
   xmlns:dc="http://purl.org/dc/elements/1.1/"
   xmlns:cc="http://creativecommons.org/ns#"
   xmlns:rdf="http://www.w3.org/1999/02/22-rdf-syntax-ns#"
   xmlns:svg="http://www.w3.org/2000/svg"
   xmlns="http://www.w3.org/2000/svg"
   xmlns:sodipodi="http://sodipodi.sourceforge.net/DTD/sodipodi-0.dtd"
   xmlns:inkscape="http://www.inkscape.org/namespaces/inkscape"
   version="1.1"
   width="1069.2"
   height="2149.2"
   viewBox="0 0 1069.2 2149.2"
   id="svg2"
   inkscape:version="0.48.5 r10040"
   sodipodi:docname="creeper5.svg">
  <metadata
     id="metadata34">
    <rdf:RDF>
      <cc:Work
         rdf:about="">
        <dc:format>image/svg+xml</dc:format>
        <dc:type
           rdf:resource="http://purl.org/dc/dcmitype/StillImage" />
      </cc:Work>
    </rdf:RDF>
  </metadata>
  <defs
     id="defs32" />
  <sodipodi:namedview
     pagecolor="#ffffff"
     bordercolor="#666666"
     borderopacity="1"
     objecttolerance="10"
     gridtolerance="10"
     guidetolerance="10"
     inkscape:pageopacity="0"
     inkscape:pageshadow="2"
     inkscape:window-width="1732"
     inkscape:window-height="1131"
     id="namedview30"
     showgrid="false"
     showguides="true"
     inkscape:guide-bbox="true"
     inkscape:document-units="in"
     units="in"
     inkscape:zoom="0.26"
     inkscape:cx="355.93257"
     inkscape:cy="1151.4739"
     inkscape:window-x="500"
     inkscape:window-y="46"
     inkscape:window-maximized="0"
     inkscape:current-layer="svg2" />
  <!-- Front-->
  <!-- Back-->
  <!-- Left-->
  <!-- Right-->
  <!-- Top-->
  <!-- Bottom-->
  <g
     id="g3044">
    <g
       id="g3310"
       transform="translate(0.92304,14.96925)">
      <g
         id="g3312"
         transform="translate(4.23171,0)">
        <path
           inkscape:connector-curvature="0"
           id="path3314"
           d="m 109.26829,739.8129 0,-719.008"
           style="fill:none;stroke:#00ffff;stroke-width:0.99999994px;stroke-linecap:butt;stroke-linejoin:miter;stroke-opacity:1" />
        <path
           inkscape:connector-curvature="0"
           id="path3316"
           d="m 198.93495,739.8129 0,-719.008"
           style="fill:none;stroke:#00ffff;stroke-width:0.99999994px;stroke-linecap:butt;stroke-linejoin:miter;stroke-opacity:1" />
        <path
           style="fill:none;stroke:#00ffff;stroke-width:0.99999994px;stroke-linecap:butt;stroke-linejoin:miter;stroke-opacity:1"
           d="m 288.60163,739.8129 0,-719.008"
           id="path3318"
           inkscape:connector-curvature="0" />
        <path
           inkscape:connector-curvature="0"
           id="path3320"
           d="m 378.26829,739.8129 0,-719.008"
           style="fill:none;stroke:#00ffff;stroke-width:0.99999994px;stroke-linecap:butt;stroke-linejoin:miter;stroke-opacity:1" />
        <path
           style="fill:none;stroke:#00ffff;stroke-width:0.99999994px;stroke-linecap:butt;stroke-linejoin:miter;stroke-opacity:1"
           d="m 467.93495,739.8129 0,-719.008"
           id="path3322"
           inkscape:connector-curvature="0" />
        <path
           inkscape:connector-curvature="0"
           id="path3324"
           d="m 557.6016,739.8129 0,-719.008"
           style="fill:none;stroke:#00ffff;stroke-width:0.99999994px;stroke-linecap:butt;stroke-linejoin:miter;stroke-opacity:1" />
        <path
           style="fill:none;stroke:#00ffff;stroke-width:0.99999994px;stroke-linecap:butt;stroke-linejoin:miter;stroke-opacity:1"
           d="m 647.26829,739.8129 0,-719.008"
           id="path3326"
           inkscape:connector-curvature="0" />
      </g>
      <g
         id="g3328"
         transform="matrix(0,-1,1,0,-2.04061,760.76829)">
        <path
           style="fill:none;stroke:#00ffff;stroke-width:0.99999994px;stroke-linecap:butt;stroke-linejoin:miter;stroke-opacity:1"
           d="m 109.26829,739.8129 0,-719.008"
           id="path3330"
           inkscape:connector-curvature="0" />
        <path
           style="fill:none;stroke:#00ffff;stroke-width:0.99999994px;stroke-linecap:butt;stroke-linejoin:miter;stroke-opacity:1"
           d="m 198.93495,739.8129 0,-719.008"
           id="path3332"
           inkscape:connector-curvature="0" />
        <path
           inkscape:connector-curvature="0"
           id="path3334"
           d="m 288.60163,739.8129 0,-719.008"
           style="fill:none;stroke:#00ffff;stroke-width:0.99999994px;stroke-linecap:butt;stroke-linejoin:miter;stroke-opacity:1" />
        <path
           style="fill:none;stroke:#00ffff;stroke-width:0.99999994px;stroke-linecap:butt;stroke-linejoin:miter;stroke-opacity:1"
           d="m 378.26829,739.8129 0,-719.008"
           id="path3336"
           inkscape:connector-curvature="0" />
        <path
           inkscape:connector-curvature="0"
           id="path3338"
           d="m 467.93495,739.8129 0,-719.008"
           style="fill:none;stroke:#00ffff;stroke-width:0.99999994px;stroke-linecap:butt;stroke-linejoin:miter;stroke-opacity:1" />
        <path
           style="fill:none;stroke:#00ffff;stroke-width:0.99999994px;stroke-linecap:butt;stroke-linejoin:miter;stroke-opacity:1"
           d="m 557.6016,739.8129 0,-719.008"
           id="path3340"
           inkscape:connector-curvature="0" />
        <path
           inkscape:connector-curvature="0"
           id="path3342"
           d="m 647.26829,739.8129 0,-719.008"
           style="fill:none;stroke:#00ffff;stroke-width:0.99999994px;stroke-linecap:butt;stroke-linejoin:miter;stroke-opacity:1" />
      </g>
    </g>
    <polygon
       transform="translate(19.42304,37.46925)"
       style="fill:none;stroke:#000000;stroke-width:0.89999998"
       points="288,720 144,720 144,709.38 10.62,709.38 10.62,576 0,576 0,432 10.62,432 10.62,288 0,288 0,144 10.62,144 10.62,10.62 144,10.62 144,0 288,0 288,10.62 432,10.62 432,0 576,0 576,10.62 709.38,10.62 709.38,144 720,144 720,288 709.38,288 709.38,432 720,432 720,576 709.38,576 709.38,709.38 576,709.38 576,720 432,720 432,709.38 288,709.38 "
       id="polygon26" />
  </g>
  <path
     style="fill:none;stroke:#000000;stroke-width:0.89999992"
     d="m 21.683529,784.92207 0,72 -10.59375,0 0,72 10.59375,0 0,71.99993 -10.59375,0 0,72 10.59375,0 0,72 47.3125,0 c -1.7658,-12.5444 0.0981,-28.1604 0.0981,-41.1919 0,-98.3403 77.369851,-229.58348 253.974921,-228.33708 l 48.77068,-1.40845 0,-77.75 -0.78125,0 0,-11.28125 -10.59375,0 0,-0.0312 -61.375,0 0,10.625 -72,0 0,-10.625 -72,0 0,10.625 -72.000001,0 0,-10.625 z"
     id="path3030"
     inkscape:connector-curvature="0"
     sodipodi:nodetypes="cccccccccccscccccccccccccccc" />
  <path
     sodipodi:nodetypes="cccccccccccscccccccccccccccc"
     inkscape:connector-curvature="0"
     id="path3006"
     d="m 492.26644,1133.2948 -72,0 0,10.5937 -72,0 0,-10.5937 -71.99992,0 0,10.5937 -71.99997,0 0,-10.5937 -72,0 0,-47.3125 c 12.5444,1.7658 28.1604,-0.098 41.1919,-0.098 98.3403,0 229.58339,-77.3699 228.33699,-253.975 l 1.4085,-48.7706 77.75,0 0,0.7812 11.2812,0 0,10.5938 0.031,0 0,61.375 -10.625,0 0,71.99996 10.625,0 0,72 -10.625,0 0,72.00004 10.625,0 z"
     style="fill:none;stroke:#000000;stroke-width:0.89999992" />
  <path
     sodipodi:nodetypes="cccccccccccscccccccccccccccc"
     inkscape:connector-curvature="0"
     id="path3008"
     d="m 539.50587,782.91776 0,72 -10.59374,0 0,72 10.59374,0 0,71.9999 -10.59374,0 0,72.00004 10.59374,0 0,72 47.3125,0 c -1.7658,-12.5444 0.0981,-28.1604 0.0981,-41.1919 0,-98.3403 77.36986,-229.58344 253.97493,-228.33704 l 48.77068,-1.4085 0,-77.75 -0.78125,0 0,-11.2812 -10.59375,0 0,-0.031 -61.375,0 0,10.625 -72,0 0,-10.625 -72,0 0,10.625 -72.00001,0 0,-10.625 z"
     style="fill:none;stroke:#000000;stroke-width:0.89999992" />
  <path
     style="fill:none;stroke:#000000;stroke-width:0.89999992"
     d="m 972.94698,1148.1722 0,-72 10.59375,0 0,-72 -10.59375,0 0,-71.99988 10.59375,0 0,-71.9999 -10.59375,0 0,-72 -47.3125,0 c 1.7658,12.5444 -0.0981,28.1604 -0.0981,41.1919 0,98.3403 -77.36985,229.58338 -253.97492,228.33698 l -48.77068,1.4084 0,77.75 0.78125,0 0,11.2813 10.59375,0 0,0.031 61.375,0 0,-10.625 72,0 0,10.625 72,0 0,-10.625 72,0 0,10.625 z"
     id="path3010"
     inkscape:connector-curvature="0"
     sodipodi:nodetypes="cccccccccccscccccccccccccccc" />
  <g
     transform="translate(13.355033,1162.9491)"
     id="layer1"
     inkscape:label="Layer 1">
    <g
       id="g3068"
       transform="translate(39.533063,24.295806)">
      <polygon
         id="polygon3070"
         points="252,10.62 252,0 288,0 288,10.62 324,10.62 324,0 360,0 360,10.62 396,10.62 396,0 432,0 432,10.62 486,10.62 486,0 540,0 540,36 529.38,36 529.38,72 540,72 540,108 529.38,108 529.38,144 540,144 540,180 486,180 486,169.38 432,169.38 432,180 396,180 396,169.38 360,169.38 360,180 324,180 324,169.38 288,169.38 288,180 252,180 252,169.38 216,169.38 216,180 180,180 180,169.38 144,169.38 144,180 108,180 108,169.38 54,169.38 54,180 0,180 0,144 10.62,144 10.62,108 0,108 0,72 10.62,72 10.62,36 0,36 0,0 54,0 54,10.62 108,10.62 108,0 144,0 144,10.62 180,10.62 180,0 216,0 216,10.62 "
         style="fill:none;stroke:#000000;stroke-width:0.89999998" />
    </g>
    <g
       id="g3072"
       transform="translate(34.490959,579.62172)">
      <polygon
         id="polygon3074"
         points="252,0 288,0 288,10.62 324,10.62 324,0 360,0 360,10.62 396,10.62 396,0 432,0 432,10.62 486,10.62 486,0 540,0 540,36 529.38,36 529.38,72 540,72 540,108 529.38,108 529.38,144 540,144 540,180 486,180 486,169.38 432,169.38 432,180 396,180 396,169.38 360,169.38 360,180 324,180 324,169.38 288,169.38 288,180 252,180 252,169.38 216,169.38 216,180 180,180 180,169.38 144,169.38 144,180 108,180 108,169.38 54,169.38 54,180 0,180 0,144 10.62,144 10.62,108 0,108 0,72 10.62,72 10.62,36 0,36 0,0 54,0 54,10.62 108,10.62 108,0 144,0 144,10.62 180,10.62 180,0 216,0 216,10.62 252,10.62 "
         style="fill:none;stroke:#000000;stroke-width:0.89999998" />
    </g>
    <g
       id="g3076"
       transform="translate(597.99686,582.55995)">
      <polygon
         id="polygon3078"
         points="234,0 270,0 270,10.62 315,10.62 315,0 349.38,0 349.38,36 360,36 360,72 349.38,72 349.38,108 360,108 360,144 349.38,144 349.38,180 315,180 315,169.38 270,169.38 270,180 234,180 234,169.38 198,169.38 198,180 162,180 162,169.38 126,169.38 126,180 90,180 90,169.38 45,169.38 45,180 10.62,180 10.62,144 0,144 0,108 10.62,108 10.62,72 0,72 0,36 10.62,36 10.62,0 45,0 45,10.62 90,10.62 90,0 126,0 126,10.62 162,10.62 162,0 198,0 198,10.62 234,10.62 "
         style="fill:none;stroke:#000000;stroke-width:0.89999998" />
    </g>
    <g
       id="g3080"
       transform="translate(32.387131,780.18935)">
      <polygon
         id="polygon3082"
         points="234,0 270,0 270,10.62 315,10.62 315,0 349.38,0 349.38,36 360,36 360,72 349.38,72 349.38,108 360,108 360,144 349.38,144 349.38,180 315,180 315,169.38 270,169.38 270,180 234,180 234,169.38 198,169.38 198,180 162,180 162,169.38 126,169.38 126,180 90,180 90,169.38 45,169.38 45,180 10.62,180 10.62,144 0,144 0,108 10.62,108 10.62,72 0,72 0,36 10.62,36 10.62,0 45,0 45,10.62 90,10.62 90,0 126,0 126,10.62 162,10.62 162,0 198,0 198,10.62 234,10.62 "
         style="fill:none;stroke:#000000;stroke-width:0.89999998" />
    </g>
    <g
       id="g3084"
       transform="translate(39.533063,204.29581)">
      <polygon
         id="polygon3086"
         points="252,0 252,10.62 288,10.62 288,0 324,0 324,10.62 360,10.62 360,0 396,0 396,10.62 432,10.62 432,0 486,0 486,10.62 529.38,10.62 529.38,45 540,45 540,90 529.38,90 529.38,126 540,126 540,162 529.38,162 529.38,198 540,198 540,234 529.38,234 529.38,270 540,270 540,315 529.38,315 529.38,349.38 486,349.38 486,360 432,360 432,349.38 396,349.38 396,360 360,360 360,349.38 324,349.38 324,360 288,360 288,349.38 252,349.38 252,360 216,360 216,349.38 180,349.38 180,360 144,360 144,349.38 108,349.38 108,360 54,360 54,349.38 10.62,349.38 10.62,315 0,315 0,270 10.62,270 10.62,234 0,234 0,198 10.62,198 10.62,162 0,162 0,126 10.62,126 10.62,90 0,90 0,45 10.62,45 10.62,10.62 54,10.62 54,0 108,0 108,10.62 144,10.62 144,0 180,0 180,10.62 216,10.62 216,0 "
         style="fill:none;stroke:#000000;stroke-width:0.89999998" />
    </g>
    <g
       id="g3088"
       transform="matrix(0,-1,1,0,590.20079,551.45768)">
      <polygon
         id="polygon3090"
         points="288,10.62 288,0 324,0 324,10.62 360,10.62 360,0 396,0 396,10.62 432,10.62 432,0 486,0 486,10.62 529.38,10.62 529.38,45 540,45 540,90 529.38,90 529.38,126 540,126 540,162 529.38,162 529.38,198 540,198 540,234 529.38,234 529.38,270 540,270 540,315 529.38,315 529.38,349.38 486,349.38 486,360 432,360 432,349.38 396,349.38 396,360 360,360 360,349.38 324,349.38 324,360 288,360 288,349.38 252,349.38 252,360 216,360 216,349.38 180,349.38 180,360 144,360 144,349.38 108,349.38 108,360 54,360 54,349.38 10.62,349.38 10.62,315 0,315 0,270 10.62,270 10.62,234 0,234 0,198 10.62,198 10.62,162 0,162 0,126 10.62,126 10.62,90 0,90 0,45 10.62,45 10.62,10.62 54,10.62 54,0 108,0 108,10.62 144,10.62 144,0 180,0 180,10.62 216,10.62 216,0 252,0 252,10.62 "
         style="fill:none;stroke:#000000;stroke-width:0.89999998" />
    </g>
    <g
       transform="translate(2.1539175,0)"
       id="g3128">
      <path
         sodipodi:type="arc"
         style="fill:none;stroke:#ff0000;stroke-width:1.50539613"
         id="path3124"
         sodipodi:cx="193.92334"
         sodipodi:cy="364.54044"
         sodipodi:rx="61.702881"
         sodipodi:ry="58.764648"
         d="m 255.62622,364.54044 c 0,32.45481 -27.62532,58.76464 -61.70288,58.76464 -34.07756,0 -61.70288,-26.30983 -61.70288,-58.76464 0,-32.45482 27.62532,-58.76465 61.70288,-58.76465 34.07756,0 61.70288,26.30983 61.70288,58.76465 z"
         transform="matrix(0.64826795,0,0,0.68068135,59.728219,203.02151)" />
      <path
         transform="matrix(0.64826795,0,0,0.68068135,303.6015,203.02151)"
         d="m 255.62622,364.54044 c 0,32.45481 -27.62532,58.76464 -61.70288,58.76464 -34.07756,0 -61.70288,-26.30983 -61.70288,-58.76464 0,-32.45482 27.62532,-58.76465 61.70288,-58.76465 34.07756,0 61.70288,26.30983 61.70288,58.76465 z"
         sodipodi:ry="58.764648"
         sodipodi:rx="61.702881"
         sodipodi:cy="364.54044"
         sodipodi:cx="193.92334"
         id="path3126"
         style="fill:none;stroke:#ff0000;stroke-width:1.50539613"
         sodipodi:type="arc" />
    </g>
    <path
       transform="matrix(0.32737531,0,0,0.34374408,439.26918,-12.81558)"
       d="m 255.62622,364.54044 c 0,32.45481 -27.62532,58.76464 -61.70288,58.76464 -34.07756,0 -61.70288,-26.30983 -61.70288,-58.76464 0,-32.45482 27.62532,-58.76465 61.70288,-58.76465 34.07756,0 61.70288,26.30983 61.70288,58.76465 z"
       sodipodi:ry="58.764648"
       sodipodi:rx="61.702881"
       sodipodi:cy="364.54044"
       sodipodi:cx="193.92334"
       id="path3136"
       style="fill:none;stroke:#ff0000;stroke-width:2.98098254"
       sodipodi:type="arc" />
    <g
       transform="translate(-1.9072082e-6,0)"
       id="g3146">
      <path
         transform="matrix(0.17422201,0,0,0.18293311,124.56071,233.94605)"
         d="m 255.62622,364.54044 c 0,32.45481 -27.62532,58.76464 -61.70288,58.76464 -34.07756,0 -61.70288,-26.30983 -61.70288,-58.76464 0,-32.45482 27.62532,-58.76465 61.70288,-58.76465 34.07756,0 61.70288,26.30983 61.70288,58.76465 z"
         sodipodi:ry="58.764648"
         sodipodi:rx="61.702881"
         sodipodi:cy="364.54044"
         sodipodi:cx="193.92334"
         id="path3140"
         style="fill:none;stroke:#ff0000;stroke-width:5.60147429"
         sodipodi:type="arc" />
      <path
         sodipodi:type="arc"
         style="fill:none;stroke:#ff0000;stroke-width:5.16874218"
         id="path3142"
         sodipodi:cx="193.92334"
         sodipodi:cy="364.54044"
         sodipodi:rx="61.702881"
         sodipodi:ry="58.764648"
         d="m 255.62622,364.54044 c 0,32.45481 -27.62532,58.76464 -61.70288,58.76464 -34.07756,0 -61.70288,-26.30983 -61.70288,-58.76464 0,-32.45482 27.62532,-58.76465 61.70288,-58.76465 34.07756,0 61.70288,26.30983 61.70288,58.76465 z"
         transform="matrix(0.18880804,0,0,0.19824844,423.20542,228.36299)" />
      <path
         transform="matrix(0.25444517,0,0,0.26716743,252.69237,203.23923)"
         d="m 255.62622,364.54044 c 0,32.45481 -27.62532,58.76464 -61.70288,58.76464 -34.07756,0 -61.70288,-26.30983 -61.70288,-58.76464 0,-32.45482 27.62532,-58.76465 61.70288,-58.76465 34.07756,0 61.70288,26.30983 61.70288,58.76465 z"
         sodipodi:ry="58.764648"
         sodipodi:rx="61.702881"
         sodipodi:cy="364.54044"
         sodipodi:cx="193.92334"
         id="path3144"
         style="fill:none;stroke:#ff0000;stroke-width:3.83540416"
         sodipodi:type="arc" />
    </g>
    <g
       transform="translate(455.27342,130.91456)"
       id="g3171">
      <path
         sodipodi:type="arc"
         style="fill:none;stroke:#ff0000;stroke-width:1.37601233;stroke-miterlimit:4;stroke-opacity:0.39215686;stroke-dasharray:none;stroke-dashoffset:0"
         id="path3153"
         sodipodi:cx="-219.63287"
         sodipodi:cy="24.440029"
         sodipodi:rx="9.5492554"
         sodipodi:ry="11.018372"
         d="m -210.08362,24.440029 c 0,6.085279 -4.27535,11.018372 -9.54925,11.018372 -5.27391,0 -9.54926,-4.933093 -9.54926,-11.018372 0,-6.085278 4.27535,-11.018371 9.54926,-11.018371 5.2739,0 9.54925,4.933093 9.54925,11.018371 z"
         transform="matrix(0.77283513,0,0,0.66979044,-55.000361,-26.21536)" />
      <path
         transform="matrix(0.77283513,0,0,0.66979044,102.99964,-26.21536)"
         d="m -210.08362,24.440029 c 0,6.085279 -4.27535,11.018372 -9.54925,11.018372 -5.27391,0 -9.54926,-4.933093 -9.54926,-11.018372 0,-6.085278 4.27535,-11.018371 9.54926,-11.018371 5.2739,0 9.54925,4.933093 9.54925,11.018371 z"
         sodipodi:ry="11.018372"
         sodipodi:rx="9.5492554"
         sodipodi:cy="24.440029"
         sodipodi:cx="-219.63287"
         id="path3155"
         style="fill:none;stroke:#ff0000;stroke-width:1.37601233;stroke-miterlimit:4;stroke-opacity:0.39215686;stroke-dasharray:none;stroke-dashoffset:0"
         sodipodi:type="arc" />
      <path
         transform="matrix(0.77283513,0,0,0.66979044,-8.2951108,-39.761545)"
         d="m -210.08362,24.440029 c 0,6.085279 -4.27535,11.018372 -9.54925,11.018372 -5.27391,0 -9.54926,-4.933093 -9.54926,-11.018372 0,-6.085278 4.27535,-11.018371 9.54926,-11.018371 5.2739,0 9.54925,4.933093 9.54925,11.018371 z"
         sodipodi:ry="11.018372"
         sodipodi:rx="9.5492554"
         sodipodi:cy="24.440029"
         sodipodi:cx="-219.63287"
         id="path3159"
         style="fill:none;stroke:#ff0000;stroke-width:1.37601233;stroke-miterlimit:4;stroke-opacity:0.39215686;stroke-dasharray:none;stroke-dashoffset:0"
         sodipodi:type="arc" />
      <path
         sodipodi:type="arc"
         style="fill:none;stroke:#ff0000;stroke-width:1.37601233;stroke-miterlimit:4;stroke-opacity:0.39215686;stroke-dasharray:none;stroke-dashoffset:0"
         id="path3161"
         sodipodi:cx="-219.63287"
         sodipodi:cy="24.440029"
         sodipodi:rx="9.5492554"
         sodipodi:ry="11.018372"
         d="m -210.08362,24.440029 c 0,6.085279 -4.27535,11.018372 -9.54925,11.018372 -5.27391,0 -9.54926,-4.933093 -9.54926,-11.018372 0,-6.085278 4.27535,-11.018371 9.54926,-11.018371 5.2739,0 9.54925,4.933093 9.54925,11.018371 z"
         transform="matrix(0.77283513,0,0,0.66979044,57.815117,-39.761545)" />
    </g>
  </g>
</svg>
