<?xml version="1.0" encoding="UTF-8" standalone="no"?>
<svg
   xmlns:dc="http://purl.org/dc/elements/1.1/"
   xmlns:cc="http://creativecommons.org/ns#"
   xmlns:rdf="http://www.w3.org/1999/02/22-rdf-syntax-ns#"
   xmlns:svg="http://www.w3.org/2000/svg"
   xmlns="http://www.w3.org/2000/svg"
   xmlns:sodipodi="http://sodipodi.sourceforge.net/DTD/sodipodi-0.dtd"
   xmlns:inkscape="http://www.inkscape.org/namespaces/inkscape"
   version="1.1"
   width="1069.2"
   height="2149.2"
   viewBox="0 0 1069.2 2149.2"
   id="svg2"
   inkscape:version="0.48.5 r10040"
   sodipodi:docname="creeper2.svg">
  <metadata
     id="metadata38">
    <rdf:RDF>
      <cc:Work
         rdf:about="">
        <dc:format>image/svg+xml</dc:format>
        <dc:type
           rdf:resource="http://purl.org/dc/dcmitype/StillImage" />
      </cc:Work>
    </rdf:RDF>
  </metadata>
  <defs
     id="defs36" />
  <sodipodi:namedview
     pagecolor="#ffffff"
     bordercolor="#666666"
     borderopacity="1"
     objecttolerance="10"
     gridtolerance="10"
     guidetolerance="10"
     inkscape:pageopacity="0"
     inkscape:pageshadow="2"
     inkscape:window-width="1900"
     inkscape:window-height="1246"
     id="namedview34"
     showgrid="false"
     inkscape:zoom="0.51"
     inkscape:cx="355.91127"
     inkscape:cy="1952.3756"
     inkscape:window-x="551"
     inkscape:window-y="21"
     inkscape:window-maximized="0"
     inkscape:current-layer="svg2"
     units="in" />
  <!-- Front-->
  <!-- Back-->
  <!-- Left-->
  <!-- Right-->
  <!-- Top-->
  <!-- Bottom-->
  <path
     style="fill:none;stroke:#000000;stroke-width:0.89999992"
     d="M 20.78125 14.96875 L 20.78125 122.96875 L 31.40625 122.96875 L 31.40625 230.96875 L 20.78125 230.96875 L 20.78125 302.96875 L 31.40625 302.96875 L 31.40625 374.96875 L 20.78125 374.96875 L 20.78125 446.96875 L 31.40625 446.96875 L 31.40625 518.96875 L 20.78125 518.96875 L 20.78125 590.96875 L 31.40625 590.96875 L 31.40625 662.96875 L 20.78125 662.96875 L 20.78125 734.96875 L 31.40625 734.96875 L 31.40625 806.96875 L 20.78125 806.96875 L 20.78125 878.96875 L 31.40625 878.96875 L 31.40625 986.96875 L 20.78125 986.96875 L 20.78125 1094.9688 L 110.78125 1094.9688 L 110.78125 1094.9375 L 200.78125 1094.9375 L 200.78125 1094.9688 L 272.78125 1094.9688 L 272.78125 1094.9375 L 344.78125 1094.9375 L 344.78125 1094.9688 L 416.78125 1094.9688 L 416.78125 1094.9375 L 488.78125 1094.9375 L 488.78125 1094.9688 L 560.78125 1094.9688 L 560.78125 1094.9375 L 650.78125 1094.9375 L 650.78125 1094.9688 L 740.78125 1094.9688 L 740.78125 986.96875 L 730.15625 986.96875 L 730.15625 878.96875 L 740.78125 878.96875 L 740.78125 806.96875 L 730.15625 806.96875 L 730.15625 734.96875 L 740.78125 734.96875 L 740.78125 662.96875 L 730.15625 662.96875 L 730.15625 590.96875 L 740.78125 590.96875 L 740.78125 518.96875 L 730.15625 518.96875 L 730.15625 446.96875 L 740.78125 446.96875 L 740.78125 374.96875 L 730.15625 374.96875 L 730.15625 302.96875 L 740.78125 302.96875 L 740.78125 230.96875 L 730.15625 230.96875 L 730.15625 122.96875 L 740.78125 122.96875 L 740.78125 14.96875 L 650.78125 14.96875 L 650.78125 25.59375 L 560.78125 25.59375 L 560.78125 14.96875 L 488.78125 14.96875 L 488.78125 25.59375 L 416.78125 25.59375 L 416.78125 14.96875 L 344.78125 14.96875 L 344.78125 25.59375 L 272.78125 25.59375 L 272.78125 14.96875 L 200.78125 14.96875 L 200.78125 25.59375 L 110.78125 25.59375 L 110.78125 14.96875 L 20.78125 14.96875 z "
     transform="translate(0,-2.466067e-5)"
     id="polygon10" />
  <g
     id="g4941"
     transform="translate(2.3448296,2.9655167)">
    <g
       transform="translate(3.0606222,-8.6044228)"
       id="g3059">
      <path
         style="fill:none;stroke:#00ffff;stroke-width:0.99999994px;stroke-linecap:butt;stroke-linejoin:miter;stroke-opacity:1"
         d="m 109.26829,739.8129 0,-719.008"
         id="path3035"
         inkscape:connector-curvature="0" />
      <path
         style="fill:none;stroke:#00ffff;stroke-width:0.99999994px;stroke-linecap:butt;stroke-linejoin:miter;stroke-opacity:1"
         d="m 198.93495,739.8129 0,-719.008"
         id="path3039"
         inkscape:connector-curvature="0" />
      <path
         inkscape:connector-curvature="0"
         id="path3041"
         d="m 288.60163,739.8129 0,-719.008"
         style="fill:none;stroke:#00ffff;stroke-width:0.99999994px;stroke-linecap:butt;stroke-linejoin:miter;stroke-opacity:1" />
      <path
         style="fill:none;stroke:#00ffff;stroke-width:0.99999994px;stroke-linecap:butt;stroke-linejoin:miter;stroke-opacity:1"
         d="m 378.26829,739.8129 0,-719.008"
         id="path3045"
         inkscape:connector-curvature="0" />
      <path
         inkscape:connector-curvature="0"
         id="path3049"
         d="m 467.93495,739.8129 0,-719.008"
         style="fill:none;stroke:#00ffff;stroke-width:0.99999994px;stroke-linecap:butt;stroke-linejoin:miter;stroke-opacity:1" />
      <path
         style="fill:none;stroke:#00ffff;stroke-width:0.99999994px;stroke-linecap:butt;stroke-linejoin:miter;stroke-opacity:1"
         d="m 557.6016,739.8129 0,-719.008"
         id="path3053"
         inkscape:connector-curvature="0" />
      <path
         inkscape:connector-curvature="0"
         id="path3057"
         d="m 647.26829,739.8129 0,-719.008"
         style="fill:none;stroke:#00ffff;stroke-width:0.99999994px;stroke-linecap:butt;stroke-linejoin:miter;stroke-opacity:1" />
    </g>
    <g
       transform="matrix(0,-1,1,0,-3.2116978,752.16387)"
       id="g3068">
      <path
         inkscape:connector-curvature="0"
         id="path3070"
         d="m 109.26829,739.8129 0,-719.008"
         style="fill:none;stroke:#00ffff;stroke-width:0.99999994px;stroke-linecap:butt;stroke-linejoin:miter;stroke-opacity:1" />
      <path
         inkscape:connector-curvature="0"
         id="path3072"
         d="m 198.93495,739.8129 0,-719.008"
         style="fill:none;stroke:#00ffff;stroke-width:0.99999994px;stroke-linecap:butt;stroke-linejoin:miter;stroke-opacity:1" />
      <path
         style="fill:none;stroke:#00ffff;stroke-width:0.99999994px;stroke-linecap:butt;stroke-linejoin:miter;stroke-opacity:1"
         d="m 288.60163,739.8129 0,-719.008"
         id="path3074"
         inkscape:connector-curvature="0" />
      <path
         inkscape:connector-curvature="0"
         id="path3076"
         d="m 378.26829,739.8129 0,-719.008"
         style="fill:none;stroke:#00ffff;stroke-width:0.99999994px;stroke-linecap:butt;stroke-linejoin:miter;stroke-opacity:1" />
      <path
         style="fill:none;stroke:#00ffff;stroke-width:0.99999994px;stroke-linecap:butt;stroke-linejoin:miter;stroke-opacity:1"
         d="m 467.93495,739.8129 0,-719.008"
         id="path3078"
         inkscape:connector-curvature="0" />
      <path
         inkscape:connector-curvature="0"
         id="path3080"
         d="m 557.6016,739.8129 0,-719.008"
         style="fill:none;stroke:#00ffff;stroke-width:0.99999994px;stroke-linecap:butt;stroke-linejoin:miter;stroke-opacity:1" />
      <path
         style="fill:none;stroke:#00ffff;stroke-width:0.99999994px;stroke-linecap:butt;stroke-linejoin:miter;stroke-opacity:1"
         d="m 647.26829,739.8129 0,-719.008"
         id="path3082"
         inkscape:connector-curvature="0" />
    </g>
    <path
       style="fill:none;stroke:#00ffff;stroke-width:0.99999994px;stroke-linecap:butt;stroke-linejoin:miter;stroke-opacity:1"
       d="m 112.32891,1095.9684 0,-452.92878"
       id="path3547"
       inkscape:connector-curvature="0" />
    <path
       style="fill:none;stroke:#00ffff;stroke-width:0.99999994px;stroke-linecap:butt;stroke-linejoin:miter;stroke-opacity:1"
       d="m 201.99557,1095.9684 0,-452.92878"
       id="path3549"
       inkscape:connector-curvature="0" />
    <path
       inkscape:connector-curvature="0"
       id="path3551"
       d="m 291.66225,1095.9684 0,-452.92878"
       style="fill:none;stroke:#00ffff;stroke-width:0.99999994px;stroke-linecap:butt;stroke-linejoin:miter;stroke-opacity:1" />
    <path
       style="fill:none;stroke:#00ffff;stroke-width:0.99999994px;stroke-linecap:butt;stroke-linejoin:miter;stroke-opacity:1"
       d="m 381.32891,1095.9684 0,-452.92878"
       id="path3553"
       inkscape:connector-curvature="0" />
    <path
       inkscape:connector-curvature="0"
       id="path3555"
       d="m 470.99557,1095.9684 0,-452.92878"
       style="fill:none;stroke:#00ffff;stroke-width:0.99999994px;stroke-linecap:butt;stroke-linejoin:miter;stroke-opacity:1" />
    <path
       style="fill:none;stroke:#00ffff;stroke-width:0.99999994px;stroke-linecap:butt;stroke-linejoin:miter;stroke-opacity:1"
       d="m 560.66222,1095.9684 0,-452.92878"
       id="path3557"
       inkscape:connector-curvature="0" />
    <path
       inkscape:connector-curvature="0"
       id="path3559"
       d="m 650.32891,1095.9684 0,-452.92878"
       style="fill:none;stroke:#00ffff;stroke-width:0.99999994px;stroke-linecap:butt;stroke-linejoin:miter;stroke-opacity:1" />
    <path
       inkscape:connector-curvature="0"
       id="path3569"
       d="m 736.6012,1004.7347 -719.007998,0"
       style="fill:none;stroke:#00ffff;stroke-width:0.99999994px;stroke-linecap:butt;stroke-linejoin:miter;stroke-opacity:1" />
    <path
       style="fill:none;stroke:#00ffff;stroke-width:0.99999994px;stroke-linecap:butt;stroke-linejoin:miter;stroke-opacity:1"
       d="m 736.6012,915.06801 -719.007998,0"
       id="path3571"
       inkscape:connector-curvature="0" />
    <path
       inkscape:connector-curvature="0"
       id="path3573"
       d="m 736.6012,825.40136 -719.007998,0"
       style="fill:none;stroke:#00ffff;stroke-width:0.99999994px;stroke-linecap:butt;stroke-linejoin:miter;stroke-opacity:1" />
    <path
       style="fill:none;stroke:#00ffff;stroke-width:0.99999994px;stroke-linecap:butt;stroke-linejoin:miter;stroke-opacity:1"
       d="m 736.6012,735.73467 -719.007998,0"
       id="path3575"
       inkscape:connector-curvature="0" />
  </g>
  <g
     id="g3725"
     transform="translate(-285.41668,-368.75002)">
    <g
       id="g8"
       transform="translate(316.25186,1483.9187)">
      <polygon
         id="polygon10-4"
         points="709.38,288 720,288 720,432 709.38,432 709.38,576 720,576 720,720 576,720 576,709.38 432,709.38 432,720 288,720 288,709.38 144,709.38 144,720 0,720 0,576 10.62,576 10.62,432 0,432 0,288 10.62,288 10.62,144 0,144 0,0 144,0 144,10.62 288,10.62 288,0 432,0 432,10.62 576,10.62 576,0 720,0 720,144 709.38,144 "
         style="fill:none;stroke:#000000;stroke-width:0.89999998" />
    </g>
    <g
       transform="translate(297.75186,1461.4187)"
       id="g3102">
      <g
         transform="translate(4.23171,0)"
         id="g3104">
        <path
           style="fill:none;stroke:#00ffff;stroke-width:0.99999994px;stroke-linecap:butt;stroke-linejoin:miter;stroke-opacity:1"
           d="m 109.26829,739.8129 0,-719.008"
           id="path3106"
           inkscape:connector-curvature="0" />
        <path
           style="fill:none;stroke:#00ffff;stroke-width:0.99999994px;stroke-linecap:butt;stroke-linejoin:miter;stroke-opacity:1"
           d="m 198.93495,739.8129 0,-719.008"
           id="path3108"
           inkscape:connector-curvature="0" />
        <path
           inkscape:connector-curvature="0"
           id="path3110"
           d="m 288.60163,739.8129 0,-719.008"
           style="fill:none;stroke:#00ffff;stroke-width:0.99999994px;stroke-linecap:butt;stroke-linejoin:miter;stroke-opacity:1" />
        <path
           style="fill:none;stroke:#00ffff;stroke-width:0.99999994px;stroke-linecap:butt;stroke-linejoin:miter;stroke-opacity:1"
           d="m 378.26829,739.8129 0,-719.008"
           id="path3112"
           inkscape:connector-curvature="0" />
        <path
           inkscape:connector-curvature="0"
           id="path3114"
           d="m 467.93495,739.8129 0,-719.008"
           style="fill:none;stroke:#00ffff;stroke-width:0.99999994px;stroke-linecap:butt;stroke-linejoin:miter;stroke-opacity:1" />
        <path
           style="fill:none;stroke:#00ffff;stroke-width:0.99999994px;stroke-linecap:butt;stroke-linejoin:miter;stroke-opacity:1"
           d="m 557.6016,739.8129 0,-719.008"
           id="path3116"
           inkscape:connector-curvature="0" />
        <path
           inkscape:connector-curvature="0"
           id="path3118"
           d="m 647.26829,739.8129 0,-719.008"
           style="fill:none;stroke:#00ffff;stroke-width:0.99999994px;stroke-linecap:butt;stroke-linejoin:miter;stroke-opacity:1" />
      </g>
      <g
         transform="matrix(0,-1,1,0,-2.04061,760.76829)"
         id="g3120">
        <path
           inkscape:connector-curvature="0"
           id="path3122"
           d="m 109.26829,739.8129 0,-719.008"
           style="fill:none;stroke:#00ffff;stroke-width:0.99999994px;stroke-linecap:butt;stroke-linejoin:miter;stroke-opacity:1" />
        <path
           inkscape:connector-curvature="0"
           id="path3124"
           d="m 198.93495,739.8129 0,-719.008"
           style="fill:none;stroke:#00ffff;stroke-width:0.99999994px;stroke-linecap:butt;stroke-linejoin:miter;stroke-opacity:1" />
        <path
           style="fill:none;stroke:#00ffff;stroke-width:0.99999994px;stroke-linecap:butt;stroke-linejoin:miter;stroke-opacity:1"
           d="m 288.60163,739.8129 0,-719.008"
           id="path3126"
           inkscape:connector-curvature="0" />
        <path
           inkscape:connector-curvature="0"
           id="path3128"
           d="m 378.26829,739.8129 0,-719.008"
           style="fill:none;stroke:#00ffff;stroke-width:0.99999994px;stroke-linecap:butt;stroke-linejoin:miter;stroke-opacity:1" />
        <path
           style="fill:none;stroke:#00ffff;stroke-width:0.99999994px;stroke-linecap:butt;stroke-linejoin:miter;stroke-opacity:1"
           d="m 467.93495,739.8129 0,-719.008"
           id="path3130"
           inkscape:connector-curvature="0" />
        <path
           inkscape:connector-curvature="0"
           id="path3132"
           d="m 557.6016,739.8129 0,-719.008"
           style="fill:none;stroke:#00ffff;stroke-width:0.99999994px;stroke-linecap:butt;stroke-linejoin:miter;stroke-opacity:1" />
        <path
           style="fill:none;stroke:#00ffff;stroke-width:0.99999994px;stroke-linecap:butt;stroke-linejoin:miter;stroke-opacity:1"
           d="m 647.26829,739.8129 0,-719.008"
           id="path3134"
           inkscape:connector-curvature="0" />
      </g>
    </g>
  </g>
</svg>
