<?xml version="1.0" encoding="UTF-8" standalone="no"?>
<!-- Created with Inkscape (http://www.inkscape.org/) -->

<svg
   xmlns:dc="http://purl.org/dc/elements/1.1/"
   xmlns:cc="http://creativecommons.org/ns#"
   xmlns:rdf="http://www.w3.org/1999/02/22-rdf-syntax-ns#"
   xmlns:svg="http://www.w3.org/2000/svg"
   xmlns="http://www.w3.org/2000/svg"
   xmlns:sodipodi="http://sodipodi.sourceforge.net/DTD/sodipodi-0.dtd"
   xmlns:inkscape="http://www.inkscape.org/namespaces/inkscape"
   width="1069.2"
   height="2149.2"
   id="svg2"
   version="1.1"
   inkscape:version="0.48.5 r10040"
   sodipodi:docname="creeper6.svg">
  <defs
     id="defs4" />
  <sodipodi:namedview
     id="base"
     pagecolor="#ffffff"
     bordercolor="#666666"
     borderopacity="1.0"
     inkscape:pageopacity="0.0"
     inkscape:pageshadow="2"
     inkscape:zoom="0.28"
     inkscape:cx="142.07779"
     inkscape:cy="1241.0433"
     inkscape:document-units="in"
     inkscape:current-layer="layer1"
     showgrid="false"
     units="in"
     inkscape:window-width="1724"
     inkscape:window-height="1239"
     inkscape:window-x="0"
     inkscape:window-y="1"
     inkscape:window-maximized="0" />
  <metadata
     id="metadata7">
    <rdf:RDF>
      <cc:Work
         rdf:about="">
        <dc:format>image/svg+xml</dc:format>
        <dc:type
           rdf:resource="http://purl.org/dc/dcmitype/StillImage" />
        <dc:title />
      </cc:Work>
    </rdf:RDF>
  </metadata>
  <g
     inkscape:label="Layer 1"
     inkscape:groupmode="layer"
     id="layer1"
     transform="translate(0,1096.8402)">
    <path
       style="fill:none;stroke:#000000;stroke-width:0.89999998"
       d="m 180.26878,-635.27883 0,72 10.625,0 0,72 -10.625,0 0,72 10.625,0 0,72 -10.625,0 0,72 0,359.562504 0,51.062496 0,20.9375 10.625,0 0,72 -10.625,0 0,72 10.625,0 0,72 -10.625,0 0,72 90,0 0,-10.625 90,0 0,10.625 72,0 0,-10.625 72,0 0,10.625 72,0 0,-10.625 72,0 0,10.625 72,0 0,-10.625 90,0 0,10.625 90.00001,0 0,-72 -10.62501,0 0,-72 10.62501,0 0,-72 -10.62501,0 0,-72 10.62501,0 0,-20.9375 0,-51.062496 0,-406.718804 0,-24.8437 -10.62501,0 0,-72 10.62501,0 0,-72 -10.62501,0 0,-72 10.62501,0 0,-72 -90.00001,0 0,10.625 -90,0 0,-10.625 -72,0 0,10.625 -72,0 0,-10.625 -72,0 0,10.625 -72,0 0,-10.625 -72,0 0,10.625 -90,0 0,-10.625 -90,0 z"
       id="polygon6"
       inkscape:connector-curvature="0" />
    <path
       style="fill:none;stroke:#000000;stroke-width:0.89999998"
       d="m 271.94933,-1007.9872 0,0.062 -79.34375,0 0,10.5625 -0.0312,0 0,61.37504 -10.625,0 0,72 10.625,0 0,72 -10.625,0 0,72 10.625,0 0,61.40625 79.375,0 0,10.59375 90,0 0,-10.59375 72,0 0,10.59375 72,0 0,-10.59375 72,0 0,10.59375 72,0 0,-10.59375 72,0 0,10.59375 90,0 0,-10.59375 79.375,0 0,-61.40625 10.625,0 0,-72 -10.625,0 0,-72 10.625,0 0,-72 -10.625,0 0,-23.09374 0,-38.2813 0,-10.5625 -79.375,0 0,-0.062 -90,0 0,0.062 -72,0 0,-0.062 -72,0 0,0.062 -72,0 0,-0.062 -72,0 0,0.062 -72,0 0,-0.062 -90,0 z"
       id="polygon3088"
       inkscape:connector-curvature="0" />
    <rect
       style="fill:none;stroke:#ff0000;stroke-width:0.99000001;stroke-miterlimit:4;stroke-opacity:0.39215686;stroke-dasharray:none;stroke-dashoffset:0"
       id="rect2998"
       width="629.01001"
       height="294.5914"
       x="227.95886"
       y="-319.58398" />
    <path
       inkscape:connector-curvature="0"
       id="path3034"
       d="m 267.24662,829.061 0,-0.0625 -79.34375,0 0,-10.5625 -0.0312,0 0,-61.375 -10.625,0 0,-72 10.625,0 0,-72 -10.625,0 0,-72 10.625,0 0,-61.40625 79.375,0 0,-10.59375 90,0 0,10.59375 72,0 0,-10.59375 72,0 0,10.59375 72,0 0,-10.59375 72,0 0,10.59375 72,0 0,-10.59375 90,0 0,10.59375 79.375,0 0,61.40625 10.625,0 0,72 -10.625,0 0,72 10.625,0 0,72 -10.625,0 0,23.09375 0,38.28125 0,10.5625 -79.375,0 0,0.0625 -90,0 0,-0.0625 -72,0 0,0.0625 -72,0 0,-0.0625 -72,0 0,0.0625 -72,0 0,-0.0625 -72,0 0,0.0625 -90,0 z"
       style="fill:none;stroke:#000000;stroke-width:0.89999998" />
    <g
       id="g3633"
       transform="translate(160.72432,-654.81123)">
      <g
         id="g3635"
         transform="translate(0.55305043,-1.080282)">
        <g
           transform="translate(4.23171,0)"
           id="g3637">
          <path
             style="fill:none;stroke:#00ffff;stroke-width:0.99999994px;stroke-linecap:butt;stroke-linejoin:miter;stroke-opacity:1"
             d="m 109.26829,739.8129 0,-719.008"
             id="path3639"
             inkscape:connector-curvature="0" />
          <path
             style="fill:none;stroke:#00ffff;stroke-width:0.99999994px;stroke-linecap:butt;stroke-linejoin:miter;stroke-opacity:1"
             d="m 198.93495,739.8129 0,-719.008"
             id="path3641"
             inkscape:connector-curvature="0" />
          <path
             inkscape:connector-curvature="0"
             id="path3643"
             d="m 288.60163,739.8129 0,-719.008"
             style="fill:none;stroke:#00ffff;stroke-width:0.99999994px;stroke-linecap:butt;stroke-linejoin:miter;stroke-opacity:1" />
          <path
             style="fill:none;stroke:#00ffff;stroke-width:0.99999994px;stroke-linecap:butt;stroke-linejoin:miter;stroke-opacity:1"
             d="m 378.26829,739.8129 0,-719.008"
             id="path3645"
             inkscape:connector-curvature="0" />
          <path
             inkscape:connector-curvature="0"
             id="path3647"
             d="m 467.93495,739.8129 0,-719.008"
             style="fill:none;stroke:#00ffff;stroke-width:0.99999994px;stroke-linecap:butt;stroke-linejoin:miter;stroke-opacity:1" />
          <path
             style="fill:none;stroke:#00ffff;stroke-width:0.99999994px;stroke-linecap:butt;stroke-linejoin:miter;stroke-opacity:1"
             d="m 557.6016,739.8129 0,-719.008"
             id="path3649"
             inkscape:connector-curvature="0" />
          <path
             inkscape:connector-curvature="0"
             id="path3651"
             d="m 647.26829,739.8129 0,-719.008"
             style="fill:none;stroke:#00ffff;stroke-width:0.99999994px;stroke-linecap:butt;stroke-linejoin:miter;stroke-opacity:1" />
        </g>
        <g
           transform="matrix(0,-1,1,0,-2.04061,760.76829)"
           id="g3653">
          <path
             inkscape:connector-curvature="0"
             id="path3655"
             d="m 109.26829,739.8129 0,-719.008"
             style="fill:none;stroke:#00ffff;stroke-width:0.99999994px;stroke-linecap:butt;stroke-linejoin:miter;stroke-opacity:1" />
          <path
             inkscape:connector-curvature="0"
             id="path3657"
             d="m 198.93495,739.8129 0,-719.008"
             style="fill:none;stroke:#00ffff;stroke-width:0.99999994px;stroke-linecap:butt;stroke-linejoin:miter;stroke-opacity:1" />
          <path
             style="fill:none;stroke:#00ffff;stroke-width:0.99999994px;stroke-linecap:butt;stroke-linejoin:miter;stroke-opacity:1"
             d="m 288.60163,739.8129 0,-719.008"
             id="path3659"
             inkscape:connector-curvature="0" />
          <path
             inkscape:connector-curvature="0"
             id="path3661"
             d="m 378.26829,739.8129 0,-719.008"
             style="fill:none;stroke:#00ffff;stroke-width:0.99999994px;stroke-linecap:butt;stroke-linejoin:miter;stroke-opacity:1" />
          <path
             style="fill:none;stroke:#00ffff;stroke-width:0.99999994px;stroke-linecap:butt;stroke-linejoin:miter;stroke-opacity:1"
             d="m 467.93495,739.8129 0,-719.008"
             id="path3663"
             inkscape:connector-curvature="0" />
          <path
             inkscape:connector-curvature="0"
             id="path3665"
             d="m 557.6016,739.8129 0,-719.008"
             style="fill:none;stroke:#00ffff;stroke-width:0.99999994px;stroke-linecap:butt;stroke-linejoin:miter;stroke-opacity:1" />
          <path
             style="fill:none;stroke:#00ffff;stroke-width:0.99999994px;stroke-linecap:butt;stroke-linejoin:miter;stroke-opacity:1"
             d="m 647.26829,739.8129 0,-719.008"
             id="path3667"
             inkscape:connector-curvature="0" />
        </g>
      </g>
      <g
         transform="matrix(1,0,0,0.62993562,4.7847604,637.45801)"
         id="g3669">
        <path
           style="fill:none;stroke:#00ffff;stroke-width:1.25994587px;stroke-linecap:butt;stroke-linejoin:miter;stroke-opacity:1"
           d="m 109.26829,739.8129 0,-719.008"
           id="path3671"
           inkscape:connector-curvature="0" />
        <path
           style="fill:none;stroke:#00ffff;stroke-width:1.25994587px;stroke-linecap:butt;stroke-linejoin:miter;stroke-opacity:1"
           d="m 198.93495,739.8129 0,-719.008"
           id="path3673"
           inkscape:connector-curvature="0" />
        <path
           inkscape:connector-curvature="0"
           id="path3675"
           d="m 288.60163,739.8129 0,-719.008"
           style="fill:none;stroke:#00ffff;stroke-width:1.25994587px;stroke-linecap:butt;stroke-linejoin:miter;stroke-opacity:1" />
        <path
           style="fill:none;stroke:#00ffff;stroke-width:1.25994587px;stroke-linecap:butt;stroke-linejoin:miter;stroke-opacity:1"
           d="m 378.26829,739.8129 0,-719.008"
           id="path3677"
           inkscape:connector-curvature="0" />
        <path
           inkscape:connector-curvature="0"
           id="path3679"
           d="m 467.93495,739.8129 0,-719.008"
           style="fill:none;stroke:#00ffff;stroke-width:1.25994587px;stroke-linecap:butt;stroke-linejoin:miter;stroke-opacity:1" />
        <path
           style="fill:none;stroke:#00ffff;stroke-width:1.25994587px;stroke-linecap:butt;stroke-linejoin:miter;stroke-opacity:1"
           d="m 557.6016,739.8129 0,-719.008"
           id="path3681"
           inkscape:connector-curvature="0" />
        <path
           inkscape:connector-curvature="0"
           id="path3683"
           d="m 647.26829,739.8129 0,-719.008"
           style="fill:none;stroke:#00ffff;stroke-width:1.25994587px;stroke-linecap:butt;stroke-linejoin:miter;stroke-opacity:1" />
      </g>
      <path
         style="fill:none;stroke:#00ffff;stroke-width:0.99999994px;stroke-linecap:butt;stroke-linejoin:miter;stroke-opacity:1"
         d="m 738.32534,1012.2588 -719.008,0"
         id="path3685"
         inkscape:connector-curvature="0" />
      <path
         inkscape:connector-curvature="0"
         id="path3687"
         d="m 738.32534,922.59215 -719.008,0"
         style="fill:none;stroke:#00ffff;stroke-width:0.99999994px;stroke-linecap:butt;stroke-linejoin:miter;stroke-opacity:1" />
      <path
         style="fill:none;stroke:#00ffff;stroke-width:0.99999994px;stroke-linecap:butt;stroke-linejoin:miter;stroke-opacity:1"
         d="m 738.32534,832.9255 -719.008,0"
         id="path3689"
         inkscape:connector-curvature="0" />
      <path
         inkscape:connector-curvature="0"
         id="path3691"
         d="m 738.32534,743.25881 -719.008,0"
         style="fill:none;stroke:#00ffff;stroke-width:0.99999994px;stroke-linecap:butt;stroke-linejoin:miter;stroke-opacity:1" />
    </g>
    <g
       id="g3360">
      <g
         id="g3281"
         transform="matrix(1,0,0,0.49408488,169.83124,-1016.1808)">
        <path
           inkscape:connector-curvature="0"
           id="path3283"
           d="m 109.26829,739.8129 0,-719.008"
           style="fill:none;stroke:#00ffff;stroke-width:1.42265368px;stroke-linecap:butt;stroke-linejoin:miter;stroke-opacity:1" />
        <path
           inkscape:connector-curvature="0"
           id="path3285"
           d="m 198.93495,739.8129 0,-719.008"
           style="fill:none;stroke:#00ffff;stroke-width:1.42265368px;stroke-linecap:butt;stroke-linejoin:miter;stroke-opacity:1" />
        <path
           style="fill:none;stroke:#00ffff;stroke-width:1.42265368px;stroke-linecap:butt;stroke-linejoin:miter;stroke-opacity:1"
           d="m 288.60163,739.8129 0,-719.008"
           id="path3287"
           inkscape:connector-curvature="0" />
        <path
           inkscape:connector-curvature="0"
           id="path3289"
           d="m 378.26829,739.8129 0,-719.008"
           style="fill:none;stroke:#00ffff;stroke-width:1.42265368px;stroke-linecap:butt;stroke-linejoin:miter;stroke-opacity:1" />
        <path
           style="fill:none;stroke:#00ffff;stroke-width:1.42265368px;stroke-linecap:butt;stroke-linejoin:miter;stroke-opacity:1"
           d="m 467.93495,739.8129 0,-719.008"
           id="path3291"
           inkscape:connector-curvature="0" />
        <path
           inkscape:connector-curvature="0"
           id="path3293"
           d="m 557.6016,739.8129 0,-719.008"
           style="fill:none;stroke:#00ffff;stroke-width:1.42265368px;stroke-linecap:butt;stroke-linejoin:miter;stroke-opacity:1" />
        <path
           style="fill:none;stroke:#00ffff;stroke-width:1.42265368px;stroke-linecap:butt;stroke-linejoin:miter;stroke-opacity:1"
           d="m 647.26829,739.8129 0,-719.008"
           id="path3295"
           inkscape:connector-curvature="0" />
      </g>
      <path
         inkscape:connector-curvature="0"
         id="path3297"
         d="m 903.37182,-741.88409 -719.008,0"
         style="fill:none;stroke:#00ffff;stroke-width:0.99999994px;stroke-linecap:butt;stroke-linejoin:miter;stroke-opacity:1" />
      <path
         style="fill:none;stroke:#00ffff;stroke-width:0.99999994px;stroke-linecap:butt;stroke-linejoin:miter;stroke-opacity:1"
         d="m 903.37182,-831.55074 -719.008,0"
         id="path3299"
         inkscape:connector-curvature="0" />
      <path
         inkscape:connector-curvature="0"
         id="path3301"
         d="m 903.37182,-921.21739 -719.008,0"
         style="fill:none;stroke:#00ffff;stroke-width:0.99999994px;stroke-linecap:butt;stroke-linejoin:miter;stroke-opacity:1" />
    </g>
    <g
       id="g3373"
       transform="translate(-8.3221683,1475.1043)">
      <g
         transform="matrix(1,0,0,0.49408488,169.83124,-1016.1808)"
         id="g3375">
        <path
           style="fill:none;stroke:#00ffff;stroke-width:1.42265368px;stroke-linecap:butt;stroke-linejoin:miter;stroke-opacity:1"
           d="m 109.26829,739.8129 0,-719.008"
           id="path3377"
           inkscape:connector-curvature="0" />
        <path
           style="fill:none;stroke:#00ffff;stroke-width:1.42265368px;stroke-linecap:butt;stroke-linejoin:miter;stroke-opacity:1"
           d="m 198.93495,739.8129 0,-719.008"
           id="path3379"
           inkscape:connector-curvature="0" />
        <path
           inkscape:connector-curvature="0"
           id="path3381"
           d="m 288.60163,739.8129 0,-719.008"
           style="fill:none;stroke:#00ffff;stroke-width:1.42265368px;stroke-linecap:butt;stroke-linejoin:miter;stroke-opacity:1" />
        <path
           style="fill:none;stroke:#00ffff;stroke-width:1.42265368px;stroke-linecap:butt;stroke-linejoin:miter;stroke-opacity:1"
           d="m 378.26829,739.8129 0,-719.008"
           id="path3383"
           inkscape:connector-curvature="0" />
        <path
           inkscape:connector-curvature="0"
           id="path3385"
           d="m 467.93495,739.8129 0,-719.008"
           style="fill:none;stroke:#00ffff;stroke-width:1.42265368px;stroke-linecap:butt;stroke-linejoin:miter;stroke-opacity:1" />
        <path
           style="fill:none;stroke:#00ffff;stroke-width:1.42265368px;stroke-linecap:butt;stroke-linejoin:miter;stroke-opacity:1"
           d="m 557.6016,739.8129 0,-719.008"
           id="path3387"
           inkscape:connector-curvature="0" />
        <path
           inkscape:connector-curvature="0"
           id="path3389"
           d="m 647.26829,739.8129 0,-719.008"
           style="fill:none;stroke:#00ffff;stroke-width:1.42265368px;stroke-linecap:butt;stroke-linejoin:miter;stroke-opacity:1" />
      </g>
      <path
         style="fill:none;stroke:#00ffff;stroke-width:0.99999994px;stroke-linecap:butt;stroke-linejoin:miter;stroke-opacity:1"
         d="m 903.37182,-741.88409 -719.008,0"
         id="path3391"
         inkscape:connector-curvature="0" />
      <path
         inkscape:connector-curvature="0"
         id="path3393"
         d="m 903.37182,-831.55074 -719.008,0"
         style="fill:none;stroke:#00ffff;stroke-width:0.99999994px;stroke-linecap:butt;stroke-linejoin:miter;stroke-opacity:1" />
      <path
         style="fill:none;stroke:#00ffff;stroke-width:0.99999994px;stroke-linecap:butt;stroke-linejoin:miter;stroke-opacity:1"
         d="m 903.37182,-921.21739 -719.008,0"
         id="path3395"
         inkscape:connector-curvature="0" />
    </g>
  </g>
</svg>
