<?xml version="1.0" encoding="UTF-8" standalone="no"?>
<!-- Created with Inkscape (http://www.inkscape.org/) -->

<svg
   xmlns:dc="http://purl.org/dc/elements/1.1/"
   xmlns:cc="http://creativecommons.org/ns#"
   xmlns:rdf="http://www.w3.org/1999/02/22-rdf-syntax-ns#"
   xmlns:svg="http://www.w3.org/2000/svg"
   xmlns="http://www.w3.org/2000/svg"
   xmlns:sodipodi="http://sodipodi.sourceforge.net/DTD/sodipodi-0.dtd"
   xmlns:inkscape="http://www.inkscape.org/namespaces/inkscape"
   width="1069.2"
   height="2149.2"
   id="svg4369"
   version="1.1"
   inkscape:version="0.48.5 r10040"
   sodipodi:docname="body2.svg">
  <defs
     id="defs4371" />
  <sodipodi:namedview
     id="base"
     pagecolor="#ffffff"
     bordercolor="#666666"
     borderopacity="1.0"
     inkscape:pageopacity="0.0"
     inkscape:pageshadow="2"
     inkscape:zoom="0.36"
     inkscape:cx="728.87288"
     inkscape:cy="1512.9704"
     inkscape:document-units="in"
     inkscape:current-layer="layer1"
     showgrid="false"
     units="in"
     inkscape:window-width="1227"
     inkscape:window-height="1044"
     inkscape:window-x="260"
     inkscape:window-y="51"
     inkscape:window-maximized="0" />
  <metadata
     id="metadata4374">
    <rdf:RDF>
      <cc:Work
         rdf:about="">
        <dc:format>image/svg+xml</dc:format>
        <dc:type
           rdf:resource="http://purl.org/dc/dcmitype/StillImage" />
        <dc:title></dc:title>
      </cc:Work>
    </rdf:RDF>
  </metadata>
  <g
     inkscape:label="Layer 1"
     inkscape:groupmode="layer"
     id="layer1"
     transform="translate(0,1096.8403)">
    <path
       style="fill:none;stroke:#000000;stroke-width:0.89999998"
       d="M 37.8125 62.96875 L 37.8125 170.96875 L 48.40625 170.96875 L 48.40625 278.96875 L 37.8125 278.96875 L 37.8125 350.96875 L 48.40625 350.96875 L 48.40625 422.96875 L 37.8125 422.96875 L 37.8125 494.96875 L 48.40625 494.96875 L 48.40625 566.96875 L 37.8125 566.96875 L 37.8125 638.96875 L 48.40625 638.96875 L 48.40625 710.96875 L 37.8125 710.96875 L 37.8125 782.96875 L 48.40625 782.96875 L 48.40625 854.96875 L 37.8125 854.96875 L 37.8125 926.96875 L 48.40625 926.96875 L 48.40625 1034.9688 L 37.8125 1034.9688 L 37.8125 1142.9688 L 127.8125 1142.9688 L 127.8125 1142.9375 L 217.8125 1142.9375 L 217.8125 1142.9688 L 289.8125 1142.9688 L 289.8125 1142.9375 L 361.8125 1142.9375 L 361.8125 1142.9688 L 433.8125 1142.9688 L 433.8125 1142.9375 L 505.8125 1142.9375 L 505.8125 1142.9688 L 577.8125 1142.9688 L 577.8125 1142.9375 L 667.8125 1142.9375 L 667.8125 1142.9688 L 757.8125 1142.9688 L 757.8125 1034.9688 L 747.1875 1034.9688 L 747.1875 926.96875 L 757.8125 926.96875 L 757.8125 854.96875 L 747.1875 854.96875 L 747.1875 782.96875 L 757.8125 782.96875 L 757.8125 710.96875 L 747.1875 710.96875 L 747.1875 638.96875 L 757.8125 638.96875 L 757.8125 566.96875 L 747.1875 566.96875 L 747.1875 494.96875 L 757.8125 494.96875 L 757.8125 422.96875 L 747.1875 422.96875 L 747.1875 350.96875 L 757.8125 350.96875 L 757.8125 278.96875 L 747.1875 278.96875 L 747.1875 170.96875 L 757.8125 170.96875 L 757.8125 62.96875 L 667.8125 62.96875 L 667.8125 73.59375 L 577.8125 73.59375 L 577.8125 62.96875 L 505.8125 62.96875 L 505.8125 73.59375 L 433.8125 73.59375 L 433.8125 62.96875 L 361.8125 62.96875 L 361.8125 73.59375 L 289.8125 73.59375 L 289.8125 62.96875 L 217.8125 62.96875 L 217.8125 73.59375 L 127.8125 73.59375 L 127.8125 62.96875 L 37.8125 62.96875 z "
       transform="translate(0,-1096.8403)"
       id="polygon16" />
    <g
       id="g3633"
       transform="translate(18.952534,-1060.1809)">
      <g
         id="g3635"
         transform="translate(0.55305043,-1.080282)">
        <g
           transform="translate(4.23171,0)"
           id="g3637">
          <path
             style="fill:none;stroke:#00ffff;stroke-width:0.99999994px;stroke-linecap:butt;stroke-linejoin:miter;stroke-opacity:1"
             d="m 109.26829,739.8129 0,-719.008"
             id="path3639"
             inkscape:connector-curvature="0" />
          <path
             style="fill:none;stroke:#00ffff;stroke-width:0.99999994px;stroke-linecap:butt;stroke-linejoin:miter;stroke-opacity:1"
             d="m 198.93495,739.8129 0,-719.008"
             id="path3641"
             inkscape:connector-curvature="0" />
          <path
             inkscape:connector-curvature="0"
             id="path3643"
             d="m 288.60163,739.8129 0,-719.008"
             style="fill:none;stroke:#00ffff;stroke-width:0.99999994px;stroke-linecap:butt;stroke-linejoin:miter;stroke-opacity:1" />
          <path
             style="fill:none;stroke:#00ffff;stroke-width:0.99999994px;stroke-linecap:butt;stroke-linejoin:miter;stroke-opacity:1"
             d="m 378.26829,739.8129 0,-719.008"
             id="path3645"
             inkscape:connector-curvature="0" />
          <path
             inkscape:connector-curvature="0"
             id="path3647"
             d="m 467.93495,739.8129 0,-719.008"
             style="fill:none;stroke:#00ffff;stroke-width:0.99999994px;stroke-linecap:butt;stroke-linejoin:miter;stroke-opacity:1" />
          <path
             style="fill:none;stroke:#00ffff;stroke-width:0.99999994px;stroke-linecap:butt;stroke-linejoin:miter;stroke-opacity:1"
             d="m 557.6016,739.8129 0,-719.008"
             id="path3649"
             inkscape:connector-curvature="0" />
          <path
             inkscape:connector-curvature="0"
             id="path3651"
             d="m 647.26829,739.8129 0,-719.008"
             style="fill:none;stroke:#00ffff;stroke-width:0.99999994px;stroke-linecap:butt;stroke-linejoin:miter;stroke-opacity:1" />
        </g>
        <g
           transform="matrix(0,-1,1,0,-2.04061,760.76829)"
           id="g3653">
          <path
             inkscape:connector-curvature="0"
             id="path3655"
             d="m 109.26829,739.8129 0,-719.008"
             style="fill:none;stroke:#00ffff;stroke-width:0.99999994px;stroke-linecap:butt;stroke-linejoin:miter;stroke-opacity:1" />
          <path
             inkscape:connector-curvature="0"
             id="path3657"
             d="m 198.93495,739.8129 0,-719.008"
             style="fill:none;stroke:#00ffff;stroke-width:0.99999994px;stroke-linecap:butt;stroke-linejoin:miter;stroke-opacity:1" />
          <path
             style="fill:none;stroke:#00ffff;stroke-width:0.99999994px;stroke-linecap:butt;stroke-linejoin:miter;stroke-opacity:1"
             d="m 288.60163,739.8129 0,-719.008"
             id="path3659"
             inkscape:connector-curvature="0" />
          <path
             inkscape:connector-curvature="0"
             id="path3661"
             d="m 378.26829,739.8129 0,-719.008"
             style="fill:none;stroke:#00ffff;stroke-width:0.99999994px;stroke-linecap:butt;stroke-linejoin:miter;stroke-opacity:1" />
          <path
             style="fill:none;stroke:#00ffff;stroke-width:0.99999994px;stroke-linecap:butt;stroke-linejoin:miter;stroke-opacity:1"
             d="m 467.93495,739.8129 0,-719.008"
             id="path3663"
             inkscape:connector-curvature="0" />
          <path
             inkscape:connector-curvature="0"
             id="path3665"
             d="m 557.6016,739.8129 0,-719.008"
             style="fill:none;stroke:#00ffff;stroke-width:0.99999994px;stroke-linecap:butt;stroke-linejoin:miter;stroke-opacity:1" />
          <path
             style="fill:none;stroke:#00ffff;stroke-width:0.99999994px;stroke-linecap:butt;stroke-linejoin:miter;stroke-opacity:1"
             d="m 647.26829,739.8129 0,-719.008"
             id="path3667"
             inkscape:connector-curvature="0" />
        </g>
      </g>
      <g
         transform="matrix(1,0,0,0.62993562,4.7847604,637.45801)"
         id="g3669">
        <path
           style="fill:none;stroke:#00ffff;stroke-width:1.25994587px;stroke-linecap:butt;stroke-linejoin:miter;stroke-opacity:1"
           d="m 109.26829,739.8129 0,-719.008"
           id="path3671"
           inkscape:connector-curvature="0" />
        <path
           style="fill:none;stroke:#00ffff;stroke-width:1.25994587px;stroke-linecap:butt;stroke-linejoin:miter;stroke-opacity:1"
           d="m 198.93495,739.8129 0,-719.008"
           id="path3673"
           inkscape:connector-curvature="0" />
        <path
           inkscape:connector-curvature="0"
           id="path3675"
           d="m 288.60163,739.8129 0,-719.008"
           style="fill:none;stroke:#00ffff;stroke-width:1.25994587px;stroke-linecap:butt;stroke-linejoin:miter;stroke-opacity:1" />
        <path
           style="fill:none;stroke:#00ffff;stroke-width:1.25994587px;stroke-linecap:butt;stroke-linejoin:miter;stroke-opacity:1"
           d="m 378.26829,739.8129 0,-719.008"
           id="path3677"
           inkscape:connector-curvature="0" />
        <path
           inkscape:connector-curvature="0"
           id="path3679"
           d="m 467.93495,739.8129 0,-719.008"
           style="fill:none;stroke:#00ffff;stroke-width:1.25994587px;stroke-linecap:butt;stroke-linejoin:miter;stroke-opacity:1" />
        <path
           style="fill:none;stroke:#00ffff;stroke-width:1.25994587px;stroke-linecap:butt;stroke-linejoin:miter;stroke-opacity:1"
           d="m 557.6016,739.8129 0,-719.008"
           id="path3681"
           inkscape:connector-curvature="0" />
        <path
           inkscape:connector-curvature="0"
           id="path3683"
           d="m 647.26829,739.8129 0,-719.008"
           style="fill:none;stroke:#00ffff;stroke-width:1.25994587px;stroke-linecap:butt;stroke-linejoin:miter;stroke-opacity:1" />
      </g>
      <path
         style="fill:none;stroke:#00ffff;stroke-width:0.99999994px;stroke-linecap:butt;stroke-linejoin:miter;stroke-opacity:1"
         d="m 738.32534,1012.2588 -719.008,0"
         id="path3685"
         inkscape:connector-curvature="0" />
      <path
         inkscape:connector-curvature="0"
         id="path3687"
         d="m 738.32534,922.59215 -719.008,0"
         style="fill:none;stroke:#00ffff;stroke-width:0.99999994px;stroke-linecap:butt;stroke-linejoin:miter;stroke-opacity:1" />
      <path
         style="fill:none;stroke:#00ffff;stroke-width:0.99999994px;stroke-linecap:butt;stroke-linejoin:miter;stroke-opacity:1"
         d="m 738.32534,832.9255 -719.008,0"
         id="path3689"
         inkscape:connector-curvature="0" />
      <path
         inkscape:connector-curvature="0"
         id="path3691"
         d="m 738.32534,743.25881 -719.008,0"
         style="fill:none;stroke:#00ffff;stroke-width:0.99999994px;stroke-linecap:butt;stroke-linejoin:miter;stroke-opacity:1" />
    </g>
    <g
       transform="translate(30.226223,83.232203)"
       id="g4">
      <polygon
         style="fill:none;stroke:#000000;stroke-width:0.89999998"
         points="709.38,288 720,288 720,432 709.38,432 709.38,576 720,576 720,720 576,720 576,709.38 432,709.38 432,720 288,720 288,709.38 144,709.38 144,720 0,720 0,576 10.62,576 10.62,432 0,432 0,288 10.62,288 10.62,144 0,144 0,0 144,0 144,10.62 288,10.62 288,0 432,0 432,10.62 576,10.62 576,0 720,0 720,144 709.38,144 "
         id="polygon6" />
    </g>
    <g
       id="g3084"
       transform="translate(7.7262233,60.732203)">
      <g
         transform="translate(4.23171,0)"
         id="g3059">
        <path
           style="fill:none;stroke:#00ffff;stroke-width:0.99999994px;stroke-linecap:butt;stroke-linejoin:miter;stroke-opacity:1"
           d="m 109.26829,739.8129 0,-719.008"
           id="path3035"
           inkscape:connector-curvature="0" />
        <path
           style="fill:none;stroke:#00ffff;stroke-width:0.99999994px;stroke-linecap:butt;stroke-linejoin:miter;stroke-opacity:1"
           d="m 198.93495,739.8129 0,-719.008"
           id="path3039"
           inkscape:connector-curvature="0" />
        <path
           inkscape:connector-curvature="0"
           id="path3041"
           d="m 288.60163,739.8129 0,-719.008"
           style="fill:none;stroke:#00ffff;stroke-width:0.99999994px;stroke-linecap:butt;stroke-linejoin:miter;stroke-opacity:1" />
        <path
           style="fill:none;stroke:#00ffff;stroke-width:0.99999994px;stroke-linecap:butt;stroke-linejoin:miter;stroke-opacity:1"
           d="m 378.26829,739.8129 0,-719.008"
           id="path3045"
           inkscape:connector-curvature="0" />
        <path
           inkscape:connector-curvature="0"
           id="path3049"
           d="m 467.93495,739.8129 0,-719.008"
           style="fill:none;stroke:#00ffff;stroke-width:0.99999994px;stroke-linecap:butt;stroke-linejoin:miter;stroke-opacity:1" />
        <path
           style="fill:none;stroke:#00ffff;stroke-width:0.99999994px;stroke-linecap:butt;stroke-linejoin:miter;stroke-opacity:1"
           d="m 557.6016,739.8129 0,-719.008"
           id="path3053"
           inkscape:connector-curvature="0" />
        <path
           inkscape:connector-curvature="0"
           id="path3057"
           d="m 647.26829,739.8129 0,-719.008"
           style="fill:none;stroke:#00ffff;stroke-width:0.99999994px;stroke-linecap:butt;stroke-linejoin:miter;stroke-opacity:1" />
      </g>
      <g
         transform="matrix(0,-1,1,0,-2.04061,760.76829)"
         id="g3068">
        <path
           inkscape:connector-curvature="0"
           id="path3070"
           d="m 109.26829,739.8129 0,-719.008"
           style="fill:none;stroke:#00ffff;stroke-width:0.99999994px;stroke-linecap:butt;stroke-linejoin:miter;stroke-opacity:1" />
        <path
           inkscape:connector-curvature="0"
           id="path3072"
           d="m 198.93495,739.8129 0,-719.008"
           style="fill:none;stroke:#00ffff;stroke-width:0.99999994px;stroke-linecap:butt;stroke-linejoin:miter;stroke-opacity:1" />
        <path
           style="fill:none;stroke:#00ffff;stroke-width:0.99999994px;stroke-linecap:butt;stroke-linejoin:miter;stroke-opacity:1"
           d="m 288.60163,739.8129 0,-719.008"
           id="path3074"
           inkscape:connector-curvature="0" />
        <path
           inkscape:connector-curvature="0"
           id="path3076"
           d="m 378.26829,739.8129 0,-719.008"
           style="fill:none;stroke:#00ffff;stroke-width:0.99999994px;stroke-linecap:butt;stroke-linejoin:miter;stroke-opacity:1" />
        <path
           style="fill:none;stroke:#00ffff;stroke-width:0.99999994px;stroke-linecap:butt;stroke-linejoin:miter;stroke-opacity:1"
           d="m 467.93495,739.8129 0,-719.008"
           id="path3078"
           inkscape:connector-curvature="0" />
        <path
           inkscape:connector-curvature="0"
           id="path3080"
           d="m 557.6016,739.8129 0,-719.008"
           style="fill:none;stroke:#00ffff;stroke-width:0.99999994px;stroke-linecap:butt;stroke-linejoin:miter;stroke-opacity:1" />
        <path
           style="fill:none;stroke:#00ffff;stroke-width:0.99999994px;stroke-linecap:butt;stroke-linejoin:miter;stroke-opacity:1"
           d="m 647.26829,739.8129 0,-719.008"
           id="path3082"
           inkscape:connector-curvature="0" />
      </g>
    </g>
    <rect
       style="fill:none;stroke:#ff0000;stroke-width:0.99000001;stroke-miterlimit:4;stroke-opacity:0.39215686;stroke-dasharray:none;stroke-dashoffset:0"
       id="rect3435"
       width="180.29268"
       height="178.47154"
       x="120.6368"
       y="265.47205" />
    <rect
       style="fill:none;stroke:#ff0000;stroke-width:0.99000001;stroke-miterlimit:4;stroke-opacity:0.39215686;stroke-dasharray:none;stroke-dashoffset:0"
       id="rect3437"
       width="174.82927"
       height="180.29268"
       x="481.22217"
       y="267.29318" />
  </g>
</svg>
