<?xml version="1.0" encoding="UTF-8" standalone="no"?>
<svg
   xmlns:dc="http://purl.org/dc/elements/1.1/"
   xmlns:cc="http://creativecommons.org/ns#"
   xmlns:rdf="http://www.w3.org/1999/02/22-rdf-syntax-ns#"
   xmlns:svg="http://www.w3.org/2000/svg"
   xmlns="http://www.w3.org/2000/svg"
   xmlns:sodipodi="http://sodipodi.sourceforge.net/DTD/sodipodi-0.dtd"
   xmlns:inkscape="http://www.inkscape.org/namespaces/inkscape"
   version="1.1"
   width="1069.2"
   height="2149.2"
   viewBox="0 0 1069.2 2149.2"
   id="svg2"
   inkscape:version="0.48.5 r10040"
   sodipodi:docname="creeper7.svg">
  <metadata
     id="metadata38">
    <rdf:RDF>
      <cc:Work
         rdf:about="">
        <dc:format>image/svg+xml</dc:format>
        <dc:type
           rdf:resource="http://purl.org/dc/dcmitype/StillImage" />
        <dc:title />
      </cc:Work>
    </rdf:RDF>
  </metadata>
  <defs
     id="defs36" />
  <sodipodi:namedview
     pagecolor="#ffffff"
     bordercolor="#666666"
     borderopacity="1"
     objecttolerance="10"
     gridtolerance="10"
     guidetolerance="10"
     inkscape:pageopacity="0"
     inkscape:pageshadow="2"
     inkscape:window-width="1280"
     inkscape:window-height="1024"
     id="namedview34"
     showgrid="false"
     inkscape:zoom="0.3"
     inkscape:cx="346.83738"
     inkscape:cy="764.73898"
     inkscape:window-x="15"
     inkscape:window-y="32"
     inkscape:window-maximized="0"
     inkscape:current-layer="svg2"
     units="in"
     showguides="true"
     inkscape:guide-bbox="true">
    <sodipodi:guide
       orientation="1,0"
       position="103.26342,1132.2097"
       id="guide4550" />
    <sodipodi:guide
       orientation="1,0"
       position="803.97949,636.7911"
       id="guide4552" />
  </sodipodi:namedview>
  <!-- Front-->
  <!-- Back-->
  <!-- Left-->
  <!-- Right-->
  <!-- Top-->
  <!-- Bottom-->
  <path
     style="fill:none;stroke:#000000;stroke-width:0.8999998"
     d="m 91.278242,88.138966 c 0,0 1.45533,88.242104 1.45533,147.103504 l -10.625,0 0,144 10.625,0 0,144 -10.625,0 0,144 10.625,0 -1.45533,144.0312 134.830328,0 0,-10.625 144,0 0,10.625 144,0 0,-10.625 144,0 0,10.625 133.88578,1.2293 -0.51078,-145.2605 10.625,0 0,-144 -10.625,0 0,-144 10.625,0 0,-144 -10.625,0 0.51078,-143.968804 -133.88578,0 0,10.625004 -144,0 0,-10.625004 -144,0 0,10.625004 -144,0 0,-10.625004 z"
     id="polygon10-4"
     inkscape:connector-curvature="0"
     sodipodi:nodetypes="ccccccccccccccccccccccccccccccccccccc" />
</svg>
