<?xml version="1.0" encoding="UTF-8" standalone="no"?>
<!-- Created with Inkscape (http://www.inkscape.org/) -->

<svg
   xmlns:dc="http://purl.org/dc/elements/1.1/"
   xmlns:cc="http://creativecommons.org/ns#"
   xmlns:rdf="http://www.w3.org/1999/02/22-rdf-syntax-ns#"
   xmlns:svg="http://www.w3.org/2000/svg"
   xmlns="http://www.w3.org/2000/svg"
   xmlns:sodipodi="http://sodipodi.sourceforge.net/DTD/sodipodi-0.dtd"
   xmlns:inkscape="http://www.inkscape.org/namespaces/inkscape"
   width="1069.2"
   height="2149.2"
   id="svg3073"
   version="1.1"
   inkscape:version="0.48.5 r10040"
   sodipodi:docname="creeper4.svg">
  <defs
     id="defs3075" />
  <sodipodi:namedview
     id="base"
     pagecolor="#ffffff"
     bordercolor="#666666"
     borderopacity="1.0"
     inkscape:pageopacity="0.0"
     inkscape:pageshadow="2"
     inkscape:zoom="0.4"
     inkscape:cx="375"
     inkscape:cy="1014.2959"
     inkscape:document-units="in"
     inkscape:current-layer="layer1"
     showgrid="false"
     units="in"
     inkscape:window-width="1691"
     inkscape:window-height="1084"
     inkscape:window-x="426"
     inkscape:window-y="62"
     inkscape:window-maximized="0" />
  <metadata
     id="metadata3078">
    <rdf:RDF>
      <cc:Work
         rdf:about="">
        <dc:format>image/svg+xml</dc:format>
        <dc:type
           rdf:resource="http://purl.org/dc/dcmitype/StillImage" />
        <dc:title />
      </cc:Work>
    </rdf:RDF>
  </metadata>
  <g
     inkscape:label="Layer 1"
     inkscape:groupmode="layer"
     id="layer1"
     transform="translate(0,1096.8403)">
    <g
       id="g3516"
       transform="translate(-69.69697,206.06061)">
      <path
         id="polygon20"
         d="m 482.14386,-1268.9762 0,108 -10.625,0 0,108 10.625,0 0,71.99999 -10.625,0 0,72 10.625,0 0,72 -10.625,0 0,72 10.625,0 0,72 -10.625,0 0,72 10.625,0 0,72 -10.625,0 0,72 10.625,0 0,72 -10.625,0 0,108.00003 10.625,0 0,108.00002 61.375,0 0,-0.031 72,0 0,0.031 72,0 0,-0.031 72.00003,0 0,0.031 61.375,0 0,-108.00002 10.625,0 0,-108.00003 -10.625,0 0,-72 10.625,0 0,-72 -10.625,0 0,-72 10.625,0 0,-72 -10.625,0 0,-72 10.625,0 0,-72 -10.625,0 0,-72 10.625,0 0,-72 -10.625,0 0,-71.99999 10.625,0 0,-108 -10.625,0 0,-108 -61.375,0 0,10.625 -72.00003,0 0,-10.625 -72,0 0,10.625 -72,0 0,-10.625 -61.375,0 z"
         style="fill:none;stroke:#000000;stroke-width:0.89999992"
         inkscape:connector-curvature="0" />
      <g
         transform="translate(-995.35265,-1296.8494)"
         id="g3820">
        <path
           style="fill:none;stroke:#00ffff;stroke-width:0.99999994px;stroke-linecap:butt;stroke-linejoin:miter;stroke-opacity:1"
           d="m 1557.2858,741.75803 0,-719.007998"
           id="path3699"
           inkscape:connector-curvature="0" />
        <path
           style="fill:none;stroke:#00ffff;stroke-width:0.99999994px;stroke-linecap:butt;stroke-linejoin:miter;stroke-opacity:1"
           d="m 1646.9525,741.75803 0,-719.007998"
           id="path3701"
           inkscape:connector-curvature="0" />
        <path
           inkscape:connector-curvature="0"
           id="path3703"
           d="m 1736.6191,741.75803 0,-719.007998"
           style="fill:none;stroke:#00ffff;stroke-width:0.99999994px;stroke-linecap:butt;stroke-linejoin:miter;stroke-opacity:1" />
        <path
           inkscape:connector-curvature="0"
           id="path3715"
           d="m 1821.2098,653.44513 -358.6597,0"
           style="fill:none;stroke:#00ffff;stroke-width:0.99999994px;stroke-linecap:butt;stroke-linejoin:miter;stroke-opacity:1" />
        <path
           inkscape:connector-curvature="0"
           id="path3717"
           d="m 1822.8043,563.77847 -360.2542,0"
           style="fill:none;stroke:#00ffff;stroke-width:0.99999994px;stroke-linecap:butt;stroke-linejoin:miter;stroke-opacity:1" />
        <path
           style="fill:none;stroke:#00ffff;stroke-width:0.99999994px;stroke-linecap:butt;stroke-linejoin:miter;stroke-opacity:1"
           d="m 1819.6154,474.11179 -357.0653,0"
           id="path3719"
           inkscape:connector-curvature="0" />
        <path
           inkscape:connector-curvature="0"
           id="path3721"
           d="m 1824.3988,384.44513 -361.8487,0"
           style="fill:none;stroke:#00ffff;stroke-width:0.99999994px;stroke-linecap:butt;stroke-linejoin:miter;stroke-opacity:1" />
        <path
           style="fill:none;stroke:#00ffff;stroke-width:0.99999994px;stroke-linecap:butt;stroke-linejoin:miter;stroke-opacity:1"
           d="m 1824.3988,294.77847 -361.8487,0"
           id="path3723"
           inkscape:connector-curvature="0" />
        <path
           inkscape:connector-curvature="0"
           id="path3725"
           d="m 1827.5877,205.11182 -365.0376,0"
           style="fill:none;stroke:#00ffff;stroke-width:0.99999994px;stroke-linecap:butt;stroke-linejoin:miter;stroke-opacity:1" />
        <path
           style="fill:none;stroke:#00ffff;stroke-width:0.99999994px;stroke-linecap:butt;stroke-linejoin:miter;stroke-opacity:1"
           d="m 1824.3987,116.24292 -362.0968,0"
           id="path3727"
           inkscape:connector-curvature="0" />
        <path
           inkscape:connector-curvature="0"
           id="path3731"
           d="m 1557.2858,1106.5179 0,-452.92873"
           style="fill:none;stroke:#00ffff;stroke-width:0.99999994px;stroke-linecap:butt;stroke-linejoin:miter;stroke-opacity:1" />
        <path
           inkscape:connector-curvature="0"
           id="path3733"
           d="m 1646.9525,1106.5179 0,-452.92873"
           style="fill:none;stroke:#00ffff;stroke-width:0.99999994px;stroke-linecap:butt;stroke-linejoin:miter;stroke-opacity:1" />
        <path
           style="fill:none;stroke:#00ffff;stroke-width:0.99999994px;stroke-linecap:butt;stroke-linejoin:miter;stroke-opacity:1"
           d="m 1736.6191,1106.5179 0,-452.92873"
           id="path3735"
           inkscape:connector-curvature="0" />
        <path
           style="fill:none;stroke:#00ffff;stroke-width:0.99999994px;stroke-linecap:butt;stroke-linejoin:miter;stroke-opacity:1"
           d="m 1824.3987,1015.2842 -361.8487,0"
           id="path3745"
           inkscape:connector-curvature="0" />
        <path
           inkscape:connector-curvature="0"
           id="path3747"
           d="m 1822.8042,925.61756 -360.2542,0"
           style="fill:none;stroke:#00ffff;stroke-width:0.99999994px;stroke-linecap:butt;stroke-linejoin:miter;stroke-opacity:1" />
        <path
           style="fill:none;stroke:#00ffff;stroke-width:0.99999988px;stroke-linecap:butt;stroke-linejoin:miter;stroke-opacity:1"
           d="m 1818.0208,835.95091 -355.4708,0"
           id="path3749"
           inkscape:connector-curvature="0" />
        <path
           inkscape:connector-curvature="0"
           id="path3751"
           d="m 1824.3987,746.28422 -361.8487,0"
           style="fill:none;stroke:#00ffff;stroke-width:0.99999994px;stroke-linecap:butt;stroke-linejoin:miter;stroke-opacity:1" />
      </g>
    </g>
    <g
       id="g5018"
       transform="translate(-965.01989,-1367.8237)">
      <path
         inkscape:connector-curvature="0"
         id="polygon24"
         transform="translate(0,-2.466067e-5)"
         d="m 1009.3125,304.5 0,108 -10.59375,0 0,108 10.59375,0 0,72 -10.59375,0 0,72 10.59375,0 0,72 -10.59375,0 0,72 10.59375,0 0,72 -10.59375,0 0,72 10.59375,0 0,72 -10.59375,0 0,72 10.59375,0 0,72 -10.59375,0 0,108 10.59375,0 0,108 61.4063,0 0,-0.062 72,0 0,0.062 72,0 0,-0.062 72,0 0,0.062 61.375,0 0,-108 10.625,0 0,-108 -10.625,0 0,-72 10.625,0 0,-72 -10.625,0 0,-72 10.625,0 0,-72 -10.625,0 0,-72 10.625,0 0,-72 -10.625,0 0,-72 10.625,0 0,-72 -10.625,0 0,-72 10.625,0 0,-108 -10.625,0 0,-108 -61.375,0 0,10.625 -72,0 0,-10.625 -72,0 0,10.625 -72,0 0,-10.625 -61.4063,0 z"
         style="fill:none;stroke:#000000;stroke-width:0.89999992" />
      <g
         transform="translate(-463.79312,275.92517)"
         id="g3839">
        <path
           inkscape:connector-curvature="0"
           id="path3841"
           d="m 1557.2858,741.75803 0,-719.007998"
           style="fill:none;stroke:#00ffff;stroke-width:0.99999994px;stroke-linecap:butt;stroke-linejoin:miter;stroke-opacity:1" />
        <path
           inkscape:connector-curvature="0"
           id="path3843"
           d="m 1646.9525,741.75803 0,-719.007998"
           style="fill:none;stroke:#00ffff;stroke-width:0.99999994px;stroke-linecap:butt;stroke-linejoin:miter;stroke-opacity:1" />
        <path
           style="fill:none;stroke:#00ffff;stroke-width:0.99999994px;stroke-linecap:butt;stroke-linejoin:miter;stroke-opacity:1"
           d="m 1736.6191,741.75803 0,-719.007998"
           id="path3845"
           inkscape:connector-curvature="0" />
        <path
           style="fill:none;stroke:#00ffff;stroke-width:0.99999994px;stroke-linecap:butt;stroke-linejoin:miter;stroke-opacity:1"
           d="m 1821.2098,653.44513 -358.6597,0"
           id="path3847"
           inkscape:connector-curvature="0" />
        <path
           style="fill:none;stroke:#00ffff;stroke-width:0.99999994px;stroke-linecap:butt;stroke-linejoin:miter;stroke-opacity:1"
           d="m 1822.8043,563.77847 -360.2542,0"
           id="path3849"
           inkscape:connector-curvature="0" />
        <path
           inkscape:connector-curvature="0"
           id="path3851"
           d="m 1819.6154,474.11179 -357.0653,0"
           style="fill:none;stroke:#00ffff;stroke-width:0.99999994px;stroke-linecap:butt;stroke-linejoin:miter;stroke-opacity:1" />
        <path
           style="fill:none;stroke:#00ffff;stroke-width:0.99999994px;stroke-linecap:butt;stroke-linejoin:miter;stroke-opacity:1"
           d="m 1824.3988,384.44513 -361.8487,0"
           id="path3853"
           inkscape:connector-curvature="0" />
        <path
           inkscape:connector-curvature="0"
           id="path3855"
           d="m 1824.3988,294.77847 -361.8487,0"
           style="fill:none;stroke:#00ffff;stroke-width:0.99999994px;stroke-linecap:butt;stroke-linejoin:miter;stroke-opacity:1" />
        <path
           style="fill:none;stroke:#00ffff;stroke-width:0.99999994px;stroke-linecap:butt;stroke-linejoin:miter;stroke-opacity:1"
           d="m 1827.5877,205.11182 -365.0376,0"
           id="path3857"
           inkscape:connector-curvature="0" />
        <path
           inkscape:connector-curvature="0"
           id="path3859"
           d="m 1824.3987,116.24292 -362.0968,0"
           style="fill:none;stroke:#00ffff;stroke-width:0.99999994px;stroke-linecap:butt;stroke-linejoin:miter;stroke-opacity:1" />
        <path
           style="fill:none;stroke:#00ffff;stroke-width:0.99999994px;stroke-linecap:butt;stroke-linejoin:miter;stroke-opacity:1"
           d="m 1557.2858,1106.5179 0,-452.92873"
           id="path3861"
           inkscape:connector-curvature="0" />
        <path
           style="fill:none;stroke:#00ffff;stroke-width:0.99999994px;stroke-linecap:butt;stroke-linejoin:miter;stroke-opacity:1"
           d="m 1646.9525,1106.5179 0,-452.92873"
           id="path3863"
           inkscape:connector-curvature="0" />
        <path
           inkscape:connector-curvature="0"
           id="path3865"
           d="m 1736.6191,1106.5179 0,-452.92873"
           style="fill:none;stroke:#00ffff;stroke-width:0.99999994px;stroke-linecap:butt;stroke-linejoin:miter;stroke-opacity:1" />
        <path
           inkscape:connector-curvature="0"
           id="path3867"
           d="m 1824.3987,1015.2842 -361.8487,0"
           style="fill:none;stroke:#00ffff;stroke-width:0.99999994px;stroke-linecap:butt;stroke-linejoin:miter;stroke-opacity:1" />
        <path
           style="fill:none;stroke:#00ffff;stroke-width:0.99999994px;stroke-linecap:butt;stroke-linejoin:miter;stroke-opacity:1"
           d="m 1822.8042,925.61756 -360.2542,0"
           id="path3869"
           inkscape:connector-curvature="0" />
        <path
           inkscape:connector-curvature="0"
           id="path3871"
           d="m 1818.0208,835.95091 -355.4708,0"
           style="fill:none;stroke:#00ffff;stroke-width:0.99999988px;stroke-linecap:butt;stroke-linejoin:miter;stroke-opacity:1" />
        <path
           style="fill:none;stroke:#00ffff;stroke-width:0.99999994px;stroke-linecap:butt;stroke-linejoin:miter;stroke-opacity:1"
           d="m 1824.3987,746.28422 -361.8487,0"
           id="path3873"
           inkscape:connector-curvature="0" />
      </g>
    </g>
    <g
       transform="translate(-272.68043,-1431.7579)"
       id="g3725">
      <g
         transform="translate(316.25186,1483.9187)"
         id="g8">
        <polygon
           style="fill:none;stroke:#000000;stroke-width:0.89999998"
           points="709.38,576 720,576 720,720 576,720 576,709.38 432,709.38 432,720 288,720 288,709.38 144,709.38 144,720 0,720 0,576 10.62,576 10.62,432 0,432 0,288 10.62,288 10.62,144 0,144 0,0 144,0 144,10.62 288,10.62 288,0 432,0 432,10.62 576,10.62 576,0 720,0 720,144 709.38,144 709.38,288 720,288 720,432 709.38,432 "
           id="polygon10-4" />
      </g>
      <g
         id="g3102"
         transform="translate(297.75186,1461.4187)">
        <g
           id="g3104"
           transform="translate(4.23171,0)">
          <path
             inkscape:connector-curvature="0"
             id="path3106"
             d="m 109.26829,739.8129 0,-719.008"
             style="fill:none;stroke:#00ffff;stroke-width:0.99999994px;stroke-linecap:butt;stroke-linejoin:miter;stroke-opacity:1" />
          <path
             inkscape:connector-curvature="0"
             id="path3108"
             d="m 198.93495,739.8129 0,-719.008"
             style="fill:none;stroke:#00ffff;stroke-width:0.99999994px;stroke-linecap:butt;stroke-linejoin:miter;stroke-opacity:1" />
          <path
             style="fill:none;stroke:#00ffff;stroke-width:0.99999994px;stroke-linecap:butt;stroke-linejoin:miter;stroke-opacity:1"
             d="m 288.60163,739.8129 0,-719.008"
             id="path3110"
             inkscape:connector-curvature="0" />
          <path
             inkscape:connector-curvature="0"
             id="path3112"
             d="m 378.26829,739.8129 0,-719.008"
             style="fill:none;stroke:#00ffff;stroke-width:0.99999994px;stroke-linecap:butt;stroke-linejoin:miter;stroke-opacity:1" />
          <path
             style="fill:none;stroke:#00ffff;stroke-width:0.99999994px;stroke-linecap:butt;stroke-linejoin:miter;stroke-opacity:1"
             d="m 467.93495,739.8129 0,-719.008"
             id="path3114"
             inkscape:connector-curvature="0" />
          <path
             inkscape:connector-curvature="0"
             id="path3116"
             d="m 557.6016,739.8129 0,-719.008"
             style="fill:none;stroke:#00ffff;stroke-width:0.99999994px;stroke-linecap:butt;stroke-linejoin:miter;stroke-opacity:1" />
          <path
             style="fill:none;stroke:#00ffff;stroke-width:0.99999994px;stroke-linecap:butt;stroke-linejoin:miter;stroke-opacity:1"
             d="m 647.26829,739.8129 0,-719.008"
             id="path3118"
             inkscape:connector-curvature="0" />
        </g>
        <g
           id="g3120"
           transform="matrix(0,-1,1,0,-2.04061,760.76829)">
          <path
             style="fill:none;stroke:#00ffff;stroke-width:0.99999994px;stroke-linecap:butt;stroke-linejoin:miter;stroke-opacity:1"
             d="m 109.26829,739.8129 0,-719.008"
             id="path3122"
             inkscape:connector-curvature="0" />
          <path
             style="fill:none;stroke:#00ffff;stroke-width:0.99999994px;stroke-linecap:butt;stroke-linejoin:miter;stroke-opacity:1"
             d="m 198.93495,739.8129 0,-719.008"
             id="path3124"
             inkscape:connector-curvature="0" />
          <path
             inkscape:connector-curvature="0"
             id="path3126"
             d="m 288.60163,739.8129 0,-719.008"
             style="fill:none;stroke:#00ffff;stroke-width:0.99999994px;stroke-linecap:butt;stroke-linejoin:miter;stroke-opacity:1" />
          <path
             style="fill:none;stroke:#00ffff;stroke-width:0.99999994px;stroke-linecap:butt;stroke-linejoin:miter;stroke-opacity:1"
             d="m 378.26829,739.8129 0,-719.008"
             id="path3128"
             inkscape:connector-curvature="0" />
          <path
             inkscape:connector-curvature="0"
             id="path3130"
             d="m 467.93495,739.8129 0,-719.008"
             style="fill:none;stroke:#00ffff;stroke-width:0.99999994px;stroke-linecap:butt;stroke-linejoin:miter;stroke-opacity:1" />
          <path
             style="fill:none;stroke:#00ffff;stroke-width:0.99999994px;stroke-linecap:butt;stroke-linejoin:miter;stroke-opacity:1"
             d="m 557.6016,739.8129 0,-719.008"
             id="path3132"
             inkscape:connector-curvature="0" />
          <path
             inkscape:connector-curvature="0"
             id="path3134"
             d="m 647.26829,739.8129 0,-719.008"
             style="fill:none;stroke:#00ffff;stroke-width:0.99999994px;stroke-linecap:butt;stroke-linejoin:miter;stroke-opacity:1" />
        </g>
      </g>
    </g>
  </g>
</svg>
