<?xml version="1.0" encoding="UTF-8" standalone="no"?>
<!-- Created with Inkscape (http://www.inkscape.org/) -->

<svg
   xmlns:dc="http://purl.org/dc/elements/1.1/"
   xmlns:cc="http://creativecommons.org/ns#"
   xmlns:rdf="http://www.w3.org/1999/02/22-rdf-syntax-ns#"
   xmlns:svg="http://www.w3.org/2000/svg"
   xmlns="http://www.w3.org/2000/svg"
   xmlns:sodipodi="http://sodipodi.sourceforge.net/DTD/sodipodi-0.dtd"
   xmlns:inkscape="http://www.inkscape.org/namespaces/inkscape"
   width="1080"
   height="1080"
   id="svg3061"
   version="1.1"
   inkscape:version="0.48.5 r10040"
   sodipodi:docname="chess_set.svg">
  <defs
     id="defs3063" />
  <sodipodi:namedview
     id="base"
     pagecolor="#ffffff"
     bordercolor="#666666"
     borderopacity="1.0"
     inkscape:pageopacity="0.0"
     inkscape:pageshadow="2"
     inkscape:zoom="1"
     inkscape:cx="581.93088"
     inkscape:cy="682.07051"
     inkscape:document-units="px"
     inkscape:current-layer="layer1"
     showgrid="false"
     inkscape:window-width="2001"
     inkscape:window-height="1214"
     inkscape:window-x="250"
     inkscape:window-y="102"
     inkscape:window-maximized="0"
     showguides="true"
     inkscape:guide-bbox="true"
     units="in" />
  <metadata
     id="metadata3066">
    <rdf:RDF>
      <cc:Work
         rdf:about="">
        <dc:format>image/svg+xml</dc:format>
        <dc:type
           rdf:resource="http://purl.org/dc/dcmitype/StillImage" />
        <dc:title />
      </cc:Work>
    </rdf:RDF>
  </metadata>
  <g
     inkscape:label="Layer 1"
     inkscape:groupmode="layer"
     id="layer1"
     transform="translate(0,27.64025)">
    <path
       style="fill:#008080;fill-opacity:1;fill-rule:evenodd;stroke-width:0.01250000000000000;stroke-miterlimit:4;stroke-dasharray:none;stroke:#000000;stroke-opacity:1"
       d="m 154.24629,290.70808 0,21.96875 -9.875,0 0,28.78125 9.875,0 0,117.8125 -9.875,0 0,28.78125 9.875,0 0,68.78125 -13.96875,0 0,22.5 89.99997,0 0,-22.5 -13.93747,0 0,-68.78125 9.875,0 0,-28.78125 -9.875,0 0,-117.8125 9.875,0 0,-28.78125 -9.875,0 0,-21.96875 -62.09375,0 z"
       id="rect3033"
       inkscape:connector-curvature="0" />
    <path
       style="fill:#008080;stroke-width:0.01250000000000000;stroke-miterlimit:4;stroke-dasharray:none;stroke:#000000;stroke-opacity:1"
       d="m 516.74338,-18.510465 0,97.781248 -10.8125,0 0,-97.749998 -35.84375,0.46875 0.625,40.40625 c -0.0834,11.215237 -0.11564,20.661187 -0.125,31.031247 l -12.15625,-1.0625 -24.375,292.624998 18.28125,1.09375 18.21875,-220.09375 c -0.005,13.43306 -0.006,23.88885 -0.0312,42.96875 4.84624,-0.14252 9.47282,-0.25957 13.96875,-0.34375 l -0.53125,251.75 -18.65625,0.0312 c -0.44616,11.66004 -0.5625,22.3125 -0.5625,22.3125 l 90,-0.1875 c 0,0 -0.20479,-12.82409 -0.40625,-22.3125 l -14,0.0312 -0.53125,-251.84375 c 8.57436,-0.0433 13.44497,-0.25891 13.84375,-1.09375 -0.36805,-23.97886 -0.44453,-35.01683 -0.5,-48.53125 l 18.8125,227.3125 18.28125,-1.09375 -24.375,-292.624998 -12.75,1.125 1.09375,-71.499997 -1.65625,-0.0312 c -7.2e-4,-0.12027 7.2e-4,-0.19201 0,-0.3125 l -15.875,0.125 -19.9375,-0.28125 z m 1.8125,186.874995 c 0.87452,0.001 1.56102,-0.002 2.40625,0 l 0,251.90625 -17.625,0.0312 0,-251.90625 c 5.44237,-0.0321 10.56792,-0.0392 15.21875,-0.0312 z"
       id="path3263"
       inkscape:connector-curvature="0" />
    <path
       style="fill:#008080;stroke-width:0.01250000000000000;stroke-miterlimit:4;stroke-dasharray:none;stroke:#000000;stroke-opacity:1"
       d="m 349.14172,362.28328 0,73.1875 0,9.15625 16.28125,0 c -0.001,20.19543 0.0154,46.82325 -0.0312,104.96875 7.219,-0.35384 13.76561,-0.50223 19.625,-0.5625 l 0,-88.375 10.8125,0 0,88.34375 c 11.95491,0.0446 19.06052,0.2216 19.4375,-1.09375 -0.4036,-43.82444 -0.29785,-50.51585 -0.40625,-103.28125 l 16.625,0 0,-9.75 0.0312,0 c 0,0 -0.0287,-5.51112 -0.0312,-6.0625 l 0,-66.53125 -0.34375,0 -16.53125,0 -65.46875,0 z"
       id="path3284"
       inkscape:connector-curvature="0" />
    <path
       style="fill:#008080;stroke-width:0.01250000000000000;stroke-miterlimit:4;stroke-dasharray:none;stroke:#000000;stroke-opacity:1"
       d="m 241.63728,287.97916 0,82.375 21.2188,0 0,121.5625 -40.1563,0 0,61.78125 41.1563,0 0,-45.46875 39.1562,0 0,45.46875 41.1563,0 0,-61.78125 -40.1563,0 0,-121.5625 19.9688,0 0,-82.375 -82.3438,0 z m 35.9688,22.53125 10.7812,0 0,28.78125 -10.7812,0 0,-28.78125 z m 0,146.59375 10.7812,0 0,28.78125 -10.7812,0 0,-28.78125 z"
       id="path3016"
       inkscape:connector-curvature="0" />
    <path
       inkscape:connector-curvature="0"
       id="path3060"
       d="m 46.537906,288.08815 0,82.375 21.21875,0 0,121.5625 -40.15625,0 0,61.78125 41.15625,0 0,-45.46875 39.156264,0 0,45.46875 41.15625,0 0,-61.78125 -40.15625,0 0,-121.5625 19.96875,0 0,-82.375 -82.343764,0 z m 35.96875,22.53125 10.78125,0 0,28.78125 -10.78125,0 0,-28.78125 z m 0,146.59375 10.78125,0 0,28.78125 -10.78125,0 0,-28.78125 z"
       style="fill:#008080;stroke-width:0.01250000000000000;stroke-miterlimit:4;stroke-dasharray:none;stroke:#000000;stroke-opacity:1" />
    <path
       style="fill:#008080;fill-opacity:1;fill-rule:evenodd;stroke-width:0.01250000000000000;stroke-miterlimit:4;stroke-dasharray:none;stroke:#000000;stroke-opacity:1"
       d="m 73.183432,-19.130077 0,80.593758 -62.125003,0 0,41.156259 82.687503,0 0,145.46875 41.187498,0 0,-184.843759 20.59375,0 0,-82.375008 -82.343748,0 z"
       id="rect3069"
       inkscape:connector-curvature="0" />
    <path
       style="fill:#008080;fill-opacity:1;fill-rule:evenodd;stroke-width:0.01250000000000000;stroke-miterlimit:4;stroke-dasharray:none;stroke:#000000;stroke-opacity:1"
       d="m 194.82026,-12.092789 0,81.687502 -52.21875,0 0,41.187497 41.0625,0 0,40.40625 0,25.59375 0,77.25 -3.71875,0 0,22.5 90,0 0,-22.5 -4.25,0 0,-68.78125 0.1875,0 0,-28.78125 -0.15625,0 0,-45.6875 41.59375,0 0,-41.187497 -53.4375,0 0,-81.687502 -59.0625,0 z"
       id="path3088"
       inkscape:connector-curvature="0" />
    <path
       inkscape:connector-curvature="0"
       id="path3105"
       d="m 373.99444,-19.039146 0,80.593759 62.125,0 0,41.156247 -82.6875,0 0,145.46875 -41.1875,0 0,-184.843747 -20.59375,0 0,-82.375009 82.34375,0 z"
       style="fill:#008080;fill-opacity:1;fill-rule:evenodd;stroke-width:0.01250000000000000;stroke-miterlimit:4;stroke-dasharray:none;stroke:#000000;stroke-opacity:1" />
    <path
       style="fill:#008080;fill-opacity:1;fill-rule:evenodd;stroke-width:0.01250000000000000;stroke-miterlimit:4;stroke-dasharray:none;stroke:#000000;stroke-opacity:1"
       d="m 714.37537,-8.2219674 0,81.9687504 -39.4063,0 0,123.531247 39.3125,0 0,122.37502 36.5,0 0,-163.59377 10.7813,0 0,163.59377 34.75,0 0.031,-122.37502 41.0312,0 0,-123.531247 -40.6562,0 c -0.014,-27.75749 -0.031,-81.9687504 -0.031,-81.9687504 l -82.3125,0 z"
       id="path3109"
       inkscape:connector-curvature="0" />
    <path
       style="fill:#008080;fill-opacity:1;fill-rule:evenodd;stroke-width:0.01250000000000000;stroke-miterlimit:4;stroke-dasharray:none;stroke:#000000;stroke-opacity:1"
       d="m 605.81077,-14.835877 0,80.59375 c 0.065,0.80242 0.1223,1.53316 0.1875,2.3125 l 20.1875,0 0,39.093747 c 0.062,-0.0785 0.1255,-0.17399 0.1875,-0.25 l 0,68.53125 0,76.9375 0,58.68748 -24.375,0 0,22.5 90,0 0,-22.5 -24.4375,0 0,-58.68748 0,-76.9375 0,-107.906247 20.5938,0 0,-82.375 -35.75,0 0,163.593747 -10.8125,0 0,-163.593747 -35.7813,0 z"
       id="path3107"
       inkscape:connector-curvature="0" />
    <path
       style="fill:#008080;fill-opacity:1;fill-rule:evenodd;stroke-width:0.01250000000000000;stroke-miterlimit:4;stroke-dasharray:none;stroke:#000000;stroke-opacity:1"
       d="m 82.438975,728.72367 c -37.279219,0 -67.499999,30.22078 -67.499999,67.5 0,37.27922 30.22078,67.5 67.499999,67.5 37.279235,0 67.500015,-30.22078 67.500015,-67.5 0,-37.27922 -30.22078,-67.5 -67.500015,-67.5 z m -44.999999,62.09375 90.000014,0 0,10.8125 -90.000014,0 0,-10.8125 z"
       id="path3143"
       inkscape:connector-curvature="0" />
    <path
       transform="matrix(0.95896549,0,0,0.91480264,-480.37133,317.34808)"
       d="m 657.28154,684.401 c 0,40.75111 -31.51394,73.78641 -70.38835,73.78641 -38.87441,0 -70.38835,-33.0353 -70.38835,-73.78641 0,-40.75111 31.51394,-73.78641 70.38835,-73.78641 38.87441,0 70.38835,33.0353 70.38835,73.78641 z"
       sodipodi:ry="73.786407"
       sodipodi:rx="70.388351"
       sodipodi:cy="684.401"
       sodipodi:cx="586.89319"
       id="path3147"
       style="fill:#008080;fill-opacity:1;fill-rule:evenodd;stroke-width:0.01334581000000000;stroke-miterlimit:4;stroke-dasharray:none;stroke:#000000;stroke-opacity:1"
       sodipodi:type="arc" />
    <path
       inkscape:connector-curvature="0"
       id="path3150"
       d="m 223.91306,728.72367 c -37.27922,0 -67.5,30.22078 -67.5,67.5 0,37.27922 30.22078,67.5 67.5,67.5 37.27924,0 67.50004,-30.22078 67.50004,-67.5 0,-37.27922 -30.2208,-67.5 -67.50004,-67.5 z m -45,62.09375 90.00004,0 0,10.8125 -90.00004,0 0,-10.8125 z"
       style="fill:#008080;fill-opacity:1;fill-rule:evenodd;stroke-width:0.01250000000000000;stroke-miterlimit:4;stroke-dasharray:none;stroke:#000000;stroke-opacity:1" />
    <path
       style="fill:#008080;fill-opacity:1;fill-rule:evenodd;stroke-width:0.01250000000000000;stroke-miterlimit:4;stroke-dasharray:none;stroke:#000000;stroke-opacity:1"
       d="m 223.91308,586.27086 c -37.27922,0 -67.5,30.22078 -67.5,67.5 0,37.27922 30.22078,67.5 67.5,67.5 37.27921,0 67.50001,-30.22078 67.50001,-67.5 0,-37.27922 -30.2208,-67.5 -67.50001,-67.5 z m -45,62.09375 90.00001,0 0,10.8125 -90.00001,0 0,-10.8125 z"
       id="path3152"
       inkscape:connector-curvature="0" />
    <path
       inkscape:connector-curvature="0"
       id="path3154"
       d="m 82.438975,586.27086 c -37.279223,0 -67.500003,30.22078 -67.500003,67.5 0,37.27922 30.22078,67.5 67.500003,67.5 37.279215,0 67.500015,-30.22078 67.500015,-67.5 0,-37.27922 -30.2208,-67.5 -67.500015,-67.5 z m -45.000003,62.09375 90.000018,0 0,10.8125 -90.000018,0 0,-10.8125 z"
       style="fill:#008080;fill-opacity:1;fill-rule:evenodd;stroke-width:0.01250000000000000;stroke-miterlimit:4;stroke-dasharray:none;stroke:#000000;stroke-opacity:1" />
    <path
       sodipodi:type="arc"
       style="fill:#008080;fill-opacity:1;fill-rule:evenodd;stroke-width:0.01334581000000000;stroke-miterlimit:4;stroke-dasharray:none;stroke:#000000;stroke-opacity:1"
       id="path3156"
       sodipodi:cx="586.89319"
       sodipodi:cy="684.401"
       sodipodi:rx="70.388351"
       sodipodi:ry="73.786407"
       d="m 657.28154,684.401 c 0,40.75111 -31.51394,73.78641 -70.38835,73.78641 -38.87441,0 -70.38835,-33.0353 -70.38835,-73.78641 0,-40.75111 31.51394,-73.78641 70.38835,-73.78641 38.87441,0 70.38835,33.0353 70.38835,73.78641 z"
       transform="matrix(0.95896549,0,0,0.91480264,-338.89723,317.34808)" />
    <path
       transform="matrix(0.95896549,0,0,0.91480264,89.139535,27.679021)"
       d="m 657.28154,684.401 c 0,40.75111 -31.51394,73.78641 -70.38835,73.78641 -38.87441,0 -70.38835,-33.0353 -70.38835,-73.78641 0,-40.75111 31.51394,-73.78641 70.38835,-73.78641 38.87441,0 70.38835,33.0353 70.38835,73.78641 z"
       sodipodi:ry="73.786407"
       sodipodi:rx="70.388351"
       sodipodi:cy="684.401"
       sodipodi:cx="586.89319"
       id="path3158"
       style="fill:#008080;fill-opacity:1;fill-rule:evenodd;stroke-width:0.01334581000000000;stroke-miterlimit:4;stroke-dasharray:none;stroke:#000000;stroke-opacity:1"
       sodipodi:type="arc" />
    <path
       sodipodi:type="arc"
       style="fill:#008080;fill-opacity:1;fill-rule:evenodd;stroke-width:0.01334581000000000;stroke-miterlimit:4;stroke-dasharray:none;stroke:#000000;stroke-opacity:1"
       id="path3160"
       sodipodi:cx="586.89319"
       sodipodi:cy="684.401"
       sodipodi:rx="70.388351"
       sodipodi:ry="73.786407"
       d="m 657.28154,684.401 c 0,40.75111 -31.51394,73.78641 -70.38835,73.78641 -38.87441,0 -70.38835,-33.0353 -70.38835,-73.78641 0,-40.75111 31.51394,-73.78641 70.38835,-73.78641 38.87441,0 70.38835,33.0353 70.38835,73.78641 z"
       transform="matrix(0.95896549,0,0,0.91480264,229.38088,27.679021)" />
    <path
       sodipodi:type="arc"
       style="fill:#008080;fill-opacity:1;fill-rule:evenodd;stroke-width:0.01334581000000000;stroke-miterlimit:4;stroke-dasharray:none;stroke:#000000;stroke-opacity:1"
       id="path3164"
       sodipodi:cx="586.89319"
       sodipodi:cy="684.401"
       sodipodi:rx="70.388351"
       sodipodi:ry="73.786407"
       d="m 657.28154,684.401 c 0,40.75111 -31.51394,73.78641 -70.38835,73.78641 -38.87441,0 -70.38835,-33.0353 -70.38835,-73.78641 0,-40.75111 31.51394,-73.78641 70.38835,-73.78641 38.87441,0 70.38835,33.0353 70.38835,73.78641 z"
       transform="matrix(0.95896549,0,0,0.91480264,89.139535,170.13183)" />
    <path
       transform="matrix(0.95896549,0,0,0.91480264,229.38088,170.13183)"
       d="m 657.28154,684.401 c 0,40.75111 -31.51394,73.78641 -70.38835,73.78641 -38.87441,0 -70.38835,-33.0353 -70.38835,-73.78641 0,-40.75111 31.51394,-73.78641 70.38835,-73.78641 38.87441,0 70.38835,33.0353 70.38835,73.78641 z"
       sodipodi:ry="73.786407"
       sodipodi:rx="70.388351"
       sodipodi:cy="684.401"
       sodipodi:cx="586.89319"
       id="path3166"
       style="fill:#008080;fill-opacity:1;fill-rule:evenodd;stroke-width:0.01334581000000000;stroke-miterlimit:4;stroke-dasharray:none;stroke:#000000;stroke-opacity:1"
       sodipodi:type="arc" />
    <path
       sodipodi:type="arc"
       style="fill:#008080;fill-opacity:1;fill-rule:evenodd;stroke-width:0.01334581000000000;stroke-miterlimit:4;stroke-dasharray:none;stroke:#000000;stroke-opacity:1"
       id="path3168"
       sodipodi:cx="586.89319"
       sodipodi:cy="684.401"
       sodipodi:rx="70.388351"
       sodipodi:ry="73.786407"
       d="m 657.28154,684.401 c 0,40.75111 -31.51394,73.78641 -70.38835,73.78641 -38.87441,0 -70.38835,-33.0353 -70.38835,-73.78641 0,-40.75111 31.51394,-73.78641 70.38835,-73.78641 38.87441,0 70.38835,33.0353 70.38835,73.78641 z"
       transform="matrix(0.95896549,0,0,0.91480264,89.139535,317.34808)" />
    <path
       transform="matrix(0.95896549,0,0,0.91480264,229.38088,317.34808)"
       d="m 657.28154,684.401 c 0,40.75111 -31.51394,73.78641 -70.38835,73.78641 -38.87441,0 -70.38835,-33.0353 -70.38835,-73.78641 0,-40.75111 31.51394,-73.78641 70.38835,-73.78641 38.87441,0 70.38835,33.0353 70.38835,73.78641 z"
       sodipodi:ry="73.786407"
       sodipodi:rx="70.388351"
       sodipodi:cy="684.401"
       sodipodi:cx="586.89319"
       id="path3170"
       style="fill:#008080;fill-opacity:1;fill-rule:evenodd;stroke-width:0.01334581000000000;stroke-miterlimit:4;stroke-dasharray:none;stroke:#000000;stroke-opacity:1"
       sodipodi:type="arc" />
    <path
       sodipodi:type="arc"
       style="fill:#008080;fill-opacity:1;fill-rule:evenodd;stroke-width:0.01334581000000000;stroke-miterlimit:4;stroke-dasharray:none;stroke:#000000;stroke-opacity:1"
       id="path3174"
       sodipodi:cx="586.89319"
       sodipodi:cy="684.401"
       sodipodi:rx="70.388351"
       sodipodi:ry="73.786407"
       d="m 657.28154,684.401 c 0,40.75111 -31.51394,73.78641 -70.38835,73.78641 -38.87441,0 -70.38835,-33.0353 -70.38835,-73.78641 0,-40.75111 31.51394,-73.78641 70.38835,-73.78641 38.87441,0 70.38835,33.0353 70.38835,73.78641 z"
       transform="matrix(0.95896549,0,0,0.91480264,-193.85053,27.679021)" />
    <path
       transform="matrix(0.95896549,0,0,0.91480264,-53.567343,27.679021)"
       d="m 657.28154,684.401 c 0,40.75111 -31.51394,73.78641 -70.38835,73.78641 -38.87441,0 -70.38835,-33.0353 -70.38835,-73.78641 0,-40.75111 31.51394,-73.78641 70.38835,-73.78641 38.87441,0 70.38835,33.0353 70.38835,73.78641 z"
       sodipodi:ry="73.786407"
       sodipodi:rx="70.388351"
       sodipodi:cy="684.401"
       sodipodi:cx="586.89319"
       id="path3176"
       style="fill:#008080;fill-opacity:1;fill-rule:evenodd;stroke-width:0.01334581000000000;stroke-miterlimit:4;stroke-dasharray:none;stroke:#000000;stroke-opacity:1"
       sodipodi:type="arc" />
    <path
       transform="matrix(0.95896549,0,0,0.91480264,-193.85053,170.13183)"
       d="m 657.28154,684.401 c 0,40.75111 -31.51394,73.78641 -70.38835,73.78641 -38.87441,0 -70.38835,-33.0353 -70.38835,-73.78641 0,-40.75111 31.51394,-73.78641 70.38835,-73.78641 38.87441,0 70.38835,33.0353 70.38835,73.78641 z"
       sodipodi:ry="73.786407"
       sodipodi:rx="70.388351"
       sodipodi:cy="684.401"
       sodipodi:cx="586.89319"
       id="path3180"
       style="fill:#008080;fill-opacity:1;fill-rule:evenodd;stroke-width:0.01334581000000000;stroke-miterlimit:4;stroke-dasharray:none;stroke:#000000;stroke-opacity:1"
       sodipodi:type="arc" />
    <path
       sodipodi:type="arc"
       style="fill:#008080;fill-opacity:1;fill-rule:evenodd;stroke-width:0.01334581000000000;stroke-miterlimit:4;stroke-dasharray:none;stroke:#000000;stroke-opacity:1"
       id="path3182"
       sodipodi:cx="586.89319"
       sodipodi:cy="684.401"
       sodipodi:rx="70.388351"
       sodipodi:ry="73.786407"
       d="m 657.28154,684.401 c 0,40.75111 -31.51394,73.78641 -70.38835,73.78641 -38.87441,0 -70.38835,-33.0353 -70.38835,-73.78641 0,-40.75111 31.51394,-73.78641 70.38835,-73.78641 38.87441,0 70.38835,33.0353 70.38835,73.78641 z"
       transform="matrix(0.95896549,0,0,0.91480264,-53.567343,170.13183)" />
    <path
       transform="matrix(0.95896549,0,0,0.91480264,-193.85053,317.34808)"
       d="m 657.28154,684.401 c 0,40.75111 -31.51394,73.78641 -70.38835,73.78641 -38.87441,0 -70.38835,-33.0353 -70.38835,-73.78641 0,-40.75111 31.51394,-73.78641 70.38835,-73.78641 38.87441,0 70.38835,33.0353 70.38835,73.78641 z"
       sodipodi:ry="73.786407"
       sodipodi:rx="70.388351"
       sodipodi:cy="684.401"
       sodipodi:cx="586.89319"
       id="path3184"
       style="fill:#008080;fill-opacity:1;fill-rule:evenodd;stroke-width:0.01334581000000000;stroke-miterlimit:4;stroke-dasharray:none;stroke:#000000;stroke-opacity:1"
       sodipodi:type="arc" />
    <path
       sodipodi:type="arc"
       style="fill:#008080;fill-opacity:1;fill-rule:evenodd;stroke-width:0.01334581000000000;stroke-miterlimit:4;stroke-dasharray:none;stroke:#000000;stroke-opacity:1"
       id="path3186"
       sodipodi:cx="586.89319"
       sodipodi:cy="684.401"
       sodipodi:rx="70.388351"
       sodipodi:ry="73.786407"
       d="m 657.28154,684.401 c 0,40.75111 -31.51394,73.78641 -70.38835,73.78641 -38.87441,0 -70.38835,-33.0353 -70.38835,-73.78641 0,-40.75111 31.51394,-73.78641 70.38835,-73.78641 38.87441,0 70.38835,33.0353 70.38835,73.78641 z"
       transform="matrix(0.95896549,0,0,0.91480264,-53.567343,317.34808)" />
    <path
       inkscape:connector-curvature="0"
       id="path3012"
       d="m 941.82952,-8.2219674 0,81.9687504 -39.4063,0 0,123.531247 39.3125,0 0,122.37502 36.5,0 0,-163.59377 10.7813,0 0,163.59377 34.74998,0 0.031,-122.37502 41.0312,0 0,-123.531247 -40.6562,0 c -0.014,-27.75749 -0.031,-81.9687504 -0.031,-81.9687504 l -82.31248,0 z"
       style="fill:#008080;fill-opacity:1;fill-rule:evenodd;stroke-width:0.01250000000000000;stroke-miterlimit:4;stroke-dasharray:none;stroke:#000000;stroke-opacity:1" />
    <path
       inkscape:connector-curvature="0"
       id="path3014"
       d="m 833.26492,-14.835877 0,80.59375 c 0.065,0.80242 0.1223,1.53316 0.1875,2.3125 l 20.1875,0 0,39.093747 c 0.062,-0.0785 0.1255,-0.17399 0.1875,-0.25 l 0,68.53125 0,76.9375 0,58.68748 -24.375,0 0,22.5 90,0 0,-22.5 -24.4375,0 0,-58.68748 0,-76.9375 0,-107.906247 20.5938,0 0,-82.375 -35.75,0 0,163.593747 -10.8125,0 0,-163.593747 -35.7813,0 z"
       style="fill:#008080;fill-opacity:1;fill-rule:evenodd;stroke-width:0.01250000000000000;stroke-miterlimit:4;stroke-dasharray:none;stroke:#000000;stroke-opacity:1" />
    <path
       inkscape:connector-curvature="0"
       id="path3017"
       d="m 595.92721,420.66896 97.78125,0 0,10.8125 -97.75,0 0.46875,35.84375 40.40625,-0.625 c 11.21524,0.0834 20.66119,0.11564 31.03125,0.125 l -1.0625,12.15625 292.625,24.375 1.09375,-18.28125 -220.09375,-18.21875 c 13.43306,0.005 23.88885,0.006 42.96875,0.0312 -0.14252,-4.84624 -0.25957,-9.47282 -0.34375,-13.96875 l 251.74999,0.53125 0.031,18.65625 c 11.6601,0.44616 22.3125,0.5625 22.3125,0.5625 l -0.1875,-90 c 0,0 -12.8241,0.20479 -22.3125,0.40625 l 0.031,14 -251.84374,0.53125 c -0.0433,-8.57436 -0.25891,-13.44497 -1.09375,-13.84375 -23.97886,0.36805 -35.01683,0.44453 -48.53125,0.5 l 227.3125,-18.8125 -1.09375,-18.28125 -292.625,24.375 1.125,12.75 -71.5,-1.09375 -0.0312,1.65625 c -0.12027,7.2e-4 -0.19201,-7.2e-4 -0.3125,0 l 0.125,15.875 -0.28125,19.9375 z m 186.875,-1.8125 c 0.001,-0.87452 -0.002,-1.56102 0,-2.40625 l 251.90629,0 0.031,17.625 -251.90629,0 c -0.0321,-5.44237 -0.0392,-10.56792 -0.0312,-15.21875 z"
       style="fill:#008080;stroke-width:0.01250000000000000;stroke-miterlimit:4;stroke-dasharray:none;stroke:#000000;stroke-opacity:1" />
    <path
       inkscape:connector-curvature="0"
       id="path3019"
       d="m 450.29383,563.81516 73.1875,0 9.15625,0 0,-16.28125 c 20.19543,10e-4 46.82325,-0.0154 104.96875,0.0312 -0.35384,-7.219 -0.50223,-13.76561 -0.5625,-19.625 l -88.375,0 0,-10.8125 88.34375,0 c 0.0446,-11.95491 0.2216,-19.06052 -1.09375,-19.4375 -43.82444,0.4036 -50.51585,0.29785 -103.28125,0.40625 l 0,-16.625 -9.75,0 0,-0.0312 c 0,0 -5.51112,0.0287 -6.0625,0.0312 l -66.53125,0 0,0.34375 0,16.53125 0,65.46875 z"
       style="fill:#008080;stroke-width:0.01250000000000000;stroke-miterlimit:4;stroke-dasharray:none;stroke:#000000;stroke-opacity:1" />
    <rect
       style="fill:#008080;fill-opacity:1;fill-rule:evenodd;stroke-width:0.01250000000000000;stroke-miterlimit:4;stroke-dasharray:none;stroke:#000000;stroke-opacity:1"
       id="rect3031"
       width="90"
       height="90"
       x="875.28168"
       y="544.36804" />
    <rect
       y="544.36804"
       x="977.69556"
       height="90"
       width="90"
       id="rect3034"
       style="fill:#008080;fill-opacity:1;fill-rule:evenodd;stroke-width:0.01250000000000000;stroke-miterlimit:4;stroke-dasharray:none;stroke:#000000;stroke-opacity:1" />
    <rect
       y="644.40021"
       x="872.89996"
       height="90"
       width="90"
       id="rect3036"
       style="fill:#008080;fill-opacity:1;fill-rule:evenodd;stroke-width:0.01250000000000000;stroke-miterlimit:4;stroke-dasharray:none;stroke:#000000;stroke-opacity:1" />
    <rect
       style="fill:#008080;fill-opacity:1;fill-rule:evenodd;stroke-width:0.01250000000000000;stroke-miterlimit:4;stroke-dasharray:none;stroke:#000000;stroke-opacity:1"
       id="rect3038"
       width="90"
       height="90"
       x="975.31384"
       y="644.40021" />
    <rect
       style="fill:#008080;fill-opacity:1;fill-rule:evenodd;stroke-width:0.01250000000000000;stroke-miterlimit:4;stroke-dasharray:none;stroke:#000000;stroke-opacity:1"
       id="rect3040"
       width="90"
       height="90"
       x="871.70911"
       y="743.24152" />
    <rect
       y="743.24152"
       x="974.12299"
       height="90"
       width="90"
       id="rect3042"
       style="fill:#008080;fill-opacity:1;fill-rule:evenodd;stroke-width:0.01250000000000000;stroke-miterlimit:4;stroke-dasharray:none;stroke:#000000;stroke-opacity:1" />
    <rect
       y="840.89197"
       x="870.51825"
       height="90"
       width="90"
       id="rect3044"
       style="fill:#008080;fill-opacity:1;fill-rule:evenodd;stroke-width:0.01250000000000000;stroke-miterlimit:4;stroke-dasharray:none;stroke:#000000;stroke-opacity:1" />
    <rect
       style="fill:#008080;fill-opacity:1;fill-rule:evenodd;stroke-width:0.01250000000000000;stroke-miterlimit:4;stroke-dasharray:none;stroke:#000000;stroke-opacity:1"
       id="rect3046"
       width="90"
       height="90"
       x="972.93213"
       y="840.89197" />
    <rect
       style="fill:#008080;fill-opacity:1;fill-rule:evenodd;stroke-width:0.01250000000000000;stroke-miterlimit:4;stroke-dasharray:none;stroke:#000000;stroke-opacity:1"
       id="rect3048"
       width="90"
       height="90"
       x="869.32739"
       y="939.73328" />
    <rect
       y="939.73328"
       x="971.74127"
       height="90"
       width="90"
       id="rect3050"
       style="fill:#008080;fill-opacity:1;fill-rule:evenodd;stroke-width:0.01250000000000000;stroke-miterlimit:4;stroke-dasharray:none;stroke:#000000;stroke-opacity:1" />
  </g>
</svg>
