<?xml version="1.0" encoding="UTF-8" standalone="no"?>
<!-- Created with Inkscape (http://www.inkscape.org/) -->

<svg
   xmlns:dc="http://purl.org/dc/elements/1.1/"
   xmlns:cc="http://creativecommons.org/ns#"
   xmlns:rdf="http://www.w3.org/1999/02/22-rdf-syntax-ns#"
   xmlns:svg="http://www.w3.org/2000/svg"
   xmlns="http://www.w3.org/2000/svg"
   xmlns:sodipodi="http://sodipodi.sourceforge.net/DTD/sodipodi-0.dtd"
   xmlns:inkscape="http://www.inkscape.org/namespaces/inkscape"
   width="1080"
   height="1080"
   id="svg3059"
   version="1.1"
   inkscape:version="0.48.5 r10040"
   sodipodi:docname="New document 1">
  <defs
     id="defs3061" />
  <sodipodi:namedview
     id="base"
     pagecolor="#ffffff"
     bordercolor="#666666"
     borderopacity="1.0"
     inkscape:pageopacity="0.0"
     inkscape:pageshadow="2"
     inkscape:zoom="0.59"
     inkscape:cx="307.20339"
     inkscape:cy="452.20339"
     inkscape:document-units="in"
     inkscape:current-layer="layer1"
     showgrid="false"
     units="in"
     inkscape:window-width="1666"
     inkscape:window-height="1165"
     inkscape:window-x="369"
     inkscape:window-y="141"
     inkscape:window-maximized="0" />
  <metadata
     id="metadata3064">
    <rdf:RDF>
      <cc:Work
         rdf:about="">
        <dc:format>image/svg+xml</dc:format>
        <dc:type
           rdf:resource="http://purl.org/dc/dcmitype/StillImage" />
        <dc:title></dc:title>
      </cc:Work>
    </rdf:RDF>
  </metadata>
  <g
     inkscape:label="Layer 1"
     inkscape:groupmode="layer"
     id="layer1"
     transform="translate(0,27.64025)">
    <path
       inkscape:connector-curvature="0"
       id="path3150"
       d="m 76.406794,698.90456 c -37.27922,0 -67.5000004,30.22078 -67.5000004,67.5 0,37.27922 30.2207804,67.50005 67.5000004,67.50005 37.279236,0 67.500026,-30.22083 67.500026,-67.50005 0,-37.27922 -30.22079,-67.5 -67.500026,-67.5 z m -45,62.09375 90.000036,0 0,10.8125 -90.000036,0 0,-10.8125 z"
       style="fill:none;stroke:#000000;stroke-width:0.44999999;stroke-miterlimit:4;stroke-opacity:1;stroke-dasharray:none" />
    <path
       style="fill:none;stroke:#000000;stroke-width:0.44999999;stroke-miterlimit:4;stroke-opacity:1;stroke-dasharray:none"
       d="m 283.52069,676.38491 c -37.27922,0 -67.5,30.22078 -67.5,67.5 0,37.27922 30.22078,67.5 67.5,67.5 37.27921,0 67.50001,-30.22078 67.50001,-67.5 0,-37.27922 -30.2208,-67.5 -67.50001,-67.5 z m -45,62.09375 90.00001,0 0,10.8125 -90.00001,0 0,-10.8125 z"
       id="path3152"
       inkscape:connector-curvature="0" />
    <g
       id="g3623"
       transform="matrix(0,-1,1,0,199.60311,289.87071)">
      <path
         style="fill:none;stroke:#000000;stroke-width:0.44999999;stroke-miterlimit:4;stroke-opacity:1;stroke-dasharray:none"
         d="m 219.09596,270.89861 0,-80.59385 -62.125,0 0,-41.15625 82.6875,0 0,-145.46876 41.1875,0 0,184.84376 20.5938,0 0,82.3751 -82.3438,0 z m 36.5938,-22.9688 11.375,0 0,-28.4063 -11.375,0 0,28.4063 z m 0,-146.46881 11.375,0 0,-28.40625 -11.375,0 0,28.40625 z"
         id="path3883"
         inkscape:connector-curvature="0" />
      <path
         inkscape:connector-curvature="0"
         id="path3885"
         d="m 13.867161,-8.50078 0,21.96875 -9.8749998,0 0,28.78125 9.8749998,0 0,117.8125 -9.8749998,0 0,28.78125 9.8749998,0 0,68.78134 -13.96869983,0 0,22.5 89.99989883,0 0,-22.5 -13.9374,0 0,-68.78134 9.875,0 0,-28.78125 -9.875,0 0,-117.8125 9.875,0 0,-28.78125 -9.875,0 0,-21.96875 -62.093799,0 z"
         style="fill:none;stroke:#000000;stroke-width:0.44999999;stroke-miterlimit:4;stroke-opacity:1;stroke-dasharray:none" />
      <path
         id="path3887"
         d="m 171.81506,-5.70296 0,80.59375 62.125,0 0,41.15625 -82.6875,0 0,145.46887 -41.1875,0 0,-184.84387 -20.5937,0 0,-82.375 82.3437,0 z m -36.5937,22.96875 -11.375,0 0,28.40625 11.375,0 0,-28.40625 z m 0,146.46875 -11.375,0 0,28.40625 11.375,0 0,-28.40625 z"
         style="fill:none;stroke:#000000;stroke-width:0.44999999;stroke-miterlimit:4;stroke-opacity:1;stroke-dasharray:none"
         inkscape:connector-curvature="0" />
    </g>
    <path
       inkscape:connector-curvature="0"
       id="path3889"
       d="m 188.29509,784.28656 c -37.27922,0 -67.5,30.22077 -67.5,67.49999 0,37.27922 30.22078,67.5 67.5,67.5 37.27921,0 67.50001,-30.22078 67.50001,-67.5 0,-37.27922 -30.2208,-67.49999 -67.50001,-67.49999 z m -45,62.09374 90.00001,0 0,10.8125 -90.00001,0 0,-10.8125 z"
       style="fill:none;stroke:#000000;stroke-width:0.44999999;stroke-miterlimit:4;stroke-opacity:1;stroke-dasharray:none" />
    <path
       style="fill:none;stroke:#000000;stroke-width:0.44999999;stroke-miterlimit:4;stroke-opacity:1;stroke-dasharray:none"
       d="m 85.71691,906.29658 c -37.27922,0 -67.5,30.22077 -67.5,67.49999 0,37.27923 30.22078,67.50003 67.5,67.50003 37.27922,0 67.50002,-30.2208 67.50002,-67.50003 0,-37.27922 -30.2208,-67.49999 -67.50002,-67.49999 z m -45,62.09374 90.00002,0 0,10.8125 -90.00002,0 0,-10.8125 z"
       id="path3891"
       inkscape:connector-curvature="0" />
    <path
       inkscape:connector-curvature="0"
       id="path3893"
       d="m 311.78518,853.18128 c -37.27922,0 -67.5,30.22077 -67.5,67.49999 0,37.27918 30.22078,67.49998 67.5,67.49998 37.27922,0 67.50002,-30.2208 67.50002,-67.49998 0,-37.27922 -30.2208,-67.49999 -67.50002,-67.49999 z m -45,62.09374 90.00002,0 0,10.8125 -90.00002,0 0,-10.8125 z"
       style="fill:none;stroke:#000000;stroke-width:0.44999999;stroke-miterlimit:4;stroke-opacity:1;stroke-dasharray:none" />
    <g
       id="g3628"
       transform="matrix(0,-1,1,0,496.21328,291.56562)">
      <path
         inkscape:connector-curvature="0"
         id="path3630"
         d="m 219.09596,270.89861 0,-80.59385 -62.125,0 0,-41.15625 82.6875,0 0,-145.46876 41.1875,0 0,184.84376 20.5938,0 0,82.3751 -82.3438,0 z m 36.5938,-22.9688 11.375,0 0,-28.4063 -11.375,0 0,28.4063 z m 0,-146.46881 11.375,0 0,-28.40625 -11.375,0 0,28.40625 z"
         style="fill:none;stroke:#000000;stroke-width:0.44999999;stroke-miterlimit:4;stroke-opacity:1;stroke-dasharray:none" />
      <path
         style="fill:none;stroke:#000000;stroke-width:0.44999999;stroke-miterlimit:4;stroke-opacity:1;stroke-dasharray:none"
         d="m 13.867161,-8.50078 0,21.96875 -9.8749998,0 0,28.78125 9.8749998,0 0,117.8125 -9.8749998,0 0,28.78125 9.8749998,0 0,68.78134 -13.96869983,0 0,22.5 89.99989883,0 0,-22.5 -13.9374,0 0,-68.78134 9.875,0 0,-28.78125 -9.875,0 0,-117.8125 9.875,0 0,-28.78125 -9.875,0 0,-21.96875 -62.093799,0 z"
         id="path3632"
         inkscape:connector-curvature="0" />
      <path
         inkscape:connector-curvature="0"
         style="fill:none;stroke:#000000;stroke-width:0.44999999;stroke-miterlimit:4;stroke-opacity:1;stroke-dasharray:none"
         d="m 171.81506,-5.70296 0,80.59375 62.125,0 0,41.15625 -82.6875,0 0,145.46887 -41.1875,0 0,-184.84387 -20.5937,0 0,-82.375 82.3437,0 z m -36.5937,22.96875 -11.375,0 0,28.40625 11.375,0 0,-28.40625 z m 0,146.46875 -11.375,0 0,28.40625 11.375,0 0,-28.40625 z"
         id="path3634" />
    </g>
    <g
       transform="matrix(0,-1,1,0,794.51836,284.78596)"
       id="g3636">
      <path
         style="fill:none;stroke:#000000;stroke-width:0.44999999;stroke-miterlimit:4;stroke-opacity:1;stroke-dasharray:none"
         d="m 219.09596,270.89861 0,-80.59385 -62.125,0 0,-41.15625 82.6875,0 0,-145.46876 41.1875,0 0,184.84376 20.5938,0 0,82.3751 -82.3438,0 z m 36.5938,-22.9688 11.375,0 0,-28.4063 -11.375,0 0,28.4063 z m 0,-146.46881 11.375,0 0,-28.40625 -11.375,0 0,28.40625 z"
         id="path3638"
         inkscape:connector-curvature="0" />
      <path
         inkscape:connector-curvature="0"
         id="path3640"
         d="m 13.867161,-8.50078 0,21.96875 -9.8749998,0 0,28.78125 9.8749998,0 0,117.8125 -9.8749998,0 0,28.78125 9.8749998,0 0,68.78134 -13.96869983,0 0,22.5 89.99989883,0 0,-22.5 -13.9374,0 0,-68.78134 9.875,0 0,-28.78125 -9.875,0 0,-117.8125 9.875,0 0,-28.78125 -9.875,0 0,-21.96875 -62.093799,0 z"
         style="fill:none;stroke:#000000;stroke-width:0.44999999;stroke-miterlimit:4;stroke-opacity:1;stroke-dasharray:none" />
      <path
         id="path3642"
         d="m 171.81506,-5.70296 0,80.59375 62.125,0 0,41.15625 -82.6875,0 0,145.46887 -41.1875,0 0,-184.84387 -20.5937,0 0,-82.375 82.3437,0 z m -36.5937,22.96875 -11.375,0 0,28.40625 11.375,0 0,-28.40625 z m 0,146.46875 -11.375,0 0,28.40625 11.375,0 0,-28.40625 z"
         style="fill:none;stroke:#000000;stroke-width:0.44999999;stroke-miterlimit:4;stroke-opacity:1;stroke-dasharray:none"
         inkscape:connector-curvature="0" />
    </g>
    <g
       transform="matrix(0,-1,1,0,202.99294,605.12495)"
       id="g3644">
      <path
         inkscape:connector-curvature="0"
         id="path3646"
         d="m 219.09596,270.89861 0,-80.59385 -62.125,0 0,-41.15625 82.6875,0 0,-145.46876 41.1875,0 0,184.84376 20.5938,0 0,82.3751 -82.3438,0 z m 36.5938,-22.9688 11.375,0 0,-28.4063 -11.375,0 0,28.4063 z m 0,-146.46881 11.375,0 0,-28.40625 -11.375,0 0,28.40625 z"
         style="fill:none;stroke:#000000;stroke-width:0.44999999;stroke-miterlimit:4;stroke-opacity:1;stroke-dasharray:none" />
      <path
         style="fill:none;stroke:#000000;stroke-width:0.44999999;stroke-miterlimit:4;stroke-opacity:1;stroke-dasharray:none"
         d="m 13.867161,-8.50078 0,21.96875 -9.8749998,0 0,28.78125 9.8749998,0 0,117.8125 -9.8749998,0 0,28.78125 9.8749998,0 0,68.78134 -13.96869983,0 0,22.5 89.99989883,0 0,-22.5 -13.9374,0 0,-68.78134 9.875,0 0,-28.78125 -9.875,0 0,-117.8125 9.875,0 0,-28.78125 -9.875,0 0,-21.96875 -62.093799,0 z"
         id="path3648"
         inkscape:connector-curvature="0" />
      <path
         inkscape:connector-curvature="0"
         style="fill:none;stroke:#000000;stroke-width:0.44999999;stroke-miterlimit:4;stroke-opacity:1;stroke-dasharray:none"
         d="m 171.81506,-5.70296 0,80.59375 62.125,0 0,41.15625 -82.6875,0 0,145.46887 -41.1875,0 0,-184.84387 -20.5937,0 0,-82.375 82.3437,0 z m -36.5937,22.96875 -11.375,0 0,28.40625 11.375,0 0,-28.40625 z m 0,146.46875 -11.375,0 0,28.40625 11.375,0 0,-28.40625 z"
         id="path3650" />
    </g>
    <g
       transform="matrix(0,-1,1,0,499.60311,606.81986)"
       id="g3652">
      <path
         style="fill:none;stroke:#000000;stroke-width:0.44999999;stroke-miterlimit:4;stroke-opacity:1;stroke-dasharray:none"
         d="m 219.09596,270.89861 0,-80.59385 -62.125,0 0,-41.15625 82.6875,0 0,-145.46876 41.1875,0 0,184.84376 20.5938,0 0,82.3751 -82.3438,0 z m 36.5938,-22.9688 11.375,0 0,-28.4063 -11.375,0 0,28.4063 z m 0,-146.46881 11.375,0 0,-28.40625 -11.375,0 0,28.40625 z"
         id="path3654"
         inkscape:connector-curvature="0" />
      <path
         inkscape:connector-curvature="0"
         id="path3656"
         d="m 13.867161,-8.50078 0,21.96875 -9.8749998,0 0,28.78125 9.8749998,0 0,117.8125 -9.8749998,0 0,28.78125 9.8749998,0 0,68.78134 -13.96869983,0 0,22.5 89.99989883,0 0,-22.5 -13.9374,0 0,-68.78134 9.875,0 0,-28.78125 -9.875,0 0,-117.8125 9.875,0 0,-28.78125 -9.875,0 0,-21.96875 -62.093799,0 z"
         style="fill:none;stroke:#000000;stroke-width:0.44999999;stroke-miterlimit:4;stroke-opacity:1;stroke-dasharray:none" />
      <path
         id="path3658"
         d="m 171.81506,-5.70296 0,80.59375 62.125,0 0,41.15625 -82.6875,0 0,145.46887 -41.1875,0 0,-184.84387 -20.5937,0 0,-82.375 82.3437,0 z m -36.5937,22.96875 -11.375,0 0,28.40625 11.375,0 0,-28.40625 z m 0,146.46875 -11.375,0 0,28.40625 11.375,0 0,-28.40625 z"
         style="fill:none;stroke:#000000;stroke-width:0.44999999;stroke-miterlimit:4;stroke-opacity:1;stroke-dasharray:none"
         inkscape:connector-curvature="0" />
    </g>
    <g
       id="g3660"
       transform="matrix(0,-1,1,0,797.90819,600.0402)">
      <path
         inkscape:connector-curvature="0"
         id="path3662"
         d="m 219.09596,270.89861 0,-80.59385 -62.125,0 0,-41.15625 82.6875,0 0,-145.46876 41.1875,0 0,184.84376 20.5938,0 0,82.3751 -82.3438,0 z m 36.5938,-22.9688 11.375,0 0,-28.4063 -11.375,0 0,28.4063 z m 0,-146.46881 11.375,0 0,-28.40625 -11.375,0 0,28.40625 z"
         style="fill:none;stroke:#000000;stroke-width:0.44999999;stroke-miterlimit:4;stroke-opacity:1;stroke-dasharray:none" />
      <path
         style="fill:none;stroke:#000000;stroke-width:0.44999999;stroke-miterlimit:4;stroke-opacity:1;stroke-dasharray:none"
         d="m 13.867161,-8.50078 0,21.96875 -9.8749998,0 0,28.78125 9.8749998,0 0,117.8125 -9.8749998,0 0,28.78125 9.8749998,0 0,68.78134 -13.96869983,0 0,22.5 89.99989883,0 0,-22.5 -13.9374,0 0,-68.78134 9.875,0 0,-28.78125 -9.875,0 0,-117.8125 9.875,0 0,-28.78125 -9.875,0 0,-21.96875 -62.093799,0 z"
         id="path3664"
         inkscape:connector-curvature="0" />
      <path
         inkscape:connector-curvature="0"
         style="fill:none;stroke:#000000;stroke-width:0.44999999;stroke-miterlimit:4;stroke-opacity:1;stroke-dasharray:none"
         d="m 171.81506,-5.70296 0,80.59375 62.125,0 0,41.15625 -82.6875,0 0,145.46887 -41.1875,0 0,-184.84387 -20.5937,0 0,-82.375 82.3437,0 z m -36.5937,22.96875 -11.375,0 0,28.40625 11.375,0 0,-28.40625 z m 0,146.46875 -11.375,0 0,28.40625 11.375,0 0,-28.40625 z"
         id="path3666" />
    </g>
    <g
       id="g3676"
       transform="matrix(0,-1,1,0,501.29803,925.46393)">
      <path
         inkscape:connector-curvature="0"
         id="path3678"
         d="m 219.09596,270.89861 0,-80.59385 -62.125,0 0,-41.15625 82.6875,0 0,-145.46876 41.1875,0 0,184.84376 20.5938,0 0,82.3751 -82.3438,0 z m 36.5938,-22.9688 11.375,0 0,-28.4063 -11.375,0 0,28.4063 z m 0,-146.46881 11.375,0 0,-28.40625 -11.375,0 0,28.40625 z"
         style="fill:none;stroke:#000000;stroke-width:0.44999999;stroke-miterlimit:4;stroke-opacity:1;stroke-dasharray:none" />
      <path
         style="fill:none;stroke:#000000;stroke-width:0.44999999;stroke-miterlimit:4;stroke-opacity:1;stroke-dasharray:none"
         d="m 13.867161,-8.50078 0,21.96875 -9.8749998,0 0,28.78125 9.8749998,0 0,117.8125 -9.8749998,0 0,28.78125 9.8749998,0 0,68.78134 -13.96869983,0 0,22.5 89.99989883,0 0,-22.5 -13.9374,0 0,-68.78134 9.875,0 0,-28.78125 -9.875,0 0,-117.8125 9.875,0 0,-28.78125 -9.875,0 0,-21.96875 -62.093799,0 z"
         id="path3680"
         inkscape:connector-curvature="0" />
      <path
         inkscape:connector-curvature="0"
         style="fill:none;stroke:#000000;stroke-width:0.44999999;stroke-miterlimit:4;stroke-opacity:1;stroke-dasharray:none"
         d="m 171.81506,-5.70296 0,80.59375 62.125,0 0,41.15625 -82.6875,0 0,145.46887 -41.1875,0 0,-184.84387 -20.5937,0 0,-82.375 82.3437,0 z m -36.5937,22.96875 -11.375,0 0,28.40625 11.375,0 0,-28.40625 z m 0,146.46875 -11.375,0 0,28.40625 11.375,0 0,-28.40625 z"
         id="path3682" />
    </g>
    <g
       transform="matrix(0,-1,1,0,799.60311,918.68427)"
       id="g3684">
      <path
         style="fill:none;stroke:#000000;stroke-width:0.44999999;stroke-miterlimit:4;stroke-opacity:1;stroke-dasharray:none"
         d="m 219.09596,270.89861 0,-80.59385 -62.125,0 0,-41.15625 82.6875,0 0,-145.46876 41.1875,0 0,184.84376 20.5938,0 0,82.3751 -82.3438,0 z m 36.5938,-22.9688 11.375,0 0,-28.4063 -11.375,0 0,28.4063 z m 0,-146.46881 11.375,0 0,-28.40625 -11.375,0 0,28.40625 z"
         id="path3686"
         inkscape:connector-curvature="0" />
      <path
         inkscape:connector-curvature="0"
         id="path3688"
         d="m 13.867161,-8.50078 0,21.96875 -9.8749998,0 0,28.78125 9.8749998,0 0,117.8125 -9.8749998,0 0,28.78125 9.8749998,0 0,68.78134 -13.96869983,0 0,22.5 89.99989883,0 0,-22.5 -13.9374,0 0,-68.78134 9.875,0 0,-28.78125 -9.875,0 0,-117.8125 9.875,0 0,-28.78125 -9.875,0 0,-21.96875 -62.093799,0 z"
         style="fill:none;stroke:#000000;stroke-width:0.44999999;stroke-miterlimit:4;stroke-opacity:1;stroke-dasharray:none" />
      <path
         id="path3690"
         d="m 171.81506,-5.70296 0,80.59375 62.125,0 0,41.15625 -82.6875,0 0,145.46887 -41.1875,0 0,-184.84387 -20.5937,0 0,-82.375 82.3437,0 z m -36.5937,22.96875 -11.375,0 0,28.40625 11.375,0 0,-28.40625 z m 0,146.46875 -11.375,0 0,28.40625 11.375,0 0,-28.40625 z"
         style="fill:none;stroke:#000000;stroke-width:0.44999999;stroke-miterlimit:4;stroke-opacity:1;stroke-dasharray:none"
         inkscape:connector-curvature="0" />
    </g>
    <path
       style="fill:none;stroke:#000000;stroke-width:0.44999999;stroke-miterlimit:4;stroke-opacity:1;stroke-dasharray:none"
       d="m 410.32899,753.77809 c -37.27922,0 -67.5,30.22077 -67.5,67.49999 0,37.27922 30.22078,67.5 67.5,67.5 37.27921,0 67.50001,-30.22078 67.50001,-67.5 0,-37.27922 -30.2208,-67.49999 -67.50001,-67.49999 z m -45,62.09374 90.00001,0 0,10.8125 -90.00001,0 0,-10.8125 z"
       id="path3692"
       inkscape:connector-curvature="0" />
    <path
       inkscape:connector-curvature="0"
       id="path3694"
       d="m 452.70187,909.7103 c -37.27922,0 -67.5,30.22077 -67.5,67.49999 0,37.27921 30.22078,67.50001 67.5,67.50001 37.27921,0 67.50001,-30.2208 67.50001,-67.50001 0,-37.27922 -30.2208,-67.49999 -67.50001,-67.49999 z m -45,62.09374 90.00001,0 0,10.8125 -90.00001,0 0,-10.8125 z"
       style="fill:none;stroke:#000000;stroke-width:0.44999999;stroke-miterlimit:4;stroke-opacity:1;stroke-dasharray:none" />
    <path
       style="fill:none;stroke:#000000;stroke-width:0.44999999;stroke-miterlimit:4;stroke-opacity:1;stroke-dasharray:none"
       d="m 418.80356,613.10013 c -37.27922,0 -67.5,30.22077 -67.5,67.49999 0,37.27921 30.22078,67.50001 67.5,67.50001 37.27921,0 67.50001,-30.2208 67.50001,-67.50001 0,-37.27922 -30.2208,-67.49999 -67.50001,-67.49999 z m -45,62.09374 90.00001,0 0,10.8125 -90.00001,0 0,-10.8125 z"
       id="path3696"
       inkscape:connector-curvature="0" />
    <path
       inkscape:connector-curvature="0"
       id="path3698"
       d="m 164.56628,589.37132 c -37.27922,0 -67.500003,30.22077 -67.500003,67.49999 0,37.27921 30.220783,67.50001 67.500003,67.50001 37.27921,0 67.50001,-30.2208 67.50001,-67.50001 0,-37.27922 -30.2208,-67.49999 -67.50001,-67.49999 z m -45,62.09374 90.00001,0 0,10.8125 -90.00001,0 0,-10.8125 z"
       style="fill:none;stroke:#000000;stroke-width:0.44999999;stroke-miterlimit:4;stroke-opacity:1;stroke-dasharray:none" />
    <path
       style="fill:none;stroke:#000000;stroke-width:0.44999999;stroke-miterlimit:4;stroke-opacity:1;stroke-dasharray:none"
       d="m 88.271201,144.66728 c -37.27922,0 -67.5,30.22078 -67.5,67.5 0,37.27922 30.22078,67.50005 67.5,67.50005 37.279239,0 67.500029,-30.22083 67.500029,-67.50005 0,-37.27922 -30.22079,-67.5 -67.500029,-67.5 z m -45,62.09375 90.000039,0 0,10.8125 -90.000039,0 0,-10.8125 z"
       id="path3700"
       inkscape:connector-curvature="0" />
    <path
       style="fill:none;stroke:#000000;stroke-width:0.44999999;stroke-miterlimit:4;stroke-opacity:1;stroke-dasharray:none"
       d="m 78.125601,287.6764 c -37.27922,0 -67.5,30.22077 -67.5,67.49999 0,37.27922 30.22078,67.5 67.5,67.5 37.279209,0 67.500009,-30.22078 67.500009,-67.5 0,-37.27922 -30.2208,-67.49999 -67.500009,-67.49999 z m -45,62.09374 90.000009,0 0,10.8125 -90.000009,0 0,-10.8125 z"
       id="path3702"
       inkscape:connector-curvature="0" />
    <path
       style="fill:none;stroke:#000000;stroke-width:0.44999999;stroke-miterlimit:4;stroke-opacity:1;stroke-dasharray:none"
       d="m 84.905263,-8.9337647 c -37.27922,0 -67.500003,30.2207697 -67.500003,67.4999897 0,37.27921 30.220783,67.500015 67.500003,67.500015 37.279207,0 67.500007,-30.220805 67.500007,-67.500015 0,-37.27922 -30.2208,-67.4999897 -67.500007,-67.4999897 z m -45,62.0937397 90.000007,0 0,10.8125 -90.000007,0 0,-10.8125 z"
       id="path3704"
       inkscape:connector-curvature="0" />
    <path
       inkscape:connector-curvature="0"
       id="path3706"
       d="m 84.88137,436.1927 c -37.27922,0 -67.5,30.22078 -67.5,67.5 0,37.27922 30.22078,67.50005 67.5,67.50005 37.27924,0 67.50003,-30.22083 67.50003,-67.50005 0,-37.27922 -30.22079,-67.5 -67.50003,-67.5 z m -45,62.09375 90.00004,0 0,10.8125 -90.00004,0 0,-10.8125 z"
       style="fill:none;stroke:#000000;stroke-width:0.44999999;stroke-miterlimit:4;stroke-opacity:1;stroke-dasharray:none" />
  </g>
</svg>
