<?xml version="1.0" encoding="UTF-8" standalone="no"?>
<!-- Created with Inkscape (http://www.inkscape.org/) -->

<svg
   xmlns:dc="http://purl.org/dc/elements/1.1/"
   xmlns:cc="http://creativecommons.org/ns#"
   xmlns:rdf="http://www.w3.org/1999/02/22-rdf-syntax-ns#"
   xmlns:svg="http://www.w3.org/2000/svg"
   xmlns="http://www.w3.org/2000/svg"
   xmlns:sodipodi="http://sodipodi.sourceforge.net/DTD/sodipodi-0.dtd"
   xmlns:inkscape="http://www.inkscape.org/namespaces/inkscape"
   width="1080"
   height="1080"
   id="svg3061"
   version="1.1"
   inkscape:version="0.48.5 r10040"
   sodipodi:docname="chess_set3.svg">
  <defs
     id="defs3063" />
  <sodipodi:namedview
     id="base"
     pagecolor="#ffffff"
     bordercolor="#666666"
     borderopacity="1.0"
     inkscape:pageopacity="0.0"
     inkscape:pageshadow="2"
     inkscape:zoom="0.93333333"
     inkscape:cx="784.17564"
     inkscape:cy="545.89994"
     inkscape:document-units="in"
     inkscape:current-layer="layer1"
     showgrid="false"
     inkscape:window-width="2001"
     inkscape:window-height="1214"
     inkscape:window-x="301"
     inkscape:window-y="80"
     inkscape:window-maximized="0"
     showguides="true"
     inkscape:guide-bbox="true"
     units="in" />
  <metadata
     id="metadata3066">
    <rdf:RDF>
      <cc:Work
         rdf:about="">
        <dc:format>image/svg+xml</dc:format>
        <dc:type
           rdf:resource="http://purl.org/dc/dcmitype/StillImage" />
        <dc:title />
      </cc:Work>
    </rdf:RDF>
  </metadata>
  <g
     inkscape:label="Layer 1"
     inkscape:groupmode="layer"
     id="layer1"
     transform="translate(0,27.64025)">
    <path
       style="fill:none;stroke:#000000;stroke-width:0.44999999;stroke-miterlimit:4;stroke-opacity:1;stroke-dasharray:none"
       d="m 850.8971,602.77826 c -37.27922,0 -67.5,30.22078 -67.5,67.5 0,37.27922 30.22078,67.5 67.5,67.5 37.27923,0 67.50004,-30.22078 67.50004,-67.5 0,-37.27922 -30.22081,-67.5 -67.50004,-67.5 z m -45,62.09375 90.00001,0 0,10.8125 -90.00001,0 0,-10.8125 z"
       id="path3143"
       inkscape:connector-curvature="0" />
    <path
       inkscape:connector-curvature="0"
       id="path3150"
       d="m 77.097164,68.019442 c -37.27922,0 -67.5000006,30.22078 -67.5000006,67.499998 0,37.27922 30.2207806,67.50005 67.5000006,67.50005 37.279236,0 67.500026,-30.22083 67.500026,-67.50005 0,-37.279219 -30.22079,-67.499998 -67.500026,-67.499998 z m -45,62.093748 90.000036,0 0,10.8125 -90.000036,0 0,-10.8125 z"
       style="fill:none;stroke:#000000;stroke-width:0.44999999;stroke-miterlimit:4;stroke-opacity:1;stroke-dasharray:none" />
    <path
       style="fill:none;stroke:#000000;stroke-width:0.44999999;stroke-miterlimit:4;stroke-opacity:1;stroke-dasharray:none"
       d="m 251.28733,84.228603 c -37.27922,0 -67.5,30.220777 -67.5,67.499997 0,37.27922 30.22078,67.5 67.5,67.5 37.27921,0 67.50001,-30.22078 67.50001,-67.5 0,-37.27922 -30.2208,-67.499997 -67.50001,-67.499997 z m -45,62.093747 90.00001,0 0,10.8125 -90.00001,0 0,-10.8125 z"
       id="path3152"
       inkscape:connector-curvature="0" />
    <path
       inkscape:connector-curvature="0"
       id="path3154"
       d="m 857.47604,355.08109 c -37.27923,0 -67.50001,30.22078 -67.50001,67.5 0,37.27922 30.22078,67.5 67.50001,67.5 37.27921,0 67.50004,-30.22078 67.50004,-67.5 0,-37.27922 -30.22083,-67.5 -67.50004,-67.5 z m -45.00001,62.09375 90.00002,0 0,10.8125 -90.00002,0 0,-10.8125 z"
       style="fill:none;stroke:#000000;stroke-width:0.44999999;stroke-miterlimit:4;stroke-opacity:1;stroke-dasharray:none" />
    <path
       style="fill:none;stroke:#000000;stroke-width:0.44999999;stroke-miterlimit:4;stroke-opacity:1;stroke-dasharray:none"
       d="m 705.75237,355.55666 c -37.27923,0 -67.50001,30.22078 -67.50001,67.5 0,37.27922 30.22078,67.5 67.50001,67.5 37.27921,0 67.50004,-30.22078 67.50004,-67.5 0,-37.27922 -30.22083,-67.5 -67.50004,-67.5 z m -45.00001,62.09375 90.00002,0 0,10.8125 -90.00002,0 0,-10.8125 z"
       id="path3896"
       inkscape:connector-curvature="0" />
    <path
       inkscape:connector-curvature="0"
       id="path3898"
       d="m 1001.6617,604.46469 c -37.27925,0 -67.50005,30.22078 -67.50005,67.5 0,37.27922 30.2208,67.5 67.50005,67.5 37.2793,0 67.5001,-30.22078 67.5001,-67.5 0,-37.27922 -30.2208,-67.5 -67.5001,-67.5 z m -45.00005,62.09375 90.00005,0 0,10.8125 -90.00005,0 0,-10.8125 z"
       style="fill:none;stroke:#000000;stroke-width:0.44999999;stroke-miterlimit:4;stroke-opacity:1;stroke-dasharray:none" />
    <path
       style="fill:none;stroke:#000000;stroke-width:0.44999999;stroke-miterlimit:4;stroke-opacity:1;stroke-dasharray:none"
       d="m 781.27297,726.41931 c -37.2792,0 -67.5,30.22078 -67.5,67.5 0,37.27925 30.2208,67.50005 67.5,67.50005 37.2793,0 67.5001,-30.2208 67.5001,-67.50005 0,-37.27922 -30.2208,-67.5 -67.5001,-67.5 z m -45,62.09375 90.0001,0 0,10.8125 -90.0001,0 0,-10.8125 z"
       id="path3900"
       inkscape:connector-curvature="0" />
    <path
       inkscape:connector-curvature="0"
       id="path3902"
       d="m 927.96476,730.54544 c -37.27926,0 -67.49996,30.22078 -67.49996,67.5 0,37.27922 30.2207,67.5 67.49996,67.5 37.27923,0 67.50003,-30.22078 67.50003,-67.5 0,-37.27922 -30.2208,-67.5 -67.50003,-67.5 z m -44.99996,62.09375 89.99999,0 0,10.8125 -89.99999,0 0,-10.8125 z"
       style="fill:none;stroke:#000000;stroke-width:0.44999999;stroke-miterlimit:4;stroke-opacity:1;stroke-dasharray:none" />
    <path
       style="fill:none;stroke:#000000;stroke-width:0.44999999;stroke-miterlimit:4;stroke-opacity:1;stroke-dasharray:none"
       d="m 1001.3233,359.87278 c -37.27919,0 -67.49999,30.22078 -67.49999,67.5 0,37.27922 30.2208,67.5 67.49999,67.5 37.2792,0 67.5001,-30.22078 67.5001,-67.5 0,-37.27922 -30.2209,-67.5 -67.5001,-67.5 z m -44.99999,62.09375 89.99999,0 0,10.8125 -89.99999,0 0,-10.8125 z"
       id="path3904"
       inkscape:connector-curvature="0" />
    <path
       inkscape:connector-curvature="0"
       id="path3908"
       d="m 1005.1041,848.14599 c -37.27917,0 -67.49997,30.22078 -67.49997,67.5 0,37.27927 30.2208,67.50007 67.49997,67.50007 37.2793,0 67.5001,-30.2208 67.5001,-67.50007 0,-37.27922 -30.2208,-67.5 -67.5001,-67.5 z m -44.99997,62.09375 90.00007,0 0,10.8125 -90.00007,0 0,-10.8125 z"
       style="fill:none;stroke:#000000;stroke-width:0.44999999;stroke-miterlimit:4;stroke-opacity:1;stroke-dasharray:none" />
    <path
       inkscape:connector-curvature="0"
       id="path3912"
       d="m 923.93267,478.00547 c -37.2792,0 -67.5,30.22078 -67.5,67.5 0,37.27922 30.2208,67.5 67.5,67.5 37.2792,0 67.50013,-30.22078 67.50013,-67.5 0,-37.27922 -30.22093,-67.5 -67.50013,-67.5 z m -45,62.09375 90,0 0,10.8125 -90,0 0,-10.8125 z"
       style="fill:none;stroke:#000000;stroke-width:0.44999999;stroke-miterlimit:4;stroke-opacity:1;stroke-dasharray:none" />
    <path
       inkscape:connector-curvature="0"
       id="path3914"
       d="m 707.01956,604.92031 c -37.2792,0 -67.5,30.22078 -67.5,67.5 0,37.27922 30.2208,67.5 67.5,67.5 37.2793,0 67.5001,-30.22078 67.5001,-67.5 0,-37.27922 -30.2208,-67.5 -67.5001,-67.5 z m -45,62.09375 90,0 0,10.8125 -90,0 0,-10.8125 z"
       style="fill:none;stroke:#000000;stroke-width:0.44999999;stroke-miterlimit:4;stroke-opacity:1;stroke-dasharray:none" />
    <path
       inkscape:connector-curvature="0"
       id="path3918"
       d="m 707.47684,857.1289 c -37.2793,0 -67.5,30.22078 -67.5,67.5 0,37.27921 30.2207,67.5 67.5,67.5 37.2792,0 67.5,-30.22079 67.5,-67.5 0,-37.27922 -30.2208,-67.5 -67.5,-67.5 z m -45,62.09375 90,0 0,10.8125 -90,0 0,-10.8125 z"
       style="fill:none;stroke:#000000;stroke-width:0.44999999;stroke-miterlimit:4;stroke-opacity:1;stroke-dasharray:none" />
    <path
       style="fill:none;stroke:#000000;stroke-width:0.44999999;stroke-miterlimit:4;stroke-opacity:1;stroke-dasharray:none"
       d="m 563.91806,871.13292 c -37.2792,0 -67.5,30.22078 -67.5,67.5 0,37.27922 30.2208,67.49998 67.5,67.49998 37.2792,0 67.5001,-30.22076 67.5001,-67.49998 0,-37.27922 -30.2209,-67.5 -67.5001,-67.5 z m -45,62.09375 90,0 0,10.8125 -90,0 0,-10.8125 z"
       id="path3920"
       inkscape:connector-curvature="0" />
    <path
       inkscape:connector-curvature="0"
       id="path5699"
       d="m 258.10532,507.22434 0,10.125 -10.125,0 0,10.125 -10.125,0 0,10.125 -10.125,0 0,10.125 -10.125,0 0,10.125 -10.12499,0 0,10.125 -10.125,0 0,10.125 -10.125,0 0,10.125 -10.125,0 0,-10.125 -10.125,0 0,-10.125 -10.125,0 -10.125,0 0,10.125 0,10.125 10.125,0 0,10.125 0,10.125 10.125,0 0,0.40625 -9.7188,9.71875 -0.4062,0 0,0.40625 -9.7188,9.71875 -0.4062,0 0,0.40625 -4.375,4.375 4.375,4.375 0,0.96875 -10.125,0 -10.125,0 0,10.125 0,10.125 0,10.125 10.125,0 10.125,0 10.125,0 0,-10.125 0,-10.125 0.9688,0 71.18739,71.15625 16.5,16.53125 c 0.2088,34.08206 3.1372,76.60785 1.9688,86.09375 l 0,122.37498 36.5,0 0,-163.59373 10.7812,0 0,163.59373 34.75,0 0.031,-122.37498 41.0313,0 0,-123.53125 -40.6563,0 c -0.014,-27.7575 -0.031,-81.96875 -0.031,-81.96875 l -82.3124,0 0,69.6875 -19.8126,-19.8125 -18.15619,-18.15625 7.99999,0 10.125,0 0,-10.125 0,-10.125 -10.125,0 0,-10.125 -10.12499,0 0,-10.125 10.12499,0 0,-10.125 10.125,0 0,-10.125 10.125,0 0,-10.125 10.125,0 0,-10.125 10.125,0 0,-10.125 10.125,0 0,-10.125 10.125,0 0,-10.125 10.125,0 0,-20.25 0,-10.125 -30.375,0 z m -58.62499,131.625 8,0 0,8 -6.8438,-6.84375 -1.1562,-1.15625 z"
       style="fill:none;stroke:#000000;stroke-width:0.44999999;stroke-miterlimit:4;stroke-opacity:1;stroke-dasharray:none" />
    <path
       style="fill:none;stroke:#000000;stroke-width:0.44999999;stroke-miterlimit:4;stroke-opacity:1;stroke-dasharray:none"
       d="m 535.84425,632.98579 c -37.2792,0 -67.5,30.22078 -67.5,67.5 0,37.27922 30.2208,67.5 67.5,67.5 37.2792,0 67.5001,-30.22078 67.5001,-67.5 0,-37.27922 -30.2209,-67.5 -67.5001,-67.5 z m -45,62.09375 90,0 0,10.8125 -90,0 0,-10.8125 z"
       id="path5703"
       inkscape:connector-curvature="0" />
    <path
       style="fill:none;stroke:#000000;stroke-width:0.44999999;stroke-miterlimit:4;stroke-opacity:1;stroke-dasharray:none"
       d="m 1005.8577,81.868072 c -37.27923,0 -67.50003,30.220778 -67.50003,67.499998 0,37.27922 30.2208,67.5 67.50003,67.5 37.2792,0 67.5001,-30.22078 67.5001,-67.5 0,-37.27922 -30.2209,-67.499998 -67.5001,-67.499998 z m -45.00003,62.093748 90.00003,0 0,10.8125 -90.00003,0 0,-10.8125 z"
       id="path5707"
       inkscape:connector-curvature="0" />
    <path
       inkscape:connector-curvature="0"
       id="path5725"
       d="m 886.25056,155.33609 c -37.2792,0 -67.5,30.22078 -67.5,67.5 0,37.27922 30.2208,67.5 67.5,67.5 37.2792,0 67.5,-30.22078 67.5,-67.5 0,-37.27922 -30.2208,-67.5 -67.5,-67.5 z m -45,62.09375 90,0 0,10.8125 -90,0 0,-10.8125 z"
       style="fill:none;stroke:#000000;stroke-width:0.44999999;stroke-miterlimit:4;stroke-opacity:1;stroke-dasharray:none" />
    <path
       inkscape:connector-curvature="0"
       id="path5727"
       d="m 780.84178,475.8328 c -37.27923,0 -67.50001,30.22078 -67.50001,67.5 0,37.27922 30.22078,67.5 67.50001,67.5 37.27921,0 67.50004,-30.22078 67.50004,-67.5 0,-37.27922 -30.22083,-67.5 -67.50004,-67.5 z m -45.00001,62.09375 90.00002,0 0,10.8125 -90.00002,0 0,-10.8125 z"
       style="fill:none;stroke:#000000;stroke-width:0.44999999;stroke-miterlimit:4;stroke-opacity:1;stroke-dasharray:none" />
    <path
       style="fill:none;stroke:#000000;stroke-width:0.44999999;stroke-miterlimit:4;stroke-dasharray:none"
       d="m 402.68277,-24.539573 0,7.999999 -9.6874,0 0,24.7812507 -19.375,0 0,41.6250003 -18.875,0 0,16.6875 11.0937,0 0,22.499998 0.2187,0 0,59.968745 -41.5,0 0,61.90625 41.5,0 0,81.25 10.25,0 0,40 25.8126,0 0,-178.09375 10.8124,0 0,178.09375 25.8126,0 0,-40 10.2812,0 0,-81.25 41.4688,0 0,-61.90625 -41.4688,0 0,-59.968745 0.1875,0 0,-22.499998 11.0937,0 0,-16.6875 -18.875,0 0,-41.6250003 -19.375,0 0,-24.7812507 -9.6874,0 0,-7.999999 -9.6876,0 z"
       id="rect3048"
       inkscape:connector-curvature="0" />
    <path
       style="fill:none;stroke:#000000;stroke-width:0.44999999;stroke-miterlimit:4;stroke-dasharray:none"
       d="m 503.13397,-21.664574 0,24.7812507 -19.375,0 0,41.5937503 -18.875,0 0,16.71875 11.3125,0 0,81.812493 18.25,0 0,0.1875 -0.125,0 0,142.71875 7.7813,0 0,36.4375 -28.3438,0 0,22.4375 88.7812,0 0,-22.4375 -29.3124,0 0,-36.4375 7.7812,0 0,-142.71875 -0.5625,0 0,-0.1875 18.7187,0 21,0 0,-41.28125 -21,0 0,-40.531243 11.2813,0 0,-16.71875 -18.875,0 0,-41.5937503 -19.375,0 0,-24.7812507 -8.6875,0 0,170.281244 -10.8125,0 0,-170.281244 -9.5625,0 z"
       id="rect3843"
       inkscape:connector-curvature="0" />
    <path
       inkscape:connector-curvature="0"
       id="path3879"
       d="m 675.84066,-20.573675 0,8 -9.6874,0 0,24.78125 -19.375,0 0,41.625 -18.875,0 0,16.6875 11.0937,0 0,22.5 0.2187,0 0,59.968755 -41.5,0 0,61.90625 41.5,0 0,81.25 10.25,0 0,40 25.8126,0 0,-178.09375 10.8124,0 0,178.09375 25.8126,0 0,-40 10.2812,0 0,-81.25 41.4688,0 0,-61.90625 -41.4688,0 0,-59.968755 0.1875,0 0,-22.5 11.0937,0 0,-16.6875 -18.875,0 0,-41.625 -19.375,0 0,-24.78125 -9.6874,0 0,-8 -9.6876,0 z"
       style="fill:none;stroke:#000000;stroke-width:0.44999999;stroke-miterlimit:4;stroke-dasharray:none" />
    <path
       inkscape:connector-curvature="0"
       id="path3881"
       d="m 776.29186,-17.698675 0,24.7812503 -19.375,0 0,41.5937497 -18.875,0 0,16.71875 11.3125,0 0,81.812505 18.25,0 0,0.1875 -0.125,0 0,142.71875 7.7813,0 0,36.4375 -28.3438,0 0,22.4375 88.7812,0 0,-22.4375 -29.3124,0 0,-36.4375 7.7812,0 0,-142.71875 -0.5625,0 0,-0.1875 18.7187,0 21,0 0,-41.28125 -21,0 0,-40.531255 11.2813,0 0,-16.71875 -18.875,0 0,-41.5937497 -19.375,0 0,-24.7812503 -8.6875,0 0,170.281255 -10.8125,0 0,-170.281255 -9.5625,0 z"
       style="fill:none;stroke:#000000;stroke-width:0.44999999;stroke-miterlimit:4;stroke-dasharray:none" />
    <path
       style="fill:none;stroke:#000000;stroke-width:0.44999999;stroke-miterlimit:4;stroke-opacity:1;stroke-dasharray:none"
       d="m 73.822535,307.28192 c -37.27922,0 -67.5000004,30.22077 -67.5000004,67.49999 0,37.27922 30.2207804,67.5 67.5000004,67.5 37.279215,0 67.500015,-30.22078 67.500015,-67.5 0,-37.27922 -30.2208,-67.49999 -67.500015,-67.49999 z m -45,62.09374 90.000015,0 0,10.8125 -90.000015,0 0,-10.8125 z"
       id="path3891"
       inkscape:connector-curvature="0" />
    <path
       style="fill:none;stroke:#000000;stroke-width:0.44999999;stroke-miterlimit:4;stroke-opacity:1;stroke-dasharray:none"
       d="m 26.266973,1026.7703 80.593797,0 c 0.8024,-0.065 1.5331,-0.1223 2.3125,-0.1875 l 0,-20.1875 39.0937,0 c -0.079,-0.062 -0.174,-0.1255 -0.25,-0.1875 l 68.5313,0 76.9375,0 58.68744,0 0,24.375 22.5,0 0,-90.00001 -22.5,0 0,24.4375 -58.68744,0 -76.9375,0 -107.9063,0 0,-20.5938 -82.374997,0 0,35.75 163.593797,0 0,10.8125 -163.593797,0 0,35.78131 z"
       id="path3895"
       inkscape:connector-curvature="0" />
    <path
       style="fill:none;stroke:#000000;stroke-width:0.44999999;stroke-miterlimit:4;stroke-opacity:1;stroke-dasharray:none"
       d="m 639.66394,731.18719 c -37.2793,0 -67.5,30.22078 -67.5,67.5 0,37.27922 30.2207,67.5 67.5,67.5 37.2792,0 67.50002,-30.22078 67.50002,-67.5 0,-37.27922 -30.22082,-67.5 -67.50002,-67.5 z m -45,62.09375 90,0 0,10.8125 -90,0 0,-10.8125 z"
       id="path3897"
       inkscape:connector-curvature="0" />
    <path
       inkscape:connector-curvature="0"
       id="path3899"
       d="m 850.69353,853.45686 c -37.2793,0 -67.5,30.22078 -67.5,67.5 0,37.27925 30.2207,67.50005 67.5,67.50005 37.2792,0 67.50002,-30.2208 67.50002,-67.50005 0,-37.27922 -30.22082,-67.5 -67.50002,-67.5 z m -45,62.09375 90,0 0,10.8125 -90,0 0,-10.8125 z"
       style="fill:none;stroke:#000000;stroke-width:0.44999999;stroke-miterlimit:4;stroke-opacity:1;stroke-dasharray:none" />
    <path
       inkscape:connector-curvature="0"
       id="path3903"
       d="m 914.53672,-23.588302 c -37.2792,0 -67.5,30.2207801 -67.5,67.5 0,37.279224 30.2208,67.500002 67.5,67.500002 37.2792,0 67.5001,-30.220778 67.5001,-67.500002 0,-37.2792199 -30.2209,-67.5 -67.5001,-67.5 z m -45,62.09375 90,0 0,10.8125 -90,0 0,-10.8125 z"
       style="fill:none;stroke:#000000;stroke-width:0.44999999;stroke-miterlimit:4;stroke-opacity:1;stroke-dasharray:none" />
    <path
       style="fill:none;stroke:#000000;stroke-width:0.44999999;stroke-miterlimit:4;stroke-opacity:1;stroke-dasharray:none"
       d="m 1007.9578,221.13593 c -37.27922,0 -67.50002,30.22078 -67.50002,67.5 0,37.27923 30.2208,67.50001 67.50002,67.50001 37.2792,0 67.5001,-30.22078 67.5001,-67.50001 0,-37.27922 -30.2209,-67.5 -67.5001,-67.5 z m -45.00002,62.09375 90.00002,0 0,10.8125 -90.00002,0 0,-10.8125 z"
       id="path3905"
       inkscape:connector-curvature="0" />
    <path
       inkscape:connector-curvature="0"
       id="path3057"
       d="m 448.20377,785.41863 c -37.2792,0 -67.5,30.22078 -67.5,67.5 0,37.27922 30.2208,67.49998 67.5,67.49998 37.2792,0 67.5001,-30.22076 67.5001,-67.49998 0,-37.27922 -30.2209,-67.5 -67.5001,-67.5 z m -45,62.09375 90,0 0,10.8125 -90,0 0,-10.8125 z"
       style="fill:none;stroke:#000000;stroke-width:0.44999999;stroke-miterlimit:4;stroke-opacity:1;stroke-dasharray:none" />
    <path
       inkscape:connector-curvature="0"
       id="path3729"
       d="m 280.2159,258.87146 c -37.27922,0 -67.5,30.22078 -67.5,67.5 0,37.27922 30.22078,67.5 67.5,67.5 37.27921,0 67.50001,-30.22078 67.50001,-67.5 0,-37.27922 -30.2208,-67.5 -67.50001,-67.5 z m -45,62.09375 90.00001,0 0,10.8125 -90.00001,0 0,-10.8125 z"
       style="fill:none;stroke:#000000;stroke-width:0.44999999;stroke-miterlimit:4;stroke-opacity:1;stroke-dasharray:none" />
    <path
       style="fill:none;stroke:#000000;stroke-width:0.44999999;stroke-miterlimit:4;stroke-opacity:1;stroke-dasharray:none"
       d="m 197.57505,379.90265 c -37.27922,0 -67.5,30.22078 -67.5,67.5 0,37.27922 30.22078,67.5 67.5,67.5 37.27921,0 67.50001,-30.22078 67.50001,-67.5 0,-37.27922 -30.2208,-67.5 -67.50001,-67.5 z m -45,62.09375 90.00001,0 0,10.8125 -90.00001,0 0,-10.8125 z"
       id="path3731"
       inkscape:connector-curvature="0" />
    <path
       inkscape:connector-curvature="0"
       id="path3733"
       d="m 81.322535,461.56764 c -37.27922,0 -67.5,30.22077 -67.5,67.49999 0,37.27922 30.22078,67.5 67.5,67.5 37.279215,0 67.500015,-30.22078 67.500015,-67.5 0,-37.27922 -30.2208,-67.49999 -67.500015,-67.49999 z m -45,62.09374 90.000015,0 0,10.8125 -90.000015,0 0,-10.8125 z"
       style="fill:none;stroke:#000000;stroke-width:0.44999999;stroke-miterlimit:4;stroke-opacity:1;stroke-dasharray:none" />
    <path
       style="fill:none;stroke:#000000;stroke-width:0.44999999;stroke-miterlimit:4;stroke-opacity:1;stroke-dasharray:none"
       d="m 156.72495,807.24169 c -37.27922,0 -67.500003,30.22077 -67.500003,67.49999 0,37.27922 30.220783,67.5 67.500003,67.5 37.27922,0 67.50002,-30.22078 67.50002,-67.5 0,-37.27922 -30.2208,-67.49999 -67.50002,-67.49999 z m -45,62.09374 90.00002,0 0,10.8125 -90.00002,0 0,-10.8125 z"
       id="path3735"
       inkscape:connector-curvature="0" />
    <path
       style="fill:none;stroke:#000000;stroke-width:0.44999999;stroke-miterlimit:4;stroke-opacity:1;stroke-dasharray:none"
       d="m 90.965392,669.42479 c -37.27922,0 -67.5,30.22077 -67.5,67.49999 0,37.27922 30.22078,67.5 67.5,67.5 37.279218,0 67.500018,-30.22078 67.500018,-67.5 0,-37.27922 -30.2208,-67.49999 -67.500018,-67.49999 z m -45,62.09374 90.000018,0 0,10.8125 -90.000018,0 0,-10.8125 z"
       id="path3737"
       inkscape:connector-curvature="0" />
    <path
       inkscape:connector-curvature="0"
       id="path3739"
       d="m 401.67968,345.85336 c -37.27922,0 -67.5,30.22077 -67.5,67.49999 0,37.27922 30.22078,67.5 67.5,67.5 37.27921,0 67.50001,-30.22078 67.50001,-67.5 0,-37.27922 -30.2208,-67.49999 -67.50001,-67.49999 z m -45,62.09374 90.00001,0 0,10.8125 -90.00001,0 0,-10.8125 z"
       style="fill:none;stroke:#000000;stroke-width:0.44999999;stroke-miterlimit:4;stroke-opacity:1;stroke-dasharray:none" />
    <path
       style="fill:none;stroke:#000000;stroke-width:0.44999999;stroke-miterlimit:4;stroke-opacity:1;stroke-dasharray:none"
       d="m 553.82254,359.78193 c -37.27922,0 -67.5,30.22077 -67.5,67.49999 0,37.27922 30.22078,67.5 67.5,67.5 37.27921,0 67.50001,-30.22078 67.50001,-67.5 0,-37.27922 -30.2208,-67.49999 -67.50001,-67.49999 z m -45,62.09374 90.00001,0 0,10.8125 -90.00001,0 0,-10.8125 z"
       id="path3741"
       inkscape:connector-curvature="0" />
    <path
       inkscape:connector-curvature="0"
       id="path3743"
       d="m 632.03683,480.85336 c -37.27922,0 -67.5,30.22077 -67.5,67.49999 0,37.27922 30.22078,67.5 67.5,67.5 37.27921,0 67.50001,-30.22078 67.50001,-67.5 0,-37.27922 -30.2208,-67.49999 -67.50001,-67.49999 z m -45,62.09374 90.00001,0 0,10.8125 -90.00001,0 0,-10.8125 z"
       style="fill:none;stroke:#000000;stroke-width:0.44999999;stroke-miterlimit:4;stroke-opacity:1;stroke-dasharray:none" />
    <path
       style="fill:none;stroke:#000000;stroke-width:0.44999999;stroke-miterlimit:4;stroke-opacity:1;stroke-dasharray:none"
       d="m 462.75112,475.49622 c -37.27922,0 -67.5,30.22077 -67.5,67.49999 0,37.27922 30.22078,67.5 67.5,67.5 37.27921,0 67.50001,-30.22078 67.50001,-67.5 0,-37.27922 -30.2208,-67.49999 -67.50001,-67.49999 z m -45,62.09374 90.00001,0 0,10.8125 -90.00001,0 0,-10.8125 z"
       id="path3745"
       inkscape:connector-curvature="0" />
    <path
       inkscape:connector-curvature="0"
       id="path3749"
       d="m 154.17968,185.13906 c -37.27922,0 -67.500003,30.22077 -67.500003,67.49999 0,37.27922 30.220783,67.5 67.500003,67.5 37.27921,0 67.50001,-30.22078 67.50001,-67.5 0,-37.27922 -30.2208,-67.49999 -67.50001,-67.49999 z m -45,62.09374 90.00001,0 0,10.8125 -90.00001,0 0,-10.8125 z"
       style="fill:none;stroke:#000000;stroke-width:0.44999999;stroke-miterlimit:4;stroke-opacity:1;stroke-dasharray:none" />
  </g>
</svg>
