<?xml version="1.0" encoding="UTF-8" standalone="no"?>
<svg
   xmlns:dc="http://purl.org/dc/elements/1.1/"
   xmlns:cc="http://creativecommons.org/ns#"
   xmlns:rdf="http://www.w3.org/1999/02/22-rdf-syntax-ns#"
   xmlns:svg="http://www.w3.org/2000/svg"
   xmlns="http://www.w3.org/2000/svg"
   xmlns:sodipodi="http://sodipodi.sourceforge.net/DTD/sodipodi-0.dtd"
   xmlns:inkscape="http://www.inkscape.org/namespaces/inkscape"
   version="1.1"
   width="765"
   height="990"
   viewBox="0 0 765 990"
   id="svg2"
   inkscape:version="0.48.5 r10040"
   sodipodi:docname="redstone ore block_face.svg">
  <metadata
     id="metadata32">
    <rdf:RDF>
      <cc:Work
         rdf:about="">
        <dc:format>image/svg+xml</dc:format>
        <dc:type
           rdf:resource="http://purl.org/dc/dcmitype/StillImage" />
        <dc:title />
      </cc:Work>
    </rdf:RDF>
  </metadata>
  <defs
     id="defs30" />
  <sodipodi:namedview
     pagecolor="#ffffff"
     bordercolor="#666666"
     borderopacity="1"
     objecttolerance="10"
     gridtolerance="10"
     guidetolerance="10"
     inkscape:pageopacity="0"
     inkscape:pageshadow="2"
     inkscape:window-width="1811"
     inkscape:window-height="1100"
     id="namedview28"
     showgrid="false"
     inkscape:zoom="1.07"
     inkscape:cx="463.56739"
     inkscape:cy="222.85072"
     inkscape:window-x="271"
     inkscape:window-y="112"
     inkscape:window-maximized="0"
     inkscape:current-layer="svg2"
     units="in"
     inkscape:document-units="in" />
  <!-- Front-->
  <!-- Back-->
  <!-- Left-->
  <!-- Right-->
  <!-- Top-->
  <!-- Bottom-->
  <g
     transform="translate(95.21028,337.78037)"
     id="g24">
    <polygon
       style="fill:none;stroke:#000000;stroke-width:0.89999998"
       points="518.76,225 518.76,315 540,315 540,427.5 518.76,427.5 518.76,518.76 427.5,518.76 427.5,540 315,540 315,518.76 225,518.76 225,540 112.5,540 112.5,518.76 21.24,518.76 21.24,427.5 0,427.5 0,315 21.24,315 21.24,225 0,225 0,112.5 21.24,112.5 21.24,21.24 112.5,21.24 112.5,0 225,0 225,21.24 315,21.24 315,0 427.5,0 427.5,21.24 518.76,21.24 518.76,112.5 540,112.5 540,225 "
       id="polygon26" />
  </g>
  <g
     transform="translate(94.21235,336.60037)"
     id="g4445"
     style="stroke:#000000;stroke-width:0.9;stroke-miterlimit:4;stroke-dasharray:none">
    <rect
       style="fill:none;stroke:#000000;stroke-width:0.9;stroke-miterlimit:4;stroke-dasharray:none"
       id="rect4447"
       width="33.75"
       height="33.75"
       x="156.83911"
       y="90.216415" />
    <rect
       y="90.216415"
       x="426.83908"
       height="33.75"
       width="67.499992"
       id="rect4449"
       style="fill:none;stroke:#000000;stroke-width:0.9;stroke-miterlimit:4;stroke-dasharray:none" />
    <rect
       style="fill:none;stroke:#000000;stroke-width:0.9;stroke-miterlimit:4;stroke-dasharray:none"
       id="rect4451"
       width="67.499992"
       height="33.75"
       x="258.08911"
       y="123.96638" />
    <path
       id="path4453"
       d="m 190.59375,191.46875 0,33.75 -67.5,0 0,33.75 168.75,0 0,-33.75 -33.75,0 0,-33.75 -67.5,0 z"
       style="fill:none;stroke:#000000;stroke-width:0.9;stroke-miterlimit:4;stroke-dasharray:none"
       inkscape:connector-curvature="0" />
    <path
       id="path4455"
       d="m 359.34375,191.46875 0,33.75 0,33.75 67.5,0 0,-33.75 0,-33.75 -67.5,0 z"
       style="fill:none;stroke:#000000;stroke-width:0.9;stroke-miterlimit:4;stroke-dasharray:none"
       inkscape:connector-curvature="0" />
    <path
       id="path4457"
       d="m 291.84375,292.71875 0,33.75 -33.75,0 0,33.75 135,0 0,-33.75 -33.75,0 0,-33.75 -67.5,0 z"
       style="fill:none;stroke:#000000;stroke-width:0.9;stroke-miterlimit:4;stroke-dasharray:none"
       inkscape:connector-curvature="0" />
    <rect
       y="292.71643"
       x="55.589119"
       height="33.75"
       width="67.499992"
       id="rect4459"
       style="fill:none;stroke:#000000;stroke-width:0.9;stroke-miterlimit:4;stroke-dasharray:none" />
    <rect
       y="360.21637"
       x="156.83911"
       height="33.75"
       width="33.75"
       id="rect4461"
       style="fill:none;stroke:#000000;stroke-width:0.9;stroke-miterlimit:4;stroke-dasharray:none" />
    <path
       id="path4463"
       d="m 393.09375,393.96875 0,33.75 -101.25,0 0,33.75 33.75,0 0,33.75 67.5,0 0,-33.75 101.25,0 0,-33.75 -33.75,0 0,-33.75 -67.5,0 z"
       style="fill:none;stroke:#000000;stroke-width:0.9;stroke-miterlimit:4;stroke-dasharray:none"
       inkscape:connector-curvature="0" />
    <rect
       style="fill:none;stroke:#000000;stroke-width:0.9;stroke-miterlimit:4;stroke-dasharray:none"
       id="rect4465"
       width="67.499992"
       height="33.75"
       x="123.08911"
       y="461.4664" />
  </g>
</svg>
