<?xml version="1.0" encoding="UTF-8" standalone="no"?>
<!-- Created with Inkscape (http://www.inkscape.org/) -->

<svg
   xmlns:dc="http://purl.org/dc/elements/1.1/"
   xmlns:cc="http://creativecommons.org/ns#"
   xmlns:rdf="http://www.w3.org/1999/02/22-rdf-syntax-ns#"
   xmlns:svg="http://www.w3.org/2000/svg"
   xmlns="http://www.w3.org/2000/svg"
   xmlns:sodipodi="http://sodipodi.sourceforge.net/DTD/sodipodi-0.dtd"
   xmlns:inkscape="http://www.inkscape.org/namespaces/inkscape"
   width="1080"
   height="1080"
   id="svg2"
   version="1.1"
   inkscape:version="0.48.5 r10040"
   sodipodi:docname="JOL_template.svg">
  <defs
     id="defs4" />
  <sodipodi:namedview
     id="base"
     pagecolor="#ffffff"
     bordercolor="#666666"
     borderopacity="1.0"
     inkscape:pageopacity="0.0"
     inkscape:pageshadow="2"
     inkscape:zoom="0.41943773"
     inkscape:cx="523.2282"
     inkscape:cy="879.62368"
     inkscape:document-units="in"
     inkscape:current-layer="layer1"
     showgrid="true"
     units="in"
     inkscape:window-width="1217"
     inkscape:window-height="1081"
     inkscape:window-x="535"
     inkscape:window-y="124"
     inkscape:window-maximized="0">
    <inkscape:grid
       type="xygrid"
       id="grid2985"
       units="in"
       empspacing="4"
       visible="true"
       enabled="true"
       snapvisiblegridlinesonly="true"
       spacingx="1in"
       spacingy="1in" />
  </sodipodi:namedview>
  <metadata
     id="metadata7">
    <rdf:RDF>
      <cc:Work
         rdf:about="">
        <dc:format>image/svg+xml</dc:format>
        <dc:type
           rdf:resource="http://purl.org/dc/dcmitype/StillImage" />
        <dc:title />
      </cc:Work>
    </rdf:RDF>
  </metadata>
  <g
     inkscape:label="Layer 1"
     inkscape:groupmode="layer"
     id="layer1"
     transform="translate(0,27.64025)">
    <rect
       style="fill:#ff8080;fill-opacity:1;fill-rule:evenodd;stroke:none"
       id="rect3032"
       width="67.5"
       height="202.5"
       x="202.5"
       y="242.35974" />
    <path
       style="fill:#ff8080;fill-opacity:1;fill-rule:evenodd;stroke:none"
       d="m 270,107.35975 0,67.5 0,67.5 67.5,0 0,-67.5 67.5,0 0,-67.5 -135,0 z"
       id="rect3034"
       inkscape:connector-curvature="0" />
    <path
       style="fill:#ff8080;fill-opacity:1;fill-rule:evenodd;stroke:none"
       d="m 675,107.35975 0,67.5 -67.5,0 0,67.5 0,202.5 67.5,0 0,-202.5 135,0 0,-67.5 -67.5,0 0,-67.5 -67.5,0 z"
       id="rect3036"
       inkscape:connector-curvature="0" />
    <rect
       y="174.85977"
       x="405"
       height="67.499992"
       width="67.5"
       id="rect3042"
       style="fill:#ff8080;fill-opacity:1;fill-rule:evenodd;stroke:none" />
    <rect
       style="fill:#ff8080;fill-opacity:1;fill-rule:evenodd;stroke:none"
       id="rect3044"
       width="67.5"
       height="67.499992"
       x="810"
       y="242.35974" />
    <path
       style="fill:#ff8080;fill-opacity:1;fill-rule:evenodd;stroke:none"
       d="m 202.5,579.85975 0,67.5 -67.5,0 0,67.5 0,67.50005 67.5,0 0,-67.50005 202.5,0 0,-67.5 0,-67.5 -67.5,0 0,67.5 -67.5,0 0,-67.5 -67.5,0 z m 0,202.50005 0,135 67.5,0 0,-135 -67.5,0 z"
       id="rect3080"
       inkscape:connector-curvature="0" />
    <path
       style="fill:#ff8080;fill-opacity:1;fill-rule:evenodd;stroke:none"
       d="m 540,579.85975 0,67.5 -67.5,0 0,67.5 135,0 0,-67.5 0,-67.5 -67.5,0 z m 202.5,0 0,67.5 -67.5,0 0,67.5 135,0 0,-67.5 0,-67.5 -67.5,0 z"
       id="rect3090"
       inkscape:connector-curvature="0" />
    <rect
       y="579.85974"
       x="877.5"
       height="135"
       width="67.5"
       id="rect3098"
       style="fill:#ff8080;fill-opacity:1;fill-rule:evenodd;stroke:none" />
    <path
       style="fill:#000000;fill-opacity:1;fill-rule:evenodd;stroke:none"
       d="m 337.5,174.85975 0,67.5 -67.5,0 0,202.5 0,67.5 135,0 0,-67.5 67.5,0 0,-202.5 -67.5,0 0,-67.5 -67.5,0 z"
       id="rect3104"
       inkscape:connector-curvature="0" />
    <path
       style="fill:#000000;fill-opacity:1;fill-rule:evenodd;stroke:none"
       d="m 675,242.35975 0,270 135,0 135,0 0,-135 -67.5,0 0,-67.5 -67.5,0 0,-67.5 -135,0 z"
       id="rect3111"
       inkscape:connector-curvature="0" />
    <path
       style="fill:#000000;fill-opacity:1;fill-rule:evenodd;stroke:none"
       d="m 405,647.35975 0,67.5 -202.5,0 0,67.50005 67.5,0 0,67.5 67.5,0 0,-67.5 67.5,0 0,135 67.5,0 0,-67.5 67.5,0 0,-67.5 67.5,0 0,67.5 67.5,0 67.5,0 0,67.5 67.5,0 0,-135 67.5,0 0,67.5 135,0 0,-67.5 0,-67.50005 -135,0 0,-67.5 -67.5,0 0,67.5 -135,0 0,-67.5 -67.5,0 0,67.5 -135,0 0,-67.5 -67.5,0 z"
       id="rect3118"
       inkscape:connector-curvature="0" />
  </g>
</svg>
